<svg width="168" height="50" viewBox="0 0 168 50" fill="none" xmlns="http://www.w3.org/2000/svg">
<path d="M163.221 1H4.77865C2.69176 1 1 2.64873 1 4.68254V45.3175C1 47.3513 2.69176 49 4.77865 49H163.221C165.308 49 167 47.3513 167 45.3175V4.68254C167 2.64873 165.308 1 163.221 1Z" fill="#222D33" stroke="#464F54" stroke-width="0.75"/>
<path d="M38.8333 23.8087C38.7955 19.9979 42.0352 18.1425 42.1812 18.0581C40.3478 15.449 37.5028 15.0958 36.5076 15.0695C34.1224 14.827 31.8076 16.461 30.5907 16.461C29.3522 16.461 27.4753 15.0906 25.458 15.1328C22.8618 15.1749 20.4334 16.6402 19.0975 18.912C16.35 23.5505 18.3998 30.3659 21.0338 34.1188C22.3535 35.9531 23.8895 38.0035 25.9069 37.9298C27.8756 37.8506 28.6111 36.7069 30.9963 36.7069C33.3545 36.7069 34.0468 37.9298 36.102 37.8823C38.2167 37.8506 39.5472 36.0375 40.8183 34.1821C42.3435 32.0789 42.9547 30.0075 42.9763 29.8967C42.933 29.8862 38.8712 28.3787 38.8333 23.8087Z" fill="white"/>
<path d="M34.9504 12.603C36.0105 11.3116 36.7407 9.55113 36.5352 7.76953C34.9991 7.83805 33.0846 8.80264 31.9758 10.0677C30.9968 11.1799 30.1206 13.0089 30.3478 14.7219C32.0731 14.8485 33.8417 13.8734 34.9504 12.603Z" fill="white"/>
<path d="M67.326 36.76H64.5785L63.0748 32.148H57.8448L56.4116 36.76H53.7397L58.9266 21.0684H62.1229L67.326 36.76ZM62.6206 30.2187L61.2631 26.1232C61.117 25.7068 60.8465 24.7211 60.4518 23.1662H60.4031C60.2408 23.8356 59.9866 24.816 59.6351 26.1232L58.2991 30.2187H62.6206Z" fill="white"/>
<path d="M80.6526 30.9622C80.6526 32.886 80.1226 34.4093 79.0517 35.5268C78.0944 36.5178 76.9099 37.0132 75.4929 37.0132C73.9623 37.0132 72.8643 36.4756 72.1937 35.4056H72.1504V41.3618H69.5705V29.17C69.5705 27.963 69.5381 26.719 69.4731 25.4487H71.7394L71.8853 27.2408H71.934C72.794 25.8914 74.0975 25.2168 75.8498 25.2168C77.2182 25.2168 78.3594 25.7438 79.2789 26.7981C80.1984 27.8523 80.6526 29.2438 80.6526 30.9622ZM78.0295 31.0571C78.0295 29.9554 77.7753 29.0488 77.2669 28.332C76.7098 27.5888 75.958 27.2145 75.0224 27.2145C74.3841 27.2145 73.8054 27.42 73.2916 27.8311C72.7724 28.2476 72.4371 28.7853 72.2748 29.4493C72.1937 29.7604 72.1558 30.0133 72.1558 30.2137V32.1007C72.1558 32.923 72.4154 33.6188 72.9293 34.1827C73.4485 34.752 74.1192 35.0313 74.9466 35.0313C75.9202 35.0313 76.6774 34.6677 77.2128 33.9403C77.7591 33.2128 78.0295 32.2535 78.0295 31.0571Z" fill="white"/>
<path d="M94.0062 30.9622C94.0062 32.886 93.4761 34.4093 92.4053 35.5268C91.4479 36.5178 90.2635 37.0132 88.8464 37.0132C87.3212 37.0132 86.2233 36.4756 85.5526 35.4056H85.5039V41.3618H82.924V29.17C82.924 27.963 82.8916 26.719 82.8267 25.4487H85.0928L85.2388 27.2408H85.2875C86.1421 25.8914 87.451 25.2168 89.2034 25.2168C90.5717 25.2168 91.7129 25.7438 92.6324 26.7981C93.5465 27.8523 94.0062 29.2438 94.0062 30.9622ZM91.3776 31.0571C91.3776 29.9554 91.1234 29.0488 90.6095 28.332C90.0525 27.5888 89.3061 27.2145 88.3651 27.2145C87.7268 27.2145 87.1481 27.42 86.6343 27.8311C86.1151 28.2476 85.7797 28.7853 85.6229 29.4493C85.5418 29.7604 85.5039 30.0133 85.5039 30.2137V32.1007C85.5039 32.923 85.7582 33.6188 86.2774 34.1827C86.7966 34.752 87.4673 35.0313 88.2947 35.0313C89.2629 35.0313 90.0255 34.6677 90.561 33.9403C91.1072 33.2128 91.3776 32.2535 91.3776 31.0571Z" fill="white"/>
<path d="M108.934 32.359C108.934 33.6925 108.457 34.7784 107.501 35.6165C106.451 36.5336 104.992 36.9869 103.12 36.9869C101.389 36.9869 99.999 36.6601 98.9443 36.0117L99.5446 33.9191C100.68 34.5886 101.919 34.9207 103.277 34.9207C104.25 34.9207 105.007 34.7098 105.548 34.2828C106.089 33.8559 106.359 33.2814 106.359 32.5697C106.359 31.932 106.138 31.3944 105.694 30.9621C105.251 30.5246 104.504 30.124 103.471 29.7498C100.653 28.7219 99.2471 27.225 99.2471 25.2483C99.2471 23.957 99.7394 22.9028 100.729 22.0806C101.713 21.2582 103.028 20.8418 104.672 20.8418C106.138 20.8418 107.355 21.0896 108.323 21.585L107.679 23.6354C106.771 23.1558 105.743 22.9134 104.596 22.9134C103.688 22.9134 102.979 23.1294 102.471 23.567C102.043 23.957 101.827 24.4314 101.827 24.9848C101.827 25.6069 102.07 26.1181 102.568 26.5187C102.995 26.8929 103.78 27.2935 104.91 27.731C106.295 28.2739 107.311 28.9117 107.965 29.6392C108.61 30.3665 108.934 31.2731 108.934 32.359Z" fill="white"/>
<path d="M117.463 27.3306H114.618V32.823C114.618 34.2198 115.121 34.9156 116.122 34.9156C116.582 34.9156 116.965 34.8786 117.269 34.7996L117.339 36.7077C116.83 36.8922 116.16 36.9871 115.332 36.9871C114.309 36.9871 113.515 36.6866 112.942 36.0804C112.368 35.4743 112.082 34.457 112.082 33.0285V27.3306H110.384V25.4436H112.082V23.3774L114.613 22.6289V25.4436H117.457V27.3306H117.463Z" fill="white"/>
<path d="M130.287 31.0096C130.287 32.749 129.778 34.1774 128.762 35.2949C127.69 36.444 126.274 37.0185 124.51 37.0185C122.807 37.0185 121.45 36.4703 120.437 35.3634C119.426 34.2618 118.923 32.8756 118.923 31.1994C118.923 29.4441 119.443 28.0104 120.486 26.893C121.525 25.7755 122.931 25.2168 124.7 25.2168C126.403 25.2168 127.772 25.7702 128.81 26.8719C129.795 27.9366 130.287 29.3176 130.287 31.0096ZM127.609 31.0886C127.609 30.045 127.377 29.1542 126.917 28.4057C126.376 27.5043 125.602 27.0511 124.602 27.0511C123.564 27.0511 122.78 27.5043 122.239 28.4057C121.774 29.1542 121.547 30.0608 121.547 31.1361C121.547 32.1798 121.774 33.0705 122.239 33.819C122.795 34.7204 123.575 35.1737 124.581 35.1737C125.565 35.1737 126.338 34.7151 126.895 33.798C127.371 33.0389 127.609 32.1324 127.609 31.0886Z" fill="white"/>
<path d="M138.67 27.6572C138.416 27.6151 138.146 27.5888 137.859 27.5888C136.95 27.5888 136.247 27.926 135.755 28.5902C135.328 29.1805 135.111 29.9237 135.111 30.8251V36.7603H132.531L132.553 29.0119C132.553 27.71 132.521 26.5187 132.461 25.4487H134.706L134.803 27.6151H134.874C135.143 26.8719 135.576 26.271 136.166 25.823C136.739 25.417 137.362 25.2168 138.032 25.2168C138.27 25.2168 138.486 25.2325 138.675 25.259V27.6572H138.67Z" fill="white"/>
<path d="M150.207 30.5664C150.207 31.0198 150.175 31.3941 150.115 31.705H142.376C142.403 32.8225 142.781 33.6763 143.495 34.2668C144.144 34.7938 144.993 35.0574 146.026 35.0574C147.168 35.0574 148.211 34.8781 149.152 34.525L149.558 36.2696C148.46 36.7335 147.162 36.9707 145.663 36.9707C143.868 36.9707 142.451 36.4541 141.423 35.4211C140.401 34.3879 139.882 33.0017 139.882 31.2675C139.882 29.5597 140.358 28.1419 141.316 27.0085C142.315 25.7962 143.668 25.1953 145.372 25.1953C147.042 25.1953 148.314 25.8015 149.174 27.0085C149.866 27.9678 150.207 29.1539 150.207 30.5664ZM147.746 29.9128C147.762 29.1697 147.595 28.5266 147.249 27.9837C146.8 27.2879 146.113 26.9348 145.193 26.9348C144.349 26.9348 143.668 27.2773 143.143 27.9574C142.71 28.5003 142.456 29.1486 142.381 29.9128H147.746Z" fill="white"/>
<path d="M57.3472 14.0356L56.7306 16.0174H55.3784L57.6825 9.01758H59.3538L61.6849 16.0174H60.2786L59.6296 14.0356H57.3472ZM59.4024 13.071L58.84 11.3474C58.6994 10.9204 58.5857 10.446 58.4775 10.0402H58.456C58.3478 10.446 58.245 10.9309 58.1152 11.3474L57.5635 13.071H59.4024Z" fill="white"/>
<path d="M63.6426 10.9629L64.4864 13.5298C64.6377 13.9779 64.7405 14.3785 64.8379 14.7949H64.8704C64.9677 14.3785 65.0813 13.9832 65.2219 13.5298L66.0548 10.9629H67.4286L65.449 16.0178H64.1619L62.231 10.9629H63.6426Z" fill="white"/>
<path d="M72.6535 14.8048C72.6535 15.2634 72.6751 15.7061 72.74 16.0172H71.5556L71.4582 15.4584H71.4258C71.1174 15.8537 70.5712 16.1331 69.8897 16.1331C68.8459 16.1331 68.2617 15.3952 68.2617 14.6256C68.2617 13.3606 69.4246 12.707 71.3391 12.7175V12.6384C71.3391 12.3064 71.1985 11.7581 70.2846 11.7581C69.7707 11.7581 69.2407 11.9163 68.8891 12.1324L68.6349 11.2996C69.0189 11.0729 69.6896 10.8516 70.5117 10.8516C72.1721 10.8516 72.6535 11.8794 72.6535 12.9916V14.8048ZM71.3771 13.5503C70.4522 13.5398 69.5652 13.7295 69.5652 14.4938C69.5652 14.9946 69.8951 15.2212 70.3116 15.2212C70.8416 15.2212 71.2148 14.8892 71.3446 14.5255C71.3771 14.4306 71.3771 14.341 71.3771 14.2461V13.5503Z" fill="white"/>
<path d="M75.1574 10.2404C74.7193 10.2404 74.4326 9.92938 74.4326 9.55515C74.4326 9.15982 74.7301 8.85938 75.1682 8.85938C75.6171 8.85938 75.893 9.15982 75.9037 9.55515C75.9037 9.92938 75.6171 10.2404 75.1682 10.2404H75.1574ZM74.5084 16.0227V10.9678H75.8172V16.0227H74.5084Z" fill="white"/>
<path d="M77.7051 8.63867H79.014V16.0234H77.7051V8.63867Z" fill="white"/>
<path d="M84.9362 14.8048C84.9362 15.2634 84.9578 15.7061 85.0227 16.0172H83.8383L83.7409 15.4584H83.7085C83.4002 15.8537 82.8593 16.1331 82.1724 16.1331C81.1286 16.1331 80.5444 15.3952 80.5444 14.6256C80.5444 13.3606 81.7073 12.707 83.6219 12.7175V12.6384C83.6219 12.3064 83.4812 11.7581 82.5673 11.7581C82.0534 11.7581 81.5234 11.9163 81.1718 12.1324L80.9176 11.2996C81.3016 11.0729 81.9723 10.8516 82.7944 10.8516C84.4548 10.8516 84.9362 11.8794 84.9362 12.9916V14.8048ZM83.6544 13.5503C82.7295 13.5398 81.8425 13.7295 81.8425 14.4938C81.8425 14.9946 82.1724 15.2212 82.5889 15.2212C83.1189 15.2212 83.4921 14.8892 83.6219 14.5255C83.6544 14.4306 83.6544 14.341 83.6544 14.2461V13.5503Z" fill="white"/>
<path d="M86.7855 8.63867H88.0943V11.659H88.1159C88.435 11.1687 89.0029 10.8472 89.7764 10.8472C91.0419 10.8472 91.9506 11.875 91.9397 13.4142C91.9397 15.2327 90.7553 16.134 89.5871 16.134C88.9164 16.134 88.3214 15.8863 87.9482 15.2643H87.9267L87.8617 16.0234H86.7422C86.7638 15.6807 86.7855 15.122 86.7855 14.6107V8.63867ZM88.0997 13.936C88.0997 14.0414 88.1105 14.1416 88.1321 14.2364C88.2727 14.7583 88.7271 15.1273 89.295 15.1273C90.1171 15.1273 90.6147 14.4948 90.6147 13.4669C90.6147 12.5761 90.1765 11.8487 89.3058 11.8487C88.7758 11.8487 88.2836 12.223 88.1429 12.7817C88.1214 12.8766 88.0997 12.9872 88.0997 13.1137V13.936Z" fill="white"/>
<path d="M93.4868 8.63867H94.7956V16.0234H93.4868V8.63867Z" fill="white"/>
<path d="M97.6192 13.8521C97.6516 14.7639 98.3871 15.1593 99.2147 15.1593C99.8204 15.1593 100.248 15.0644 100.653 14.9327L100.843 15.8024C100.394 15.9869 99.7771 16.1239 99.0308 16.1239C97.3487 16.1239 96.3535 15.1172 96.3535 13.5675C96.3535 12.1653 97.2297 10.8477 98.8902 10.8477C100.572 10.8477 101.129 12.197 101.129 13.3092C101.129 13.5463 101.108 13.7361 101.086 13.8468H97.6192V13.8521ZM99.9016 12.9613C99.9123 12.4922 99.7015 11.7279 98.8252 11.7279C98.0139 11.7279 97.6732 12.4447 97.6192 12.9613H99.9016Z" fill="white"/>
<path d="M107.598 16.1331C106.138 16.1331 104.997 15.158 104.997 13.5292C104.997 11.8689 106.116 10.8516 107.685 10.8516C109.232 10.8516 110.265 11.911 110.265 13.4449C110.265 15.3056 108.923 16.1331 107.614 16.1331H107.598ZM107.641 15.2107C108.387 15.2107 108.907 14.5043 108.907 13.4765C108.907 12.6858 108.545 11.774 107.652 11.774C106.727 11.774 106.354 12.6542 106.354 13.4976C106.354 14.4727 106.857 15.2107 107.631 15.2107H107.641Z" fill="white"/>
<path d="M111.805 12.4697C111.805 11.89 111.784 11.3997 111.763 10.9623H112.903L112.969 11.7213H113.001C113.233 11.326 113.802 10.8516 114.662 10.8516C115.564 10.8516 116.506 11.4209 116.506 13.0232V16.0224H115.196V13.1655C115.196 12.4382 114.921 11.89 114.207 11.89C113.688 11.89 113.325 12.2537 113.185 12.6384C113.142 12.7438 113.12 12.8967 113.12 13.0443V16.0224H111.811V12.4697H111.805Z" fill="white"/>
<path d="M122.542 9.66602V10.9627H123.786V11.9168H122.542V14.1411C122.542 14.763 122.715 15.0741 123.213 15.0741C123.445 15.0741 123.575 15.0635 123.726 15.0214L123.748 15.9859C123.559 16.0597 123.207 16.123 122.802 16.123C122.31 16.123 121.92 15.9648 121.671 15.7066C121.384 15.4166 121.255 14.9475 121.255 14.2834V11.9168H120.519V10.9627H121.255V10.0192L122.542 9.66602Z" fill="white"/>
<path d="M125.246 8.63867H126.554V11.6484H126.576C126.739 11.4112 126.96 11.211 127.226 11.0791C127.49 10.9316 127.799 10.8525 128.128 10.8525C129.01 10.8525 129.94 11.4218 129.94 13.0452V16.0234H128.632V13.177C128.632 12.4496 128.356 11.8909 127.631 11.8909C127.117 11.8909 126.76 12.223 126.608 12.6077C126.566 12.7237 126.554 12.8555 126.554 12.9925V16.0234H125.246V8.63867Z" fill="white"/>
<path d="M132.737 13.8521C132.77 14.7639 133.505 15.1593 134.333 15.1593C134.938 15.1593 135.366 15.0644 135.771 14.9327L135.961 15.8024C135.511 15.9869 134.895 16.1239 134.149 16.1239C132.467 16.1239 131.471 15.1172 131.471 13.5675C131.471 12.1653 132.348 10.8477 134.008 10.8477C135.69 10.8477 136.247 12.197 136.247 13.3092C136.247 13.5463 136.226 13.7361 136.204 13.8468H132.737V13.8521ZM135.014 12.9613C135.025 12.4922 134.814 11.7279 133.937 11.7279C133.126 11.7279 132.786 12.4447 132.731 12.9613H135.014Z" fill="white"/>
</svg>
