<svg width="168" height="50" viewBox="0 0 168 50" fill="none" xmlns="http://www.w3.org/2000/svg">
<path d="M163.221 1H4.77865C2.69176 1 1 2.64873 1 4.68254V45.3175C1 47.3513 2.69176 49 4.77865 49H163.221C165.308 49 167 47.3513 167 45.3175V4.68254C167 2.64873 165.308 1 163.221 1Z" fill="#222D33" stroke="#464F54" stroke-width="0.75"/>
<path fill-rule="evenodd" clip-rule="evenodd" d="M16.6519 12.0231C16.3486 12.3382 16.1733 12.8196 16.1733 13.4498V35.7996C16.1733 36.4298 16.3486 36.9112 16.6623 37.2137L16.7434 37.2817L29.7351 24.7595V24.4798L16.733 11.9551L16.6519 12.0231Z" fill="url(#paint0_linear_3742_69234)"/>
<path fill-rule="evenodd" clip-rule="evenodd" d="M34.0578 28.9464L29.7246 24.7698V24.4774L34.0578 20.3008L34.1519 20.3563L39.2775 23.1642C40.7446 23.9607 40.7446 25.2764 39.2775 26.083L34.1519 28.8909L34.0578 28.9464Z" fill="url(#paint1_linear_3742_69234)"/>
<path fill-rule="evenodd" clip-rule="evenodd" d="M34.152 28.8903L29.7247 24.623L16.6519 37.2233C17.1304 37.7173 17.9333 37.7728 18.8302 37.2914L34.152 28.8903Z" fill="url(#paint2_linear_3742_69234)"/>
<path fill-rule="evenodd" clip-rule="evenodd" d="M34.152 20.3556L18.8302 11.9671C17.9333 11.4731 17.1278 11.5412 16.6519 12.0352L29.7247 24.6229L34.152 20.3556Z" fill="url(#paint3_linear_3742_69234)"/>
<path opacity="0.2" fill-rule="evenodd" clip-rule="evenodd" d="M34.0582 28.8008L18.841 37.1338C17.9911 37.6052 17.2327 37.5724 16.7437 37.1439L16.6626 37.2221L16.7437 37.2901C17.2327 37.7161 17.9911 37.7514 18.841 37.28L34.1628 28.8916L34.0582 28.8008Z" fill="black"/>
<path opacity="0.12" fill-rule="evenodd" clip-rule="evenodd" d="M39.2777 25.9362L34.0449 28.7996L34.139 28.8903L39.2646 26.0824C39.9994 25.6791 40.3604 25.1498 40.3604 24.623C40.3159 25.1069 39.942 25.5657 39.2777 25.9362Z" fill="black"/>
<path opacity="0.25" fill-rule="evenodd" clip-rule="evenodd" d="M18.8303 12.1138L39.2776 23.3102C39.9418 23.6706 40.3159 24.142 40.3733 24.6234C40.3733 24.0966 40.0125 23.5673 39.2776 23.164L18.8303 11.9677C17.3632 11.1585 16.1733 11.8341 16.1733 13.4497V13.5959C16.1733 11.9777 17.3632 11.3148 18.8303 12.1138Z" fill="white"/>
<path d="M81.8267 25.6916C79.0005 25.6916 76.6965 27.7619 76.6965 30.6208C76.6965 33.459 79.0005 35.55 81.8267 35.55C84.6528 35.55 86.9568 33.459 86.9568 30.6208C86.9568 27.7619 84.6528 25.6916 81.8267 25.6916ZM81.8267 33.6042C80.2764 33.6042 78.9413 32.3745 78.9413 30.6156C78.9413 28.8411 80.2764 27.6269 81.8267 27.6269C83.377 27.6269 84.7121 28.8411 84.7121 30.6156C84.7121 32.3745 83.377 33.6042 81.8267 33.6042ZM70.6296 25.6916C67.8034 25.6916 65.4995 27.7619 65.4995 30.6208C65.4995 33.459 67.8034 35.55 70.6296 35.55C73.4558 35.55 75.7598 33.459 75.7598 30.6208C75.7598 27.7619 73.4558 25.6916 70.6296 25.6916ZM70.6296 33.6042C69.0792 33.6042 67.7442 32.3745 67.7442 30.6156C67.7442 28.8411 69.0792 27.6269 70.6296 27.6269C72.18 27.6269 73.515 28.8411 73.515 30.6156C73.515 32.3745 72.18 33.6042 70.6296 33.6042ZM57.3116 27.2015V29.2925H62.501C62.3448 30.4703 61.9411 31.3264 61.3221 31.9231C60.5684 32.6495 59.3841 33.4538 57.3116 33.4538C54.1139 33.4538 51.6161 30.9684 51.6161 27.8916C51.6161 24.8095 54.1139 22.3294 57.3116 22.3294C59.0342 22.3294 60.2939 22.9831 61.2252 23.8237L62.754 22.3501C61.4566 21.1567 59.734 20.2383 57.3116 20.2383C52.935 20.2383 49.2529 23.6732 49.2529 27.8916C49.2529 32.1099 52.935 35.5448 57.3116 35.5448C59.6748 35.5448 61.4566 34.7976 62.8509 33.3967C64.2828 32.0165 64.7296 30.076 64.7296 28.5038C64.7296 28.0161 64.692 27.5699 64.6111 27.1963H57.3116V27.2015ZM111.779 28.8255C111.354 27.7255 110.056 25.6916 107.402 25.6916C104.77 25.6916 102.579 27.6892 102.579 30.6208C102.579 33.3811 104.748 35.55 107.655 35.55C109.997 35.55 111.354 34.1698 111.913 33.3656L110.169 32.2448C109.588 33.0646 108.796 33.6094 107.65 33.6094C106.509 33.6094 105.696 33.1061 105.168 32.1151L112.005 29.3911L111.779 28.8255ZM104.807 30.4703C104.748 28.5661 106.336 27.5958 107.478 27.5958C108.371 27.5958 109.125 28.0265 109.378 28.6387L104.807 30.4703ZM99.2467 35.249H101.491V20.7624H99.2467V35.249ZM95.5699 26.7916H95.4946C94.9886 26.2105 94.025 25.6916 92.803 25.6916C90.246 25.6916 87.9043 27.8552 87.9043 30.6364C87.9043 33.3967 90.246 35.5448 92.803 35.5448C94.025 35.5448 94.994 35.0207 95.4946 34.424H95.5699V35.1349C95.5699 37.0184 94.5256 38.0301 92.8407 38.0301C91.468 38.0301 90.612 37.0806 90.2675 36.2764L88.3135 37.0599C88.8733 38.3674 90.3644 39.9707 92.8461 39.9707C95.4784 39.9707 97.7071 38.4764 97.7071 34.8391V25.9925H95.5753V26.7916H95.5699ZM92.9914 33.6042C91.4411 33.6042 90.1437 32.3538 90.1437 30.6364C90.1437 28.8982 91.4411 27.6321 92.9914 27.6321C94.5203 27.6321 95.7207 28.9034 95.7207 30.6364C95.7207 32.3538 94.5203 33.6042 92.9914 33.6042ZM122.302 20.7624H116.93V35.249H119.175V29.7595H122.309C124.796 29.7595 127.239 28.0265 127.239 25.2609C127.239 22.4954 124.79 20.7624 122.302 20.7624ZM122.356 27.7463H119.165V22.7808H122.356C124.036 22.7808 124.983 24.1194 124.983 25.2609C124.99 26.3869 124.036 27.7463 122.356 27.7463ZM136.224 25.6656C134.598 25.6656 132.918 26.3557 132.224 27.8812L134.216 28.6802C134.641 27.8812 135.433 27.6166 136.267 27.6166C137.43 27.6166 138.609 28.2859 138.624 29.4793V29.6298C138.221 29.4066 137.349 29.0694 136.283 29.0694C134.135 29.0694 131.949 30.2057 131.949 32.333C131.949 34.2736 133.71 35.5189 135.68 35.5189C137.187 35.5189 138.022 34.8651 138.545 34.1024H138.619V35.2179H140.783V29.6661C140.783 27.0977 138.791 25.6656 136.224 25.6656ZM135.95 33.6042C135.217 33.6042 134.189 33.2514 134.189 32.3745C134.189 31.259 135.465 30.8283 136.568 30.8283C137.554 30.8283 138.016 31.0359 138.619 31.3109C138.447 32.6547 137.247 33.6042 135.95 33.6042ZM148.676 25.9822L146.102 32.2604H146.027L143.356 25.9822H140.939L144.94 34.7613L142.657 39.6438H144.999L151.168 25.9822H148.676ZM128.466 35.249H130.711V20.7624H128.466V35.249Z" fill="white"/>
<path d="M56.8806 10.81C56.423 10.4208 55.8255 10.1717 55.158 10.1717C53.6668 10.1717 52.5149 11.36 52.5149 12.818C52.5149 14.276 53.6668 15.4538 55.158 15.4538C56.4446 15.4538 57.3759 14.7326 57.4405 13.5963H55.411V12.7869H58.544C58.544 15.2048 57.2089 16.3462 55.1634 16.3462C53.134 16.3462 51.5566 14.7689 51.5566 12.818C51.5566 10.8567 53.134 9.2793 55.1634 9.2793C56.1055 9.2793 56.956 9.63213 57.5805 10.1873L56.8806 10.81Z" fill="white"/>
<path d="M64.089 9.36328V10.2298H60.8214V12.4297H63.6746V13.3014H60.8214V15.3821H64.1913V16.2486H59.8579V9.36328H64.089Z" fill="white"/>
<path d="M70.3391 9.36328V10.2402H68.1751V16.2434H67.2007V10.2402H65.0312V9.36328H70.3391Z" fill="white"/>
<path d="M74.9631 9.36328V16.2486H73.9995V9.36328H74.9631Z" fill="white"/>
<path d="M81.5359 9.36328V10.2402H79.3719V16.2434H78.3974V10.2402H76.228V9.36328H81.5359Z" fill="white"/>
<path d="M88.3402 9.2793C90.3804 9.2793 91.9684 10.8567 91.9684 12.818C91.9684 14.7637 90.3804 16.3462 88.3402 16.3462C86.3107 16.3462 84.7334 14.7689 84.7334 12.818C84.7334 10.8567 86.3053 9.2793 88.3402 9.2793ZM88.3402 15.4434C89.8421 15.4434 90.9941 14.276 90.9941 12.818C90.9941 11.36 89.8421 10.1821 88.3402 10.1821C86.8491 10.1821 85.697 11.36 85.697 12.818C85.697 14.276 86.8491 15.4434 88.3402 15.4434Z" fill="white"/>
<path d="M97.6692 16.2434L94.4124 11.0599V16.2434H93.4487V9.36328H94.4016L97.6261 14.5104V9.36328H98.5898V16.2486H97.6692V16.2434Z" fill="white"/>
<defs>
<linearGradient id="paint0_linear_3742_69234" x1="28.5698" y1="13.2086" x2="7.86417" y2="18.9325" gradientUnits="userSpaceOnUse">
<stop stop-color="#00A0FF"/>
<stop offset="0.00657" stop-color="#00A1FF"/>
<stop offset="0.2601" stop-color="#00BEFF"/>
<stop offset="0.5122" stop-color="#00D2FF"/>
<stop offset="0.7604" stop-color="#00DFFF"/>
<stop offset="1" stop-color="#00E3FF"/>
</linearGradient>
<linearGradient id="paint1_linear_3742_69234" x1="41.1907" y1="24.6236" x2="15.8167" y2="24.6236" gradientUnits="userSpaceOnUse">
<stop stop-color="#FFE000"/>
<stop offset="0.4087" stop-color="#FFBD00"/>
<stop offset="0.7754" stop-color="#FFA500"/>
<stop offset="1" stop-color="#FF9C00"/>
</linearGradient>
<linearGradient id="paint2_linear_3742_69234" x1="31.7446" y1="26.945" x2="15.931" y2="54.5587" gradientUnits="userSpaceOnUse">
<stop stop-color="#FF3A44"/>
<stop offset="1" stop-color="#C31162"/>
</linearGradient>
<linearGradient id="paint3_linear_3742_69234" x1="13.36" y1="4.58869" x2="20.4149" y2="16.921" gradientUnits="userSpaceOnUse">
<stop stop-color="#32A071"/>
<stop offset="0.0685" stop-color="#2DA771"/>
<stop offset="0.4762" stop-color="#15CF74"/>
<stop offset="0.8009" stop-color="#06E775"/>
<stop offset="1" stop-color="#00F076"/>
</linearGradient>
</defs>
</svg>
