<svg width="32" height="32" viewBox="0 0 32 32" fill="none" xmlns="http://www.w3.org/2000/svg">
<path opacity="0.3" d="M3.66585 2.66797H12.9992C13.7992 2.66797 14.3325 3.2013 14.3325 4.0013V13.3346C14.3325 14.1346 13.7992 14.668 12.9992 14.668H3.66585C2.86585 14.668 2.33252 14.1346 2.33252 13.3346V4.0013C2.33252 3.2013 2.86585 2.66797 3.66585 2.66797Z" fill="#1AB75E"/>
<path opacity="0.3" d="M18.6659 2.66797H27.9992C28.7992 2.66797 29.3325 3.2013 29.3325 4.0013V13.3346C29.3325 14.1346 28.7992 14.668 27.9992 14.668H18.6659C17.8659 14.668 17.3325 14.1346 17.3325 13.3346V4.0013C17.3325 3.2013 17.8659 2.66797 18.6659 2.66797Z" fill="#1AB75E"/>
<path d="M3.99935 17.668H13.3327C14.1327 17.668 14.666 18.2013 14.666 19.0013V28.3346C14.666 29.1346 14.1327 29.668 13.3327 29.668H3.99935C3.19935 29.668 2.66602 29.1346 2.66602 28.3346V19.0013C2.66602 18.2013 3.19935 17.668 3.99935 17.668Z" fill="#1AB75E"/>
<path opacity="0.3" d="M18.6659 17.334H27.9992C28.7992 17.334 29.3325 17.8673 29.3325 18.6673V28.0007C29.3325 28.8007 28.7992 29.334 27.9992 29.334H18.6659C17.8659 29.334 17.3325 28.8007 17.3325 28.0007V18.6673C17.3325 17.8673 17.8659 17.334 18.6659 17.334Z" fill="#1AB75E"/>
</svg>
