<svg width="32" height="32" viewBox="0 0 32 32" fill="none" xmlns="http://www.w3.org/2000/svg">
<path opacity="0.3" d="M3.99935 2.33398H13.3327C14.1327 2.33398 14.666 2.86732 14.666 3.66732V13.0007C14.666 13.8007 14.1327 14.334 13.3327 14.334H3.99935C3.19935 14.334 2.66602 13.8007 2.66602 13.0007V3.66732C2.66602 2.86732 3.19935 2.33398 3.99935 2.33398Z" fill="#EA443E"/>
<path d="M18.9993 2.66797H28.3327C29.1327 2.66797 29.666 3.2013 29.666 4.0013V13.3346C29.666 14.1346 29.1327 14.668 28.3327 14.668H18.9993C18.1993 14.668 17.666 14.1346 17.666 13.3346V4.0013C17.666 3.2013 18.1993 2.66797 18.9993 2.66797Z" fill="#EA443E"/>
<path opacity="0.3" d="M3.99935 17.334H13.3327C14.1327 17.334 14.666 17.8673 14.666 18.6673V28.0007C14.666 28.8007 14.1327 29.334 13.3327 29.334H3.99935C3.19935 29.334 2.66602 28.8007 2.66602 28.0007V18.6673C2.66602 17.8673 3.19935 17.334 3.99935 17.334Z" fill="#EA443E"/>
<path opacity="0.3" d="M18.6659 17.334H27.9992C28.7992 17.334 29.3325 17.8673 29.3325 18.6673V28.0007C29.3325 28.8007 28.7992 29.334 27.9992 29.334H18.6659C17.8659 29.334 17.3325 28.8007 17.3325 28.0007V18.6673C17.3325 17.8673 17.8659 17.334 18.6659 17.334Z" fill="#EA443E"/>
</svg>
