<svg width="40" height="32" viewBox="0 0 40 32" fill="none" xmlns="http://www.w3.org/2000/svg">
<g opacity="0.3">
<path d="M34.8691 9.98281C34.8691 11.7441 34.1827 13.4333 32.9609 14.6787C31.7391 15.9241 30.0821 16.6238 28.3542 16.6238C26.6264 16.6238 24.9693 15.9241 23.7475 14.6787C22.5257 13.4333 21.8394 11.7441 21.8394 9.98281C21.8394 8.2215 22.5257 6.53234 23.7475 5.2869C24.9693 4.04147 26.6264 3.3418 28.3542 3.3418C30.0821 3.3418 31.7391 4.04147 32.9609 5.2869C34.1827 6.53234 34.8691 8.2215 34.8691 9.98281Z" fill="#2F5ED9"/>
<path d="M28.3541 15.2969C26.6902 15.2969 25.1044 15.5625 23.6712 16.2266C19.9121 17.9532 17.1851 21.5394 16.7087 25.9225C16.7087 27.3835 17.794 28.5789 19.2332 28.5789H37.4749C38.9146 28.5789 40 27.3835 40 25.9225C39.5231 21.5394 36.796 17.9532 33.0369 16.2266C31.6037 15.5625 30.0179 15.2969 28.3541 15.2969Z" fill="#2F5ED9"/>
</g>
<g opacity="0.3">
<path d="M18.1603 9.98281C18.1603 11.7441 17.4739 13.4333 16.2522 14.6787C15.0304 15.9241 13.3733 16.6238 11.6455 16.6238C9.91763 16.6238 8.26055 15.9241 7.03877 14.6787C5.817 13.4333 5.13062 11.7441 5.13062 9.98281C5.13062 8.2215 5.817 6.53234 7.03877 5.2869C8.26055 4.04147 9.91763 3.3418 11.6455 3.3418C13.3733 3.3418 15.0304 4.04147 16.2522 5.2869C17.4739 6.53234 18.1603 8.2215 18.1603 9.98281Z" fill="#2F5ED9"/>
<path d="M11.6453 15.2969C9.98142 15.2969 8.3957 15.5625 6.96243 16.2266C3.20336 17.9532 0.476366 21.5394 0 25.9225C0 27.3835 1.08525 28.5789 2.52451 28.5789H20.7661C22.2059 28.5789 23.2913 27.3835 23.2913 25.9225C22.8144 21.5394 20.0873 17.9532 16.3282 16.2266C14.8949 15.5625 13.3092 15.2969 11.6453 15.2969Z" fill="#2F5ED9"/>
</g>
<path d="M28.3541 8.42105C28.3541 10.6545 27.4739 12.7964 25.9071 14.3756C24.3404 15.9549 22.2154 16.8421 19.9997 16.8421C17.784 16.8421 15.659 15.9549 14.0922 14.3756C12.5255 12.7964 11.6453 10.6545 11.6453 8.42105C11.6453 6.18765 12.5255 4.04572 14.0922 2.46647C15.659 0.887215 17.784 0 19.9997 0C22.2154 0 24.3404 0.887215 25.9071 2.46647C27.4739 4.04572 28.3541 6.18765 28.3541 8.42105Z" fill="#2F5ED9"/>
<path d="M19.9997 15.1582C17.866 15.1582 15.832 15.6113 13.9949 16.4214C9.17336 18.5468 5.67704 23.1532 5.06616 28.6319C5.06616 30.4929 6.45784 32.0003 8.3035 32.0003H31.6959C33.5422 32.0003 34.934 30.4929 34.934 28.6319C34.3225 23.1532 30.8253 18.5468 26.0048 16.4214C24.1669 15.6113 22.1334 15.1582 19.9997 15.1582Z" fill="#2F5ED9"/>
</svg>
