<svg width="181" height="40" viewBox="0 0 181 40" fill="none" xmlns="http://www.w3.org/2000/svg">
<rect x="12.109" y="9.70691" width="19.5117" height="20.1981" fill="#22C55E"/>
<path d="M22.7487 16.4789C22.8109 16.1275 23.0013 15.8118 23.2829 15.5927C23.569 15.3703 23.9284 15.2637 24.2894 15.2943L24.5914 15.3199C25.7386 15.4171 26.6203 16.3767 26.6203 17.528V22.0279C26.6203 23.1969 25.6051 24.1069 24.443 23.9796C23.6055 23.8878 22.9199 23.2718 22.7392 22.4489L22.35 20.6758C22.2239 20.1015 22.2119 19.5081 22.3144 18.9291L22.7487 16.4789Z" fill="white"/>
<path fill-rule="evenodd" clip-rule="evenodd" d="M7.84392 0C3.51184 0 0 3.51184 0 7.84392V31.3757C0 35.7077 3.51184 39.2196 7.84392 39.2196H19.6098C30.44 39.2196 39.2196 30.44 39.2196 19.6098C39.2196 8.7796 30.44 0 19.6098 0H7.84392ZM24.4997 23.7558C27.6533 21.9351 27.6533 17.3832 24.4997 15.5625L23.5521 15.0154C23.5727 14.7226 23.5874 14.4129 23.5975 14.082C23.6005 13.9849 23.5486 13.8943 23.4633 13.8477L16.5508 10.0734C16.5439 10.0696 16.5368 10.0661 16.5295 10.063C15.4596 9.60061 14.6174 9.37847 13.904 9.59371C13.1768 9.81313 12.6677 10.4581 12.1834 11.4806C12.1665 11.5163 12.158 11.5553 12.1586 11.5948L12.2013 14.5722L12.1586 27.5153C12.1584 27.5573 12.1686 27.5988 12.1882 27.6361C12.7015 28.6135 13.2601 29.2036 13.9747 29.4958C14.6792 29.7839 15.4915 29.7633 16.4636 29.6245C16.9926 29.5489 17.6994 29.2495 18.4392 28.8666C19.1874 28.4794 19.9985 27.9911 20.7453 27.5139C21.4927 27.0362 22.1791 26.5676 22.6785 26.2185C22.9283 26.0439 23.1314 25.899 23.2723 25.7977C23.3427 25.7471 23.3976 25.7073 23.4349 25.6802L23.4776 25.6491L23.4921 25.6384L23.4923 25.6383C23.4924 25.6382 23.4924 25.6382 23.3396 25.4303L23.4924 25.6382C23.56 25.5885 23.5993 25.509 23.5976 25.4251C23.5895 25.0264 23.5764 24.6567 23.5518 24.3031L24.4997 23.7558Z" fill="#FFD700"/>
<path d="M23.4337 15.0016C28.0217 17.525 27.4482 22.4977 23.4337 24.2182" stroke="black"/>
<path d="M21.8363 19.696C22.9514 17.7831 23.3059 16.5528 23.3846 14.0362L16.249 10.2407C14.0405 9.31089 13.0972 9.50662 12.109 11.5392L12.1531 14.5356M21.8363 19.696C23.1481 22.0915 23.3404 23.3223 23.3846 25.4558C23.3846 25.4558 18.2393 29.1397 16.249 29.4165C14.2588 29.6933 13.1372 29.4604 12.109 27.5532L12.1531 14.5356M21.8363 19.696C18.5039 15.5875 16.3198 14.7561 12.1531 14.5356" stroke="black" stroke-linejoin="round"/>
<path d="M180.825 5.33475H167.527V11.7678H179.256V16.318H167.527V23.6925H180.825V28.2427H161.055V0.784546H180.825V5.33475Z" fill="white"/>
<path d="M139.64 0.784546V11.454L148.937 0.784546H156.743L145.132 14.1214L157.527 28.2427H149.721L139.64 16.7495V28.2427H133.168V0.784546H139.64Z" fill="white"/>
<path d="M115.188 16.7102V12.4738H128.446V14.5136C128.446 24.6731 124.484 29.0272 115.188 29.0272C105.342 29.0272 101.145 24.6731 101.145 14.5136C101.145 4.35408 105.342 0 115.188 0C122.876 0 126.759 2.82427 128.054 9.41422H121.935C121.15 6.23692 119.15 4.90324 115.188 4.90324C110.049 4.90324 107.931 7.72751 107.931 14.5136C107.931 21.2604 110.088 24.1239 115.188 24.1239C120.209 24.1239 122.327 21.9273 122.327 16.7102H115.188Z" fill="white"/>
<path d="M90.3005 0.784546H96.4197V28.2427H88.9668L78.5719 8.82586V28.2427H72.4135V0.784546H79.9056L90.3005 20.2014V0.784546Z" fill="white"/>
<path d="M62.1215 28.2427L60.474 22.5942H50.7068L48.9808 28.2427H42.5085L51.4913 0.784546H60.5132L68.8684 28.2427H62.1215ZM55.6885 6.11927L52.0012 18.3578H59.258L55.6885 6.11927Z" fill="white"/>
<path d="M178.996 34.9696C179.254 34.9696 179.482 35.022 179.679 35.1268C179.881 35.2276 180.038 35.3545 180.151 35.5077V35.024H180.846V38.4098C180.846 38.7162 180.781 38.9883 180.652 39.2261C180.523 39.4679 180.336 39.6574 180.09 39.7944C179.848 39.9314 179.558 40 179.22 40C178.768 40 178.393 39.8932 178.095 39.6795C177.797 39.4699 177.627 39.1837 177.587 38.821H178.27C178.323 38.9943 178.434 39.1334 178.603 39.2382C178.776 39.347 178.982 39.4014 179.22 39.4014C179.498 39.4014 179.721 39.3168 179.891 39.1475C180.064 38.9782 180.151 38.7323 180.151 38.4098V37.8536C180.034 38.0108 179.875 38.1438 179.673 38.2526C179.475 38.3574 179.25 38.4098 178.996 38.4098C178.706 38.4098 178.44 38.3373 178.198 38.1922C177.96 38.043 177.77 37.8375 177.629 37.5755C177.492 37.3095 177.424 37.0092 177.424 36.6746C177.424 36.3401 177.492 36.0438 177.629 35.7858C177.77 35.5279 177.96 35.3283 178.198 35.1873C178.44 35.0422 178.706 34.9696 178.996 34.9696ZM180.151 36.6867C180.151 36.4569 180.102 36.2574 180.006 36.0881C179.913 35.9188 179.79 35.7899 179.637 35.7012C179.484 35.6125 179.318 35.5682 179.141 35.5682C178.964 35.5682 178.798 35.6125 178.645 35.7012C178.492 35.7858 178.367 35.9128 178.27 36.0821C178.178 36.2473 178.131 36.4449 178.131 36.6746C178.131 36.9044 178.178 37.1059 178.27 37.2792C178.367 37.4525 178.492 37.5856 178.645 37.6783C178.802 37.7669 178.968 37.8113 179.141 37.8113C179.318 37.8113 179.484 37.7669 179.637 37.6783C179.79 37.5896 179.913 37.4606 180.006 37.2913C180.102 37.118 180.151 36.9165 180.151 36.6867Z" fill="#FFD700"/>
<path d="M175.408 34.9696C175.67 34.9696 175.904 35.024 176.109 35.1328C176.319 35.2417 176.482 35.4029 176.599 35.6165C176.716 35.8302 176.774 36.0881 176.774 36.3904V38.3554H176.091V36.4932C176.091 36.195 176.017 35.9672 175.867 35.81C175.718 35.6488 175.515 35.5682 175.257 35.5682C174.999 35.5682 174.793 35.6488 174.64 35.81C174.491 35.9672 174.416 36.195 174.416 36.4932V38.3554H173.727V35.024H174.416V35.4049C174.529 35.2679 174.672 35.1611 174.846 35.0845C175.023 35.0079 175.21 34.9696 175.408 34.9696Z" fill="#FFD700"/>
<path d="M169.4 36.6746C169.4 36.3401 169.468 36.0438 169.605 35.7858C169.746 35.5279 169.936 35.3283 170.174 35.1873C170.415 35.0422 170.681 34.9696 170.972 34.9696C171.234 34.9696 171.461 35.022 171.655 35.1268C171.852 35.2276 172.01 35.3545 172.126 35.5077V35.024H172.822V38.3554H172.126V37.8596C172.01 38.0168 171.85 38.1478 171.649 38.2526C171.447 38.3574 171.218 38.4098 170.96 38.4098C170.673 38.4098 170.411 38.3373 170.174 38.1922C169.936 38.043 169.746 37.8375 169.605 37.5755C169.468 37.3095 169.4 37.0092 169.4 36.6746ZM172.126 36.6867C172.126 36.4569 172.078 36.2574 171.981 36.0881C171.889 35.9188 171.766 35.7899 171.613 35.7012C171.459 35.6125 171.294 35.5682 171.117 35.5682C170.939 35.5682 170.774 35.6125 170.621 35.7012C170.468 35.7858 170.343 35.9128 170.246 36.0821C170.153 36.2473 170.107 36.4449 170.107 36.6746C170.107 36.9044 170.153 37.1059 170.246 37.2792C170.343 37.4525 170.468 37.5856 170.621 37.6783C170.778 37.7669 170.943 37.8113 171.117 37.8113C171.294 37.8113 171.459 37.7669 171.613 37.6783C171.766 37.5896 171.889 37.4606 171.981 37.2913C172.078 37.118 172.126 36.9165 172.126 36.6867Z" fill="#FFD700"/>
<path d="M167.6 36.6927L169.135 38.3554H168.204L166.971 36.9224V38.3554H166.281V33.8812H166.971V36.4811L168.18 35.0239H169.135L167.6 36.6927Z" fill="#FFD700"/>
<path d="M165.603 36.6081C165.603 36.7331 165.595 36.8459 165.579 36.9467H163.034C163.054 37.2127 163.152 37.4263 163.33 37.5876C163.507 37.7488 163.725 37.8294 163.983 37.8294C164.354 37.8294 164.616 37.6742 164.769 37.3639H165.512C165.412 37.6702 165.228 37.9221 164.962 38.1196C164.7 38.3131 164.374 38.4098 163.983 38.4098C163.664 38.4098 163.378 38.3393 163.124 38.1982C162.874 38.0531 162.677 37.8516 162.532 37.5936C162.391 37.3316 162.32 37.0293 162.32 36.6867C162.32 36.3441 162.389 36.0438 162.526 35.7858C162.667 35.5238 162.862 35.3223 163.112 35.1812C163.366 35.0401 163.656 34.9696 163.983 34.9696C164.297 34.9696 164.577 35.0381 164.823 35.1752C165.069 35.3122 165.261 35.5057 165.398 35.7556C165.535 36.0015 165.603 36.2856 165.603 36.6081ZM164.884 36.3904C164.88 36.1365 164.789 35.933 164.612 35.7798C164.434 35.6266 164.215 35.55 163.953 35.55C163.715 35.55 163.511 35.6266 163.342 35.7798C163.173 35.9289 163.072 36.1325 163.04 36.3904H164.884Z" fill="#FFD700"/>
<path d="M160.919 35.5077C161.02 35.3384 161.153 35.2074 161.318 35.1147C161.487 35.018 161.687 34.9696 161.917 34.9696V35.683H161.741C161.471 35.683 161.266 35.7516 161.125 35.8886C160.988 36.0257 160.919 36.2635 160.919 36.6021V38.3554H160.23V35.024H160.919V35.5077Z" fill="#FFD700"/>
<path d="M157.984 34.9696C158.246 34.9696 158.48 35.024 158.685 35.1328C158.895 35.2417 159.058 35.4029 159.175 35.6165C159.292 35.8302 159.35 36.0881 159.35 36.3904V38.3554H158.667V36.4932C158.667 36.195 158.593 35.9672 158.444 35.81C158.294 35.6488 158.091 35.5682 157.833 35.5682C157.575 35.5682 157.369 35.6488 157.216 35.81C157.067 35.9672 156.992 36.195 156.992 36.4932V38.3554H156.303V35.024H156.992V35.4049C157.105 35.2679 157.248 35.1611 157.422 35.0845C157.599 35.0079 157.787 34.9696 157.984 34.9696Z" fill="#FFD700"/>
<path d="M153.822 34.7096V35.943H155.273V36.5053H153.822V37.7931H155.454V38.3554H153.133V34.1473H155.454V34.7096H153.822Z" fill="#FFD700"/>
<path d="M150.657 38.3554H149.967L147.894 35.2175V38.3554H147.204V34.1473H147.894L149.967 37.2792V34.1473H150.657V38.3554Z" fill="#FFD700"/>
<path d="M144.94 38.3977C144.658 38.3977 144.404 38.3493 144.178 38.2526C143.952 38.1518 143.775 38.0107 143.646 37.8293C143.517 37.6479 143.453 37.4363 143.453 37.1945H144.19C144.206 37.3759 144.277 37.525 144.402 37.6419C144.531 37.7588 144.71 37.8172 144.94 37.8172C145.178 37.8172 145.363 37.7608 145.496 37.6479C145.629 37.5311 145.696 37.3819 145.696 37.2005C145.696 37.0595 145.653 36.9446 145.569 36.8559C145.488 36.7672 145.385 36.6987 145.26 36.6503C145.139 36.602 144.97 36.5496 144.753 36.4931C144.478 36.4206 144.255 36.348 144.081 36.2755C143.912 36.1989 143.767 36.082 143.646 35.9248C143.525 35.7676 143.465 35.558 143.465 35.296C143.465 35.0542 143.525 34.8425 143.646 34.6612C143.767 34.4798 143.936 34.3407 144.154 34.244C144.372 34.1472 144.624 34.0989 144.91 34.0989C145.317 34.0989 145.649 34.2017 145.907 34.4072C146.169 34.6088 146.314 34.8869 146.343 35.2416H145.581C145.569 35.0884 145.496 34.9574 145.363 34.8486C145.23 34.7398 145.055 34.6854 144.837 34.6854C144.64 34.6854 144.478 34.7357 144.354 34.8365C144.229 34.9373 144.166 35.0824 144.166 35.2718C144.166 35.4008 144.204 35.5076 144.281 35.5923C144.362 35.6729 144.462 35.7374 144.583 35.7857C144.704 35.8341 144.869 35.8865 145.079 35.9429C145.357 36.0195 145.583 36.0961 145.756 36.1727C145.934 36.2493 146.083 36.3682 146.204 36.5294C146.329 36.6866 146.391 36.8982 146.391 37.1643C146.391 37.3779 146.333 37.5794 146.216 37.7689C146.103 37.9583 145.936 38.1115 145.714 38.2284C145.496 38.3412 145.238 38.3977 144.94 38.3977Z" fill="#FFD700"/>
<path d="M141.873 37.4969H140.114L139.811 38.3554H139.092L140.597 34.1473H141.395L142.901 38.3554H142.175L141.873 37.4969ZM141.68 36.9346L140.996 34.9817L140.307 36.9346H141.68Z" fill="#FFD700"/>
<path d="M133.442 36.6746C133.442 36.3401 133.51 36.0438 133.647 35.7858C133.788 35.5279 133.978 35.3283 134.216 35.1873C134.457 35.0422 134.723 34.9696 135.014 34.9696C135.276 34.9696 135.503 35.022 135.697 35.1268C135.894 35.2276 136.052 35.3545 136.168 35.5077V35.024H136.864V38.3554H136.168V37.8596C136.052 38.0168 135.892 38.1478 135.691 38.2526C135.489 38.3574 135.26 38.4098 135.002 38.4098C134.715 38.4098 134.453 38.3373 134.216 38.1922C133.978 38.043 133.788 37.8375 133.647 37.5755C133.51 37.3095 133.442 37.0092 133.442 36.6746ZM136.168 36.6867C136.168 36.4569 136.12 36.2574 136.023 36.0881C135.931 35.9188 135.808 35.7899 135.655 35.7012C135.501 35.6125 135.336 35.5682 135.159 35.5682C134.981 35.5682 134.816 35.6125 134.663 35.7012C134.51 35.7858 134.385 35.9128 134.288 36.0821C134.195 36.2473 134.149 36.4449 134.149 36.6746C134.149 36.9044 134.195 37.1059 134.288 37.2792C134.385 37.4525 134.51 37.5856 134.663 37.6783C134.82 37.7669 134.985 37.8113 135.159 37.8113C135.336 37.8113 135.501 37.7669 135.655 37.6783C135.808 37.5896 135.931 37.4606 136.023 37.2913C136.12 37.118 136.168 36.9165 136.168 36.6867Z" fill="#FFD700"/>
<path d="M132.428 34.5826C132.303 34.5826 132.198 34.5402 132.114 34.4556C132.029 34.3709 131.987 34.2661 131.987 34.1412C131.987 34.0162 132.029 33.9114 132.114 33.8268C132.198 33.7422 132.303 33.6998 132.428 33.6998C132.549 33.6998 132.652 33.7422 132.736 33.8268C132.821 33.9114 132.863 34.0162 132.863 34.1412C132.863 34.2661 132.821 34.3709 132.736 34.4556C132.652 34.5402 132.549 34.5826 132.428 34.5826ZM132.767 39.0083C132.767 39.3348 132.684 39.5706 132.519 39.7157C132.358 39.8649 132.122 39.9394 131.811 39.9394H131.455V39.359H131.691C131.832 39.359 131.93 39.3308 131.987 39.2743C132.047 39.2219 132.077 39.1333 132.077 39.0083V35.0239H132.767V39.0083Z" fill="#FFD700"/>
<path d="M130.446 35.5077C130.547 35.3384 130.68 35.2074 130.845 35.1147C131.014 35.018 131.214 34.9696 131.444 34.9696V35.683H131.268C130.998 35.683 130.793 35.7516 130.652 35.8886C130.514 36.0257 130.446 36.2635 130.446 36.6021V38.3554H129.757V35.024H130.446V35.5077Z" fill="#FFD700"/>
<path d="M129.079 36.6081C129.079 36.7331 129.071 36.8459 129.054 36.9467H126.509C126.529 37.2127 126.628 37.4263 126.805 37.5876C126.983 37.7488 127.2 37.8294 127.458 37.8294C127.829 37.8294 128.091 37.6742 128.244 37.3639H128.988C128.887 37.6702 128.704 37.9221 128.438 38.1196C128.176 38.3131 127.849 38.4098 127.458 38.4098C127.14 38.4098 126.854 38.3393 126.6 38.1982C126.35 38.0531 126.152 37.8516 126.007 37.5936C125.866 37.3316 125.796 37.0293 125.796 36.6867C125.796 36.3441 125.864 36.0438 126.001 35.7858C126.142 35.5238 126.338 35.3223 126.588 35.1812C126.842 35.0401 127.132 34.9696 127.458 34.9696C127.773 34.9696 128.053 35.0381 128.299 35.1752C128.545 35.3122 128.736 35.5057 128.873 35.7556C129.01 36.0015 129.079 36.2856 129.079 36.6081ZM128.359 36.3904C128.355 36.1365 128.264 35.933 128.087 35.7798C127.91 35.6266 127.69 35.55 127.428 35.55C127.19 35.55 126.987 35.6266 126.817 35.7798C126.648 35.9289 126.547 36.1325 126.515 36.3904H128.359Z" fill="#FFD700"/>
<path d="M123.78 34.9696C124.042 34.9696 124.275 35.024 124.481 35.1328C124.691 35.2417 124.854 35.4029 124.971 35.6165C125.088 35.8302 125.146 36.0881 125.146 36.3904V38.3554H124.463V36.4932C124.463 36.195 124.388 35.9672 124.239 35.81C124.09 35.6488 123.886 35.5682 123.628 35.5682C123.37 35.5682 123.165 35.6488 123.012 35.81C122.863 35.9672 122.788 36.195 122.788 36.4932V38.3554H122.099V35.024H122.788V35.4049C122.901 35.2679 123.044 35.1611 123.217 35.0845C123.395 35.0079 123.582 34.9696 123.78 34.9696Z" fill="#FFD700"/>
<path d="M120.855 34.5826C120.73 34.5826 120.625 34.5402 120.541 34.4556C120.456 34.3709 120.414 34.2661 120.414 34.1412C120.414 34.0162 120.456 33.9114 120.541 33.8268C120.625 33.7422 120.73 33.6998 120.855 33.6998C120.976 33.6998 121.079 33.7422 121.164 33.8268C121.248 33.9114 121.291 34.0162 121.291 34.1412C121.291 34.2661 121.248 34.3709 121.164 34.4556C121.079 34.5402 120.976 34.5826 120.855 34.5826ZM121.194 35.0239V38.3553H120.505V35.0239H121.194Z" fill="#FFD700"/>
<path d="M118.994 38.3552L117.368 36.4749V38.3552H116.679V34.1532H117.368V36.0698L119 34.1532H119.865L118.039 36.2572L119.895 38.3552H118.994Z" fill="#FFD700"/>
<path d="M112.862 34.9696C113.124 34.9696 113.358 35.024 113.564 35.1328C113.773 35.2417 113.937 35.4029 114.053 35.6165C114.17 35.8302 114.229 36.0881 114.229 36.3904V38.3554H113.546V36.4932C113.546 36.195 113.471 35.9672 113.322 35.81C113.173 35.6488 112.969 35.5682 112.711 35.5682C112.453 35.5682 112.248 35.6488 112.094 35.81C111.945 35.9672 111.871 36.195 111.871 36.4932V38.3554H111.182V35.024H111.871V35.4049C111.984 35.2679 112.127 35.1611 112.3 35.0845C112.477 35.0079 112.665 34.9696 112.862 34.9696Z" fill="#FFD700"/>
<path d="M106.854 36.6746C106.854 36.3401 106.923 36.0438 107.06 35.7858C107.201 35.5279 107.39 35.3283 107.628 35.1873C107.87 35.0422 108.136 34.9696 108.426 34.9696C108.688 34.9696 108.916 35.022 109.11 35.1268C109.307 35.2276 109.464 35.3545 109.581 35.5077V35.024H110.276V38.3554H109.581V37.8596C109.464 38.0168 109.305 38.1478 109.104 38.2526C108.902 38.3574 108.672 38.4098 108.414 38.4098C108.128 38.4098 107.866 38.3373 107.628 38.1922C107.39 38.043 107.201 37.8375 107.06 37.5755C106.923 37.3095 106.854 37.0092 106.854 36.6746ZM109.581 36.6867C109.581 36.4569 109.533 36.2574 109.436 36.0881C109.343 35.9188 109.22 35.7899 109.067 35.7012C108.914 35.6125 108.749 35.5682 108.571 35.5682C108.394 35.5682 108.229 35.6125 108.076 35.7012C107.923 35.7858 107.798 35.9128 107.701 36.0821C107.608 36.2473 107.562 36.4449 107.562 36.6746C107.562 36.9044 107.608 37.1059 107.701 37.2792C107.798 37.4525 107.923 37.5856 108.076 37.6783C108.233 37.7669 108.398 37.8113 108.571 37.8113C108.749 37.8113 108.914 37.7669 109.067 37.6783C109.22 37.5896 109.343 37.4606 109.436 37.2913C109.533 37.118 109.581 36.9165 109.581 36.6867Z" fill="#FFD700"/>
<path d="M102.756 36.6745C102.756 36.34 102.825 36.0437 102.962 35.7858C103.103 35.5278 103.293 35.3283 103.53 35.1872C103.772 35.0421 104.04 34.9695 104.335 34.9695C104.552 34.9695 104.766 35.0179 104.975 35.1146C105.189 35.2073 105.358 35.3323 105.483 35.4895V33.8812H106.179V38.3554H105.483V37.8535C105.37 38.0148 105.213 38.1478 105.012 38.2526C104.814 38.3574 104.586 38.4098 104.328 38.4098C104.038 38.4098 103.772 38.3372 103.53 38.1921C103.293 38.043 103.103 37.8374 102.962 37.5754C102.825 37.3094 102.756 37.0091 102.756 36.6745ZM105.483 36.6866C105.483 36.4569 105.435 36.2573 105.338 36.0881C105.245 35.9188 105.123 35.7898 104.969 35.7011C104.816 35.6124 104.651 35.5681 104.474 35.5681C104.296 35.5681 104.131 35.6124 103.978 35.7011C103.825 35.7858 103.7 35.9127 103.603 36.082C103.51 36.2473 103.464 36.4448 103.464 36.6745C103.464 36.9043 103.51 37.1058 103.603 37.2791C103.7 37.4525 103.825 37.5855 103.978 37.6782C104.135 37.7669 104.3 37.8112 104.474 37.8112C104.651 37.8112 104.816 37.7669 104.969 37.6782C105.123 37.5895 105.245 37.4605 105.338 37.2912C105.435 37.1179 105.483 36.9164 105.483 36.6866Z" fill="#FFD700"/>
<path d="M100.172 34.5826C100.047 34.5826 99.9423 34.5402 99.8577 34.4556C99.773 34.3709 99.7307 34.2661 99.7307 34.1412C99.7307 34.0162 99.773 33.9114 99.8577 33.8268C99.9423 33.7422 100.047 33.6998 100.172 33.6998C100.293 33.6998 100.396 33.7422 100.48 33.8268C100.565 33.9114 100.607 34.0162 100.607 34.1412C100.607 34.2661 100.565 34.3709 100.48 34.4556C100.396 34.5402 100.293 34.5826 100.172 34.5826ZM100.511 35.0239V38.3553H99.8214V35.0239H100.511Z" fill="#FFD700"/>
<path d="M97.8009 38.4098C97.5389 38.4098 97.3031 38.3635 97.0935 38.2708C96.8879 38.174 96.7247 38.0451 96.6038 37.8838C96.4828 37.7186 96.4183 37.5352 96.4103 37.3336H97.1237C97.1358 37.4747 97.2023 37.5936 97.3232 37.6904C97.4482 37.7831 97.6034 37.8294 97.7888 37.8294C97.9823 37.8294 98.1314 37.7931 98.2362 37.7206C98.345 37.644 98.3994 37.5473 98.3994 37.4304C98.3994 37.3054 98.339 37.2127 98.2181 37.1523C98.1012 37.0918 97.9137 37.0253 97.6558 36.9527C97.4059 36.8842 97.2023 36.8177 97.0451 36.7532C96.8879 36.6887 96.7509 36.59 96.634 36.4569C96.5211 36.3239 96.4647 36.1486 96.4647 35.9309C96.4647 35.7536 96.5171 35.5924 96.6219 35.4472C96.7267 35.2981 96.8758 35.1812 97.0693 35.0966C97.2668 35.0119 97.4925 34.9696 97.7465 34.9696C98.1254 34.9696 98.4297 35.0663 98.6594 35.2598C98.8932 35.4493 99.0182 35.7092 99.0343 36.0398H98.345C98.3329 35.8906 98.2725 35.7717 98.1637 35.683C98.0548 35.5944 97.9077 35.55 97.7223 35.55C97.5409 35.55 97.4018 35.5843 97.3051 35.6528C97.2084 35.7213 97.16 35.812 97.16 35.9249C97.16 36.0136 97.1922 36.0881 97.2567 36.1486C97.3212 36.2091 97.3998 36.2574 97.4925 36.2937C97.5852 36.3259 97.7223 36.3683 97.9037 36.4207C98.1455 36.4852 98.343 36.5517 98.4962 36.6202C98.6534 36.6847 98.7884 36.7814 98.9013 36.9104C99.0141 37.0394 99.0726 37.2107 99.0766 37.4243C99.0766 37.6138 99.0242 37.7831 98.9194 37.9322C98.8146 38.0813 98.6655 38.1982 98.472 38.2829C98.2826 38.3675 98.0589 38.4098 97.8009 38.4098Z" fill="#FFD700"/>
<path d="M94.3462 34.9696C94.6082 34.9696 94.842 35.024 95.0476 35.1328C95.2572 35.2417 95.4204 35.4029 95.5373 35.6165C95.6542 35.8302 95.7126 36.0881 95.7126 36.3904V38.3554H95.0294V36.4932C95.0294 36.195 94.9549 35.9672 94.8057 35.81C94.6566 35.6488 94.453 35.5682 94.1951 35.5682C93.9371 35.5682 93.7315 35.6488 93.5784 35.81C93.4292 35.9672 93.3547 36.195 93.3547 36.4932V38.3554H92.6654V35.024H93.3547V35.4049C93.4675 35.2679 93.6106 35.1611 93.7839 35.0845C93.9613 35.0079 94.1487 34.9696 94.3462 34.9696Z" fill="#FFD700"/>
<path d="M91.987 36.6081C91.987 36.7331 91.979 36.8459 91.9628 36.9467H89.4174C89.4376 37.2127 89.5363 37.4263 89.7137 37.5876C89.891 37.7488 90.1087 37.8294 90.3667 37.8294C90.7375 37.8294 90.9995 37.6742 91.1527 37.3639H91.8963C91.7956 37.6702 91.6122 37.9221 91.3461 38.1196C91.0841 38.3131 90.7576 38.4098 90.3667 38.4098C90.0482 38.4098 89.762 38.3393 89.5081 38.1982C89.2582 38.0531 89.0607 37.8516 88.9156 37.5936C88.7745 37.3316 88.704 37.0293 88.704 36.6867C88.704 36.3441 88.7725 36.0438 88.9095 35.7858C89.0506 35.5238 89.2461 35.3223 89.496 35.1812C89.75 35.0401 90.0402 34.9696 90.3667 34.9696C90.6811 34.9696 90.9612 35.0381 91.2071 35.1752C91.4529 35.3122 91.6444 35.5057 91.7815 35.7556C91.9185 36.0015 91.987 36.2856 91.987 36.6081ZM91.2675 36.3904C91.2635 36.1365 91.1728 35.933 90.9955 35.7798C90.8181 35.6266 90.5984 35.55 90.3364 35.55C90.0986 35.55 89.8951 35.6266 89.7258 35.7798C89.5565 35.9289 89.4557 36.1325 89.4235 36.3904H91.2675Z" fill="#FFD700"/>
<path d="M86.9133 38.4098C86.6513 38.4098 86.4155 38.3635 86.2059 38.2708C86.0003 38.174 85.8371 38.0451 85.7162 37.8838C85.5953 37.7186 85.5308 37.5352 85.5227 37.3336H86.2361C86.2482 37.4747 86.3147 37.5936 86.4357 37.6904C86.5606 37.7831 86.7158 37.8294 86.9012 37.8294C87.0947 37.8294 87.2438 37.7931 87.3486 37.7206C87.4575 37.644 87.5119 37.5473 87.5119 37.4304C87.5119 37.3054 87.4514 37.2127 87.3305 37.1523C87.2136 37.0918 87.0262 37.0253 86.7682 36.9527C86.5183 36.8842 86.3147 36.8177 86.1575 36.7532C86.0003 36.6887 85.8633 36.59 85.7464 36.4569C85.6336 36.3239 85.5771 36.1486 85.5771 35.9309C85.5771 35.7536 85.6295 35.5924 85.7343 35.4472C85.8391 35.2981 85.9883 35.1812 86.1817 35.0966C86.3792 35.0119 86.605 34.9696 86.8589 34.9696C87.2378 34.9696 87.5421 35.0663 87.7719 35.2598C88.0056 35.4493 88.1306 35.7092 88.1467 36.0398H87.4575C87.4454 35.8906 87.3849 35.7717 87.2761 35.683C87.1672 35.5944 87.0201 35.55 86.8347 35.55C86.6533 35.55 86.5143 35.5843 86.4175 35.6528C86.3208 35.7213 86.2724 35.812 86.2724 35.9249C86.2724 36.0136 86.3047 36.0881 86.3692 36.1486C86.4337 36.2091 86.5123 36.2574 86.605 36.2937C86.6977 36.3259 86.8347 36.3683 87.0161 36.4207C87.2579 36.4852 87.4554 36.5517 87.6086 36.6202C87.7658 36.6847 87.9008 36.7814 88.0137 36.9104C88.1266 37.0394 88.185 37.2107 88.189 37.4243C88.189 37.6138 88.1366 37.7831 88.0318 37.9322C87.927 38.0813 87.7779 38.1982 87.5844 38.2829C87.395 38.3675 87.1713 38.4098 86.9133 38.4098Z" fill="#FFD700"/>
<path d="M82.2957 35.5197C82.4126 35.3585 82.5718 35.2275 82.7733 35.1267C82.9789 35.0219 83.2067 34.9695 83.4566 34.9695C83.7508 34.9695 84.0168 35.0401 84.2546 35.1811C84.4925 35.3222 84.6799 35.5238 84.8169 35.7858C84.954 36.0437 85.0225 36.34 85.0225 36.6745C85.0225 37.0091 84.954 37.3094 84.8169 37.5754C84.6799 37.8374 84.4904 38.043 84.2486 38.1921C84.0108 38.3372 83.7468 38.4098 83.4566 38.4098C83.1986 38.4098 82.9688 38.3594 82.7673 38.2586C82.5698 38.1578 82.4126 38.0289 82.2957 37.8717V38.3554H81.6064V33.8812H82.2957V35.5197ZM84.3212 36.6745C84.3212 36.4448 84.2728 36.2473 84.176 36.082C84.0833 35.9127 83.9584 35.7858 83.8012 35.7011C83.648 35.6124 83.4828 35.5681 83.3054 35.5681C83.1321 35.5681 82.9668 35.6124 82.8096 35.7011C82.6565 35.7898 82.5315 35.9188 82.4348 36.0881C82.3421 36.2573 82.2957 36.4569 82.2957 36.6866C82.2957 36.9164 82.3421 37.1179 82.4348 37.2912C82.5315 37.4605 82.6565 37.5895 82.8096 37.6782C82.9668 37.7669 83.1321 37.8112 83.3054 37.8112C83.4828 37.8112 83.648 37.7669 83.8012 37.6782C83.9584 37.5855 84.0833 37.4525 84.176 37.2791C84.2728 37.1058 84.3212 36.9043 84.3212 36.6745Z" fill="#FFD700"/>
<path d="M79.924 37.4969H78.1646L77.8623 38.3554H77.1428L78.6483 34.1473H79.4464L80.9519 38.3554H80.2263L79.924 37.4969ZM79.7306 36.9346L79.0473 34.9817L78.3581 36.9346H79.7306Z" fill="#FFD700"/>
<path d="M74.5765 34.5826C74.4515 34.5826 74.3467 34.5402 74.2621 34.4556C74.1775 34.3709 74.1351 34.2661 74.1351 34.1412C74.1351 34.0162 74.1775 33.9114 74.2621 33.8268C74.3467 33.7422 74.4515 33.6998 74.5765 33.6998C74.6974 33.6998 74.8002 33.7422 74.8848 33.8268C74.9695 33.9114 75.0118 34.0162 75.0118 34.1412C75.0118 34.2661 74.9695 34.3709 74.8848 34.4556C74.8002 34.5402 74.6974 34.5826 74.5765 34.5826ZM74.9151 35.0239V38.3553H74.2258V35.0239H74.9151Z" fill="#FFD700"/>
<path d="M72.2053 38.4098C71.9433 38.4098 71.7075 38.3635 71.4979 38.2708C71.2923 38.174 71.1291 38.0451 71.0082 37.8838C70.8873 37.7186 70.8228 37.5352 70.8147 37.3336H71.5281C71.5402 37.4747 71.6067 37.5936 71.7277 37.6904C71.8526 37.7831 72.0078 37.8294 72.1932 37.8294C72.3867 37.8294 72.5358 37.7931 72.6406 37.7206C72.7495 37.644 72.8039 37.5473 72.8039 37.4304C72.8039 37.3054 72.7434 37.2127 72.6225 37.1523C72.5056 37.0918 72.3182 37.0253 72.0602 36.9527C71.8103 36.8842 71.6067 36.8177 71.4495 36.7532C71.2923 36.6887 71.1553 36.59 71.0384 36.4569C70.9255 36.3239 70.8691 36.1486 70.8691 35.9309C70.8691 35.7536 70.9215 35.5924 71.0263 35.4472C71.1311 35.2981 71.2802 35.1812 71.4737 35.0966C71.6712 35.0119 71.897 34.9696 72.1509 34.9696C72.5298 34.9696 72.8341 35.0663 73.0639 35.2598C73.2976 35.4493 73.4226 35.7092 73.4387 36.0398H72.7495C72.7374 35.8906 72.6769 35.7717 72.5681 35.683C72.4592 35.5944 72.3121 35.55 72.1267 35.55C71.9453 35.55 71.8063 35.5843 71.7095 35.6528C71.6128 35.7213 71.5644 35.812 71.5644 35.9249C71.5644 36.0136 71.5967 36.0881 71.6612 36.1486C71.7256 36.2091 71.8042 36.2574 71.897 36.2937C71.9897 36.3259 72.1267 36.3683 72.3081 36.4207C72.5499 36.4852 72.7474 36.5517 72.9006 36.6202C73.0578 36.6847 73.1928 36.7814 73.3057 36.9104C73.4186 37.0394 73.477 37.2107 73.481 37.4243C73.481 37.6138 73.4286 37.7831 73.3238 37.9322C73.219 38.0813 73.0699 38.1982 72.8764 38.2829C72.687 38.3675 72.4633 38.4098 72.2053 38.4098Z" fill="#FFD700"/>
<path d="M66.6688 36.6746C66.6688 36.3401 66.7373 36.0438 66.8744 35.7858C67.0155 35.5279 67.2049 35.3283 67.4427 35.1873C67.6846 35.0422 67.9506 34.9696 68.2408 34.9696C68.5028 34.9696 68.7305 35.022 68.924 35.1268C69.1215 35.2276 69.2787 35.3545 69.3956 35.5077V35.024H70.0909V38.3554H69.3956V37.8596C69.2787 38.0168 69.1195 38.1478 68.918 38.2526C68.7164 38.3574 68.4867 38.4098 68.2287 38.4098C67.9425 38.4098 67.6805 38.3373 67.4427 38.1922C67.2049 38.043 67.0155 37.8375 66.8744 37.5755C66.7373 37.3095 66.6688 37.0092 66.6688 36.6746ZM69.3956 36.6867C69.3956 36.4569 69.3473 36.2574 69.2505 36.0881C69.1578 35.9188 69.0349 35.7899 68.8817 35.7012C68.7285 35.6125 68.5633 35.5682 68.3859 35.5682C68.2086 35.5682 68.0433 35.6125 67.8901 35.7012C67.737 35.7858 67.612 35.9128 67.5153 36.0821C67.4226 36.2473 67.3762 36.4449 67.3762 36.6746C67.3762 36.9044 67.4226 37.1059 67.5153 37.2792C67.612 37.4525 67.737 37.5856 67.8901 37.6783C68.0473 37.7669 68.2126 37.8113 68.3859 37.8113C68.5633 37.8113 68.7285 37.7669 68.8817 37.6783C69.0349 37.5896 69.1578 37.4606 69.2505 37.2913C69.3473 37.118 69.3956 36.9165 69.3956 36.6867Z" fill="#FFD700"/>
<path d="M64.8782 38.4098C64.6162 38.4098 64.3804 38.3635 64.1708 38.2708C63.9652 38.174 63.8019 38.0451 63.681 37.8838C63.5601 37.7186 63.4956 37.5352 63.4875 37.3336H64.201C64.2131 37.4747 64.2796 37.5936 64.4005 37.6904C64.5255 37.7831 64.6806 37.8294 64.8661 37.8294C65.0595 37.8294 65.2087 37.7931 65.3135 37.7206C65.4223 37.644 65.4767 37.5473 65.4767 37.4304C65.4767 37.3054 65.4163 37.2127 65.2953 37.1523C65.1784 37.0918 64.991 37.0253 64.733 36.9527C64.4831 36.8842 64.2796 36.8177 64.1224 36.7532C63.9652 36.6887 63.8281 36.59 63.7113 36.4569C63.5984 36.3239 63.542 36.1486 63.542 35.9309C63.542 35.7536 63.5944 35.5924 63.6992 35.4472C63.804 35.2981 63.9531 35.1812 64.1466 35.0966C64.3441 35.0119 64.5698 34.9696 64.8237 34.9696C65.2026 34.9696 65.5069 35.0663 65.7367 35.2598C65.9705 35.4493 66.0954 35.7092 66.1116 36.0398H65.4223C65.4102 35.8906 65.3498 35.7717 65.2409 35.683C65.1321 35.5944 64.985 35.55 64.7996 35.55C64.6182 35.55 64.4791 35.5843 64.3824 35.6528C64.2856 35.7213 64.2373 35.812 64.2373 35.9249C64.2373 36.0136 64.2695 36.0881 64.334 36.1486C64.3985 36.2091 64.4771 36.2574 64.5698 36.2937C64.6625 36.3259 64.7996 36.3683 64.9809 36.4207C65.2228 36.4852 65.4203 36.5517 65.5735 36.6202C65.7307 36.6847 65.8657 36.7814 65.9785 36.9104C66.0914 37.0394 66.1499 37.2107 66.1539 37.4243C66.1539 37.6138 66.1015 37.7831 65.9967 37.9322C65.8919 38.0813 65.7427 38.1982 65.5493 38.2829C65.3598 38.3675 65.1361 38.4098 64.8782 38.4098Z" fill="#FFD700"/>
<path d="M62.4254 34.5826C62.3004 34.5826 62.1956 34.5402 62.111 34.4556C62.0263 34.3709 61.984 34.2661 61.984 34.1412C61.984 34.0162 62.0263 33.9114 62.111 33.8268C62.1956 33.7422 62.3004 33.6998 62.4254 33.6998C62.5463 33.6998 62.6491 33.7422 62.7337 33.8268C62.8184 33.9114 62.8607 34.0162 62.8607 34.1412C62.8607 34.2661 62.8184 34.3709 62.7337 34.4556C62.6491 34.5402 62.5463 34.5826 62.4254 34.5826ZM62.764 35.0239V38.3553H62.0747V35.0239H62.764Z" fill="#FFD700"/>
<path d="M61.1697 33.8812V38.3554H60.4805V33.8812H61.1697Z" fill="#FFD700"/>
<path d="M56.1531 36.6746C56.1531 36.3401 56.2216 36.0438 56.3586 35.7858C56.4997 35.5279 56.6892 35.3283 56.927 35.1873C57.1688 35.0422 57.4349 34.9696 57.7251 34.9696C57.9871 34.9696 58.2148 35.022 58.4083 35.1268C58.6058 35.2276 58.763 35.3545 58.8799 35.5077V35.024H59.5752V38.3554H58.8799V37.8596C58.763 38.0168 58.6038 38.1478 58.4022 38.2526C58.2007 38.3574 57.9709 38.4098 57.713 38.4098C57.4268 38.4098 57.1648 38.3373 56.927 38.1922C56.6892 38.043 56.4997 37.8375 56.3586 37.5755C56.2216 37.3095 56.1531 37.0092 56.1531 36.6746ZM58.8799 36.6867C58.8799 36.4569 58.8315 36.2574 58.7348 36.0881C58.6421 35.9188 58.5191 35.7899 58.366 35.7012C58.2128 35.6125 58.0475 35.5682 57.8702 35.5682C57.6928 35.5682 57.5276 35.6125 57.3744 35.7012C57.2212 35.7858 57.0963 35.9128 56.9995 36.0821C56.9068 36.2473 56.8605 36.4449 56.8605 36.6746C56.8605 36.9044 56.9068 37.1059 56.9995 37.2792C57.0963 37.4525 57.2212 37.5856 57.3744 37.6783C57.5316 37.7669 57.6969 37.8113 57.8702 37.8113C58.0475 37.8113 58.2128 37.7669 58.366 37.6783C58.5191 37.5896 58.6421 37.4606 58.7348 37.2913C58.8315 37.118 58.8799 36.9165 58.8799 36.6867Z" fill="#FFD700"/>
<path d="M54.9372 35.5862V37.4302C54.9372 37.5552 54.9654 37.6459 55.0218 37.7023C55.0823 37.7547 55.1831 37.7809 55.3241 37.7809H55.7474V38.3553H55.2032C54.8928 38.3553 54.655 38.2827 54.4898 38.1376C54.3245 37.9925 54.2419 37.7567 54.2419 37.4302V35.5862H53.8489V35.0239H54.2419V34.1956H54.9372V35.0239H55.7474V35.5862H54.9372Z" fill="#FFD700"/>
<path d="M52.8897 34.5826C52.7648 34.5826 52.66 34.5402 52.5753 34.4556C52.4907 34.3709 52.4484 34.2661 52.4484 34.1412C52.4484 34.0162 52.4907 33.9114 52.5753 33.8268C52.66 33.7422 52.7648 33.6998 52.8897 33.6998C53.0107 33.6998 53.1134 33.7422 53.1981 33.8268C53.2827 33.9114 53.3251 34.0162 53.3251 34.1412C53.3251 34.2661 53.2827 34.3709 53.1981 34.4556C53.1134 34.5402 53.0107 34.5826 52.8897 34.5826ZM53.2283 35.0239V38.3553H52.5391V35.0239H53.2283Z" fill="#FFD700"/>
<path d="M49.7835 34.9696C50.0415 34.9696 50.2692 35.022 50.4667 35.1268C50.6683 35.2276 50.8255 35.3545 50.9383 35.5077V35.024H51.6336V38.4098C51.6336 38.7162 51.5692 38.9883 51.4402 39.2261C51.3112 39.4679 51.1238 39.6574 50.8779 39.7944C50.636 39.9314 50.3458 40 50.0072 40C49.5558 40 49.1809 39.8932 48.8827 39.6795C48.5844 39.4699 48.4151 39.1837 48.3748 38.821H49.058C49.1104 38.9943 49.2212 39.1334 49.3905 39.2382C49.5639 39.347 49.7694 39.4014 50.0072 39.4014C50.2854 39.4014 50.5091 39.3168 50.6784 39.1475C50.8517 38.9782 50.9383 38.7323 50.9383 38.4098V37.8536C50.8215 38.0108 50.6622 38.1438 50.4607 38.2526C50.2632 38.3574 50.0375 38.4098 49.7835 38.4098C49.4933 38.4098 49.2273 38.3373 48.9855 38.1922C48.7476 38.043 48.5582 37.8375 48.4171 37.5755C48.2801 37.3095 48.2115 37.0092 48.2115 36.6746C48.2115 36.3401 48.2801 36.0438 48.4171 35.7858C48.5582 35.5279 48.7476 35.3283 48.9855 35.1873C49.2273 35.0422 49.4933 34.9696 49.7835 34.9696ZM50.9383 36.6867C50.9383 36.4569 50.89 36.2574 50.7932 36.0881C50.7005 35.9188 50.5776 35.7899 50.4244 35.7012C50.2713 35.6125 50.106 35.5682 49.9286 35.5682C49.7513 35.5682 49.586 35.6125 49.4329 35.7012C49.2797 35.7858 49.1547 35.9128 49.058 36.0821C48.9653 36.2473 48.9189 36.4449 48.9189 36.6746C48.9189 36.9044 48.9653 37.1059 49.058 37.2792C49.1547 37.4525 49.2797 37.5856 49.4329 37.6783C49.5901 37.7669 49.7553 37.8113 49.9286 37.8113C50.106 37.8113 50.2713 37.7669 50.4244 37.6783C50.5776 37.5896 50.7005 37.4606 50.7932 37.2913C50.89 37.118 50.9383 36.9165 50.9383 36.6867Z" fill="#FFD700"/>
<path d="M47.198 34.5826C47.073 34.5826 46.9682 34.5402 46.8836 34.4556C46.7989 34.3709 46.7566 34.2661 46.7566 34.1412C46.7566 34.0162 46.7989 33.9114 46.8836 33.8268C46.9682 33.7422 47.073 33.6998 47.198 33.6998C47.3189 33.6998 47.4217 33.7422 47.5063 33.8268C47.591 33.9114 47.6333 34.0162 47.6333 34.1412C47.6333 34.2661 47.591 34.3709 47.5063 34.4556C47.4217 34.5402 47.3189 34.5826 47.198 34.5826ZM47.5365 35.0239V38.3553H46.8473V35.0239H47.5365Z" fill="#FFD700"/>
<path d="M43.933 34.1532C44.3804 34.1532 44.7714 34.2399 45.106 34.4132C45.4445 34.5825 45.7045 34.8283 45.8859 35.1508C46.0713 35.4692 46.164 35.8421 46.164 36.2693C46.164 36.6966 46.0713 37.0674 45.8859 37.3818C45.7045 37.6962 45.4445 37.9381 45.106 38.1074C44.7714 38.2726 44.3804 38.3552 43.933 38.3552H42.5605V34.1532H43.933ZM43.933 37.793C44.4248 37.793 44.8016 37.6599 45.0636 37.3939C45.3256 37.1279 45.4566 36.753 45.4566 36.2693C45.4566 35.7816 45.3256 35.4007 45.0636 35.1266C44.8016 34.8525 44.4248 34.7155 43.933 34.7155H43.2498V37.793H43.933Z" fill="#FFD700"/>
</svg>
