<svg width="324" height="70" viewBox="0 0 324 70" fill="none" xmlns="http://www.w3.org/2000/svg">
<rect x="22.5766" y="17.3251" width="34.825" height="36.05" fill="#22C55E"/>
<path d="M41.5665 29.4117C41.6776 28.7846 42.0174 28.2211 42.52 27.8301C43.0306 27.433 43.672 27.2429 44.3165 27.2975L44.8554 27.3431C46.903 27.5167 48.4766 29.2293 48.4766 31.2842V39.3157C48.4766 41.4022 46.6646 43.0265 44.5906 42.7992C43.0957 42.6353 41.872 41.536 41.5496 40.0671L40.8549 36.9025C40.6299 35.8775 40.6083 34.8183 40.7914 33.785L41.5665 29.4117Z" fill="white"/>
<path fill-rule="evenodd" clip-rule="evenodd" d="M14.9642 0C7.23225 0 0.964233 6.26801 0.964233 14V56C0.964233 63.732 7.23224 70 14.9642 70H35.9642C55.2942 70 70.9642 54.33 70.9642 35C70.9642 15.67 55.2942 0 35.9642 0H14.9642ZM44.692 42.4C50.3206 39.1503 50.3206 31.026 44.692 27.7763L43.0006 26.7998C43.0373 26.2771 43.0636 25.7244 43.0816 25.1339C43.0869 24.9604 42.9943 24.7988 42.842 24.7156L30.5045 17.9791C30.4921 17.9724 30.4794 17.9662 30.4665 17.9606C28.557 17.1353 27.0537 16.7388 25.7805 17.123C24.4826 17.5146 23.5738 18.6658 22.7095 20.4908C22.6794 20.5544 22.6642 20.6241 22.6652 20.6945L22.7414 26.0088L22.6652 49.1098C22.6649 49.1849 22.6831 49.2589 22.718 49.3254C23.6342 51.0699 24.6312 52.1231 25.9067 52.6447C27.164 53.1589 28.6139 53.122 30.3489 52.8743C31.293 52.7395 32.5546 52.205 33.8749 51.5217C35.2103 50.8306 36.6581 49.959 37.991 49.1073C39.325 48.2548 40.5501 47.4183 41.4414 46.7952C41.8871 46.4836 42.2498 46.2251 42.5012 46.0443C42.6269 45.9539 42.7248 45.8829 42.7915 45.8344L42.8675 45.779L42.8935 45.7599L42.8939 45.7597C42.894 45.7596 42.8941 45.7595 42.6213 45.3885L42.8941 45.7595C43.0148 45.6708 43.0848 45.5289 43.0817 45.3792C43.0674 44.6676 43.044 44.0077 43 43.3768L44.692 42.4Z" fill="#0D47A1"/>
<path d="M42.7893 26.775C50.9781 31.2789 49.9545 40.1542 42.7893 43.225" stroke="black" stroke-width="1.5"/>
<path d="M39.9382 35.1539C41.9283 31.7397 42.5611 29.5437 42.7016 25.052L29.9658 18.2779C26.024 16.6183 24.3403 16.9676 22.5766 20.5953L22.6553 25.9434M39.9382 35.1539C42.2794 39.4294 42.6226 41.6261 42.7016 45.434C42.7016 45.434 33.518 52.0092 29.9658 52.5032C26.4136 52.9972 24.4117 52.5815 22.5766 49.1776L22.6553 25.9434M39.9382 35.1539C33.9904 27.821 30.092 26.337 22.6553 25.9434" stroke="black" stroke-width="1.5" stroke-linejoin="round"/>
<path d="M322.906 9.52158H299.172V21.0034H320.105V29.1247H299.172V42.2869H322.906V50.4082H287.62V1.40027H322.906V9.52158Z" fill="#0D47A1"/>
<path d="M249.399 1.40027V20.4433L265.991 1.40027H279.924L259.2 25.2041L281.324 50.4082H267.392L249.399 29.8949V50.4082H237.847V1.40027H249.399Z" fill="#0D47A1"/>
<path d="M205.756 29.8248V22.2636H229.419V25.9042C229.419 44.0371 222.348 51.8084 205.756 51.8084C188.183 51.8084 180.692 44.0371 180.692 25.9042C180.692 7.77125 188.183 0 205.756 0C219.478 0 226.409 5.04082 228.719 16.8027H217.798C216.397 11.1318 212.827 8.75141 205.756 8.75141C196.584 8.75141 192.803 13.7922 192.803 25.9042C192.803 37.9461 196.654 43.0569 205.756 43.0569C214.717 43.0569 218.498 39.1363 218.498 29.8248H205.756Z" fill="#0D47A1"/>
<path d="M161.336 1.40027H172.258V50.4082H158.956L140.403 15.7526V50.4082H129.411V1.40027H142.783L161.336 36.0559V1.40027Z" fill="#0D47A1"/>
<path d="M111.041 50.4082L108.101 40.3266H90.6682L87.5877 50.4082H76.0358L92.0684 1.40027H108.171L123.083 50.4082H111.041ZM99.5596 10.9218L92.9786 32.7653H105.931L99.5596 10.9218Z" fill="#0D47A1"/>
<path d="M319.735 58.6331C320.195 58.6331 320.602 58.7265 320.954 58.9135C321.314 59.0933 321.594 59.3198 321.795 59.593V58.7301H323.036V64.7705C323.036 65.317 322.921 65.8023 322.691 66.2266C322.461 66.6581 322.126 66.996 321.688 67.2405C321.256 67.485 320.738 67.6073 320.134 67.6073C319.329 67.6073 318.66 67.4167 318.128 67.0356C317.596 66.6617 317.294 66.1511 317.222 65.5039H318.441C318.534 65.8131 318.732 66.0612 319.034 66.2482C319.343 66.4423 319.71 66.5394 320.134 66.5394C320.63 66.5394 321.03 66.3884 321.332 66.0864C321.641 65.7844 321.795 65.3457 321.795 64.7705V63.7781C321.587 64.0586 321.303 64.2959 320.943 64.49C320.591 64.677 320.188 64.7705 319.735 64.7705C319.217 64.7705 318.743 64.641 318.311 64.3821C317.887 64.1161 317.549 63.7494 317.298 63.2819C317.053 62.8074 316.931 62.2716 316.931 61.6748C316.931 61.0779 317.053 60.5494 317.298 60.0892C317.549 59.629 317.887 59.273 318.311 59.0214C318.743 58.7625 319.217 58.6331 319.735 58.6331ZM321.795 61.6964C321.795 61.2865 321.709 60.9305 321.537 60.6285C321.371 60.3265 321.152 60.0964 320.879 59.9382C320.605 59.78 320.311 59.7009 319.994 59.7009C319.678 59.7009 319.383 59.78 319.11 59.9382C318.836 60.0892 318.613 60.3157 318.441 60.6177C318.275 60.9126 318.193 61.2649 318.193 61.6748C318.193 62.0847 318.275 62.4442 318.441 62.7534C318.613 63.0626 318.836 63.2999 319.11 63.4653C319.39 63.6235 319.685 63.7026 319.994 63.7026C320.311 63.7026 320.605 63.6235 320.879 63.4653C321.152 63.3071 321.371 63.077 321.537 62.775C321.709 62.4658 321.795 62.1062 321.795 61.6964Z" fill="black"/>
<path d="M313.335 58.6331C313.802 58.6331 314.219 58.7301 314.586 58.9243C314.96 59.1184 315.251 59.4061 315.46 59.7872C315.668 60.1683 315.773 60.6285 315.773 61.1678V64.6734H314.554V61.3512C314.554 60.8191 314.421 60.4128 314.155 60.1324C313.889 59.8447 313.526 59.7009 313.065 59.7009C312.605 59.7009 312.238 59.8447 311.965 60.1324C311.699 60.4128 311.566 60.8191 311.566 61.3512V64.6734H310.336V58.7301H311.566V59.4097C311.767 59.1652 312.023 58.9746 312.332 58.838C312.648 58.7014 312.983 58.6331 313.335 58.6331Z" fill="black"/>
<path d="M302.616 61.6748C302.616 61.0779 302.738 60.5494 302.983 60.0892C303.234 59.629 303.572 59.273 303.996 59.0214C304.428 58.7625 304.903 58.6331 305.42 58.6331C305.888 58.6331 306.294 58.7265 306.639 58.9135C306.991 59.0933 307.272 59.3198 307.48 59.593V58.7301H308.721V64.6734H307.48V63.7889C307.272 64.0693 306.988 64.3031 306.628 64.49C306.269 64.677 305.859 64.7705 305.399 64.7705C304.888 64.7705 304.421 64.641 303.996 64.3822C303.572 64.1161 303.234 63.7494 302.983 63.2819C302.738 62.8074 302.616 62.2716 302.616 61.6748ZM307.48 61.6964C307.48 61.2865 307.394 60.9305 307.222 60.6285C307.056 60.3265 306.837 60.0964 306.564 59.9382C306.29 59.78 305.996 59.7009 305.679 59.7009C305.363 59.7009 305.068 59.78 304.795 59.9382C304.521 60.0892 304.299 60.3157 304.126 60.6177C303.961 60.9126 303.878 61.2649 303.878 61.6748C303.878 62.0847 303.961 62.4442 304.126 62.7534C304.299 63.0626 304.521 63.2999 304.795 63.4653C305.075 63.6235 305.37 63.7026 305.679 63.7026C305.996 63.7026 306.29 63.6235 306.564 63.4653C306.837 63.3071 307.056 63.077 307.222 62.775C307.394 62.4658 307.48 62.1062 307.48 61.6964Z" fill="black"/>
<path d="M299.405 61.7069L302.144 64.6731H300.483L298.283 62.1168V64.6731H297.053V56.6913H298.283V61.3294L300.44 58.7299H302.144L299.405 61.7069Z" fill="black"/>
<path d="M295.842 61.5561C295.842 61.7791 295.828 61.9804 295.799 62.1602H291.258C291.294 62.6348 291.47 63.0159 291.787 63.3035C292.103 63.5912 292.491 63.735 292.952 63.735C293.613 63.735 294.081 63.4581 294.354 62.9044H295.681C295.501 63.4509 295.174 63.9004 294.699 64.2527C294.232 64.5979 293.649 64.7705 292.952 64.7705C292.384 64.7705 291.873 64.6446 291.42 64.3929C290.974 64.1341 290.622 63.7745 290.363 63.3143C290.111 62.8469 289.985 62.3076 289.985 61.6964C289.985 61.0851 290.108 60.5494 290.352 60.0892C290.604 59.6218 290.953 59.2623 291.398 59.0106C291.851 58.7589 292.369 58.6331 292.952 58.6331C293.512 58.6331 294.012 58.7553 294.451 58.9998C294.89 59.2443 295.231 59.5894 295.476 60.0353C295.72 60.4739 295.842 60.9809 295.842 61.5561ZM294.559 61.1678C294.552 60.7148 294.39 60.3517 294.073 60.0784C293.757 59.8052 293.365 59.6685 292.898 59.6685C292.473 59.6685 292.11 59.8052 291.808 60.0784C291.506 60.3445 291.326 60.7076 291.269 61.1678H294.559Z" fill="black"/>
<path d="M287.486 59.593C287.666 59.291 287.903 59.0573 288.198 58.8919C288.5 58.7193 288.856 58.6331 289.266 58.6331V59.9058H288.953C288.471 59.9058 288.105 60.0281 287.853 60.2726C287.608 60.5171 287.486 60.9413 287.486 61.5454V64.6734H286.256V58.7301H287.486V59.593Z" fill="black"/>
<path d="M282.251 58.6331C282.718 58.6331 283.135 58.7301 283.502 58.9243C283.876 59.1184 284.167 59.4061 284.376 59.7872C284.584 60.1683 284.688 60.6285 284.688 61.1678V64.6734H283.47V61.3512C283.47 60.8191 283.336 60.4128 283.07 60.1324C282.804 59.8447 282.441 59.7009 281.981 59.7009C281.521 59.7009 281.154 59.8447 280.881 60.1324C280.615 60.4128 280.482 60.8191 280.482 61.3512V64.6734H279.252V58.7301H280.482V59.4097C280.683 59.1652 280.938 58.9746 281.248 58.838C281.564 58.7014 281.898 58.6331 282.251 58.6331Z" fill="black"/>
<path d="M274.825 58.1688V60.3692H277.413V61.3723H274.825V63.6698H277.737V64.6729H273.595V57.1656H277.737V58.1688H274.825Z" fill="black"/>
<path d="M269.178 64.6729H267.949L264.249 59.0748V64.6729H263.02V57.1656H264.249L267.949 62.7529V57.1656H269.178V64.6729Z" fill="black"/>
<path d="M258.979 64.7488C258.476 64.7488 258.023 64.6625 257.62 64.4899C257.217 64.3101 256.901 64.0584 256.671 63.7349C256.441 63.4113 256.326 63.0337 256.326 62.6023H257.641C257.67 62.9259 257.796 63.1919 258.019 63.4005C258.249 63.609 258.569 63.7133 258.979 63.7133C259.403 63.7133 259.734 63.6126 259.971 63.4113C260.209 63.2027 260.327 62.9367 260.327 62.6131C260.327 62.3614 260.252 62.1565 260.101 61.9983C259.957 61.8401 259.774 61.7178 259.551 61.6315C259.335 61.5452 259.033 61.4518 258.645 61.3511C258.156 61.2216 257.757 61.0922 257.447 60.9628C257.145 60.8262 256.886 60.6176 256.671 60.3372C256.455 60.0567 256.347 59.6828 256.347 59.2154C256.347 58.7839 256.455 58.4064 256.671 58.0828C256.886 57.7592 257.188 57.5112 257.577 57.3386C257.965 57.166 258.414 57.0797 258.925 57.0797C259.651 57.0797 260.245 57.2631 260.705 57.6298C261.172 57.9894 261.431 58.4855 261.481 59.1183H260.122C260.101 58.8451 259.971 58.6114 259.734 58.4172C259.497 58.2231 259.184 58.126 258.796 58.126C258.443 58.126 258.156 58.2159 257.933 58.3956C257.71 58.5754 257.598 58.8343 257.598 59.1723C257.598 59.4024 257.667 59.5929 257.803 59.7439C257.947 59.8877 258.127 60.0028 258.343 60.0891C258.558 60.1754 258.853 60.2689 259.227 60.3695C259.723 60.5062 260.126 60.6428 260.435 60.7794C260.752 60.916 261.018 61.1282 261.233 61.4158C261.456 61.6962 261.568 62.0738 261.568 62.5484C261.568 62.9295 261.463 63.289 261.255 63.627C261.054 63.965 260.755 64.2382 260.36 64.4467C259.971 64.6481 259.511 64.7488 258.979 64.7488Z" fill="black"/>
<path d="M253.508 63.1413H250.369L249.83 64.6729H248.546L251.232 57.1656H252.656L255.342 64.6729H254.047L253.508 63.1413ZM253.163 62.1381L251.944 58.6542L250.714 62.1381H253.163Z" fill="black"/>
<path d="M238.467 61.6748C238.467 61.0779 238.589 60.5494 238.834 60.0892C239.085 59.629 239.423 59.273 239.847 59.0214C240.279 58.7625 240.754 58.6331 241.271 58.6331C241.739 58.6331 242.145 58.7265 242.49 58.9135C242.842 59.0933 243.123 59.3198 243.331 59.593V58.7301H244.572V64.6734H243.331V63.7889C243.123 64.0693 242.839 64.3031 242.479 64.49C242.12 64.677 241.71 64.7705 241.25 64.7705C240.739 64.7705 240.272 64.641 239.847 64.3822C239.423 64.1161 239.085 63.7494 238.834 63.2819C238.589 62.8074 238.467 62.2716 238.467 61.6748ZM243.331 61.6964C243.331 61.2865 243.245 60.9305 243.073 60.6285C242.907 60.3265 242.688 60.0964 242.415 59.9382C242.141 59.78 241.847 59.7009 241.53 59.7009C241.214 59.7009 240.919 59.78 240.646 59.9382C240.372 60.0892 240.149 60.3157 239.977 60.6177C239.811 60.9126 239.729 61.2649 239.729 61.6748C239.729 62.0847 239.811 62.4442 239.977 62.7534C240.149 63.0626 240.372 63.2999 240.646 63.4653C240.926 63.6235 241.221 63.7026 241.53 63.7026C241.847 63.7026 242.141 63.6235 242.415 63.4653C242.688 63.3071 242.907 63.077 243.073 62.775C243.245 62.4658 243.331 62.1062 243.331 61.6964Z" fill="black"/>
<path d="M236.659 57.9425C236.436 57.9425 236.249 57.867 236.098 57.716C235.947 57.565 235.872 57.378 235.872 57.1551C235.872 56.9322 235.947 56.7452 236.098 56.5942C236.249 56.4432 236.436 56.3677 236.659 56.3677C236.875 56.3677 237.058 56.4432 237.209 56.5942C237.36 56.7452 237.436 56.9322 237.436 57.1551C237.436 57.378 237.36 57.565 237.209 57.716C237.058 57.867 236.875 57.9425 236.659 57.9425ZM237.263 65.838C237.263 66.4205 237.116 66.8412 236.821 67.1C236.533 67.3661 236.112 67.4991 235.559 67.4991H234.922V66.4636H235.343C235.595 66.4636 235.771 66.4133 235.872 66.3126C235.979 66.2192 236.033 66.061 236.033 65.838V58.7299H237.263V65.838Z" fill="black"/>
<path d="M233.122 59.593C233.302 59.291 233.54 59.0573 233.834 58.8919C234.136 58.7193 234.492 58.6331 234.902 58.6331V59.9058H234.589C234.108 59.9058 233.741 60.0281 233.489 60.2726C233.245 60.5171 233.122 60.9413 233.122 61.5454V64.6734H231.893V58.7301H233.122V59.593Z" fill="black"/>
<path d="M230.683 61.5561C230.683 61.7791 230.668 61.9804 230.64 62.1602H226.098C226.134 62.6348 226.311 63.0159 226.627 63.3035C226.943 63.5912 227.332 63.735 227.792 63.735C228.453 63.735 228.921 63.4581 229.194 62.9044H230.521C230.341 63.4509 230.014 63.9004 229.539 64.2527C229.072 64.5979 228.489 64.7705 227.792 64.7705C227.224 64.7705 226.713 64.6446 226.26 64.3929C225.814 64.1341 225.462 63.7745 225.203 63.3143C224.952 62.8469 224.826 62.3076 224.826 61.6964C224.826 61.0851 224.948 60.5494 225.192 60.0892C225.444 59.6218 225.793 59.2623 226.239 59.0106C226.692 58.7589 227.209 58.6331 227.792 58.6331C228.353 58.6331 228.853 58.7553 229.291 58.9998C229.73 59.2443 230.071 59.5894 230.316 60.0353C230.56 60.4739 230.683 60.9809 230.683 61.5561ZM229.399 61.1678C229.392 60.7148 229.23 60.3517 228.914 60.0784C228.597 59.8052 228.205 59.6685 227.738 59.6685C227.314 59.6685 226.951 59.8052 226.649 60.0784C226.347 60.3445 226.167 60.7076 226.109 61.1678H229.399Z" fill="black"/>
<path d="M221.229 58.6331C221.696 58.6331 222.114 58.7301 222.48 58.9243C222.854 59.1184 223.145 59.4061 223.354 59.7872C223.562 60.1683 223.667 60.6285 223.667 61.1678V64.6734H222.448V61.3512C222.448 60.8191 222.315 60.4128 222.049 60.1324C221.783 59.8447 221.42 59.7009 220.959 59.7009C220.499 59.7009 220.132 59.8447 219.859 60.1324C219.593 60.4128 219.46 60.8191 219.46 61.3512V64.6734H218.23V58.7301H219.46V59.4097C219.661 59.1652 219.917 58.9746 220.226 58.838C220.542 58.7014 220.877 58.6331 221.229 58.6331Z" fill="black"/>
<path d="M216.012 57.9425C215.789 57.9425 215.602 57.867 215.451 57.716C215.3 57.565 215.224 57.378 215.224 57.1551C215.224 56.9322 215.3 56.7452 215.451 56.5942C215.602 56.4432 215.789 56.3677 216.012 56.3677C216.228 56.3677 216.411 56.4432 216.562 56.5942C216.713 56.7452 216.789 56.9322 216.789 57.1551C216.789 57.378 216.713 57.565 216.562 57.716C216.411 57.867 216.228 57.9425 216.012 57.9425ZM216.616 58.7299V64.6731H215.386V58.7299H216.616Z" fill="black"/>
<path d="M212.693 64.6731L209.791 61.3186V64.6731H208.561V57.1766H209.791V60.5959L212.703 57.1766H214.246L210.988 60.9303L214.3 64.6731H212.693Z" fill="black"/>
<path d="M201.752 58.6331C202.22 58.6331 202.637 58.7301 203.004 58.9243C203.378 59.1184 203.669 59.4061 203.877 59.7872C204.086 60.1683 204.19 60.6285 204.19 61.1678V64.6734H202.971V61.3512C202.971 60.8191 202.838 60.4128 202.572 60.1324C202.306 59.8447 201.943 59.7009 201.483 59.7009C201.023 59.7009 200.656 59.8447 200.383 60.1324C200.117 60.4128 199.984 60.8191 199.984 61.3512V64.6734H198.754V58.7301H199.984V59.4097C200.185 59.1652 200.44 58.9746 200.749 58.838C201.066 58.7014 201.4 58.6331 201.752 58.6331Z" fill="black"/>
<path d="M191.036 61.6748C191.036 61.0779 191.158 60.5494 191.402 60.0892C191.654 59.629 191.992 59.273 192.416 59.0214C192.848 58.7625 193.322 58.6331 193.84 58.6331C194.307 58.6331 194.714 58.7265 195.059 58.9135C195.411 59.0933 195.692 59.3198 195.9 59.593V58.7301H197.141V64.6734H195.9V63.7889C195.692 64.0693 195.408 64.3031 195.048 64.49C194.689 64.677 194.279 64.7705 193.819 64.7705C193.308 64.7705 192.841 64.641 192.416 64.3822C191.992 64.1161 191.654 63.7494 191.402 63.2819C191.158 62.8074 191.036 62.2716 191.036 61.6748ZM195.9 61.6964C195.9 61.2865 195.814 60.9305 195.641 60.6285C195.476 60.3265 195.257 60.0964 194.983 59.9382C194.71 59.78 194.415 59.7009 194.099 59.7009C193.783 59.7009 193.488 59.78 193.214 59.9382C192.941 60.0892 192.718 60.3157 192.546 60.6177C192.38 60.9126 192.298 61.2649 192.298 61.6748C192.298 62.0847 192.38 62.4442 192.546 62.7534C192.718 63.0626 192.941 63.2999 193.214 63.4653C193.495 63.6235 193.79 63.7026 194.099 63.7026C194.415 63.7026 194.71 63.6235 194.983 63.4653C195.257 63.3071 195.476 63.077 195.641 62.775C195.814 62.4658 195.9 62.1062 195.9 61.6964Z" fill="black"/>
<path d="M183.725 61.6746C183.725 61.0777 183.847 60.5492 184.091 60.089C184.343 59.6288 184.681 59.2728 185.105 59.0211C185.537 58.7623 186.015 58.6328 186.54 58.6328C186.928 58.6328 187.309 58.7191 187.683 58.8917C188.064 59.0571 188.366 59.28 188.589 59.5604V56.6913H189.83V64.6731H188.589V63.7779C188.388 64.0655 188.108 64.3028 187.748 64.4898C187.396 64.6767 186.989 64.7702 186.529 64.7702C186.011 64.7702 185.537 64.6408 185.105 64.3819C184.681 64.1158 184.343 63.7491 184.091 63.2817C183.847 62.8071 183.725 62.2714 183.725 61.6746ZM188.589 61.6961C188.589 61.2862 188.503 60.9303 188.33 60.6283C188.165 60.3263 187.946 60.0962 187.673 59.938C187.399 59.7798 187.104 59.7007 186.788 59.7007C186.472 59.7007 186.177 59.7798 185.904 59.938C185.63 60.089 185.407 60.3155 185.235 60.6175C185.069 60.9123 184.987 61.2647 184.987 61.6746C184.987 62.0844 185.069 62.444 185.235 62.7532C185.407 63.0624 185.63 63.2997 185.904 63.4651C186.184 63.6233 186.479 63.7024 186.788 63.7024C187.104 63.7024 187.399 63.6233 187.673 63.4651C187.946 63.3069 188.165 63.0768 188.33 62.7748C188.503 62.4655 188.589 62.106 188.589 61.6961Z" fill="black"/>
<path d="M179.114 57.9425C178.891 57.9425 178.704 57.867 178.553 57.716C178.402 57.565 178.327 57.378 178.327 57.1551C178.327 56.9322 178.402 56.7452 178.553 56.5942C178.704 56.4432 178.891 56.3677 179.114 56.3677C179.33 56.3677 179.513 56.4432 179.664 56.5942C179.815 56.7452 179.891 56.9322 179.891 57.1551C179.891 57.378 179.815 57.565 179.664 57.716C179.513 57.867 179.33 57.9425 179.114 57.9425ZM179.718 58.7299V64.6731H178.488V58.7299H179.718Z" fill="black"/>
<path d="M174.883 64.7705C174.416 64.7705 173.995 64.6878 173.621 64.5224C173.255 64.3498 172.963 64.1197 172.748 63.832C172.532 63.5372 172.417 63.21 172.403 62.8505H173.675C173.697 63.1022 173.816 63.3143 174.031 63.4869C174.254 63.6523 174.531 63.735 174.862 63.735C175.207 63.735 175.473 63.6703 175.66 63.5408C175.854 63.4042 175.951 63.2316 175.951 63.0231C175.951 62.8002 175.843 62.6348 175.628 62.5269C175.419 62.419 175.085 62.3004 174.625 62.171C174.179 62.0487 173.816 61.9301 173.535 61.815C173.255 61.7 173.01 61.5238 172.802 61.2865C172.6 61.0492 172.5 60.7364 172.5 60.3481C172.5 60.0317 172.593 59.744 172.78 59.4852C172.967 59.2191 173.233 59.0106 173.578 58.8596C173.931 58.7086 174.333 58.6331 174.786 58.6331C175.462 58.6331 176.005 58.8056 176.415 59.1508C176.832 59.4888 177.055 59.9526 177.084 60.5422H175.854C175.833 60.2762 175.725 60.064 175.531 59.9058C175.336 59.7476 175.074 59.6685 174.743 59.6685C174.42 59.6685 174.172 59.7297 173.999 59.8519C173.826 59.9742 173.74 60.1359 173.74 60.3373C173.74 60.4955 173.798 60.6285 173.913 60.7364C174.028 60.8442 174.168 60.9305 174.333 60.9953C174.499 61.0528 174.743 61.1283 175.067 61.2218C175.498 61.3368 175.851 61.4555 176.124 61.5777C176.404 61.6928 176.645 61.8653 176.847 62.0955C177.048 62.3256 177.152 62.6312 177.159 63.0123C177.159 63.3503 177.066 63.6523 176.879 63.9183C176.692 64.1844 176.426 64.3929 176.081 64.5439C175.743 64.695 175.344 64.7705 174.883 64.7705Z" fill="black"/>
<path d="M168.72 58.6331C169.188 58.6331 169.605 58.7301 169.972 58.9243C170.346 59.1184 170.637 59.4061 170.845 59.7872C171.054 60.1683 171.158 60.6285 171.158 61.1678V64.6734H169.939V61.3512C169.939 60.8191 169.806 60.4128 169.54 60.1324C169.274 59.8447 168.911 59.7009 168.451 59.7009C167.991 59.7009 167.624 59.8447 167.351 60.1324C167.084 60.4128 166.951 60.8191 166.951 61.3512V64.6734H165.722V58.7301H166.951V59.4097C167.153 59.1652 167.408 58.9746 167.717 58.838C168.034 58.7014 168.368 58.6331 168.72 58.6331Z" fill="black"/>
<path d="M164.511 61.5561C164.511 61.7791 164.497 61.9804 164.468 62.1602H159.927C159.963 62.6348 160.139 63.0159 160.455 63.3035C160.772 63.5912 161.16 63.735 161.62 63.735C162.282 63.735 162.749 63.4581 163.022 62.9044H164.349C164.169 63.4509 163.842 63.9004 163.368 64.2527C162.9 64.5979 162.318 64.7705 161.62 64.7705C161.052 64.7705 160.542 64.6446 160.089 64.3929C159.643 64.1341 159.29 63.7745 159.032 63.3143C158.78 62.8469 158.654 62.3076 158.654 61.6964C158.654 61.0851 158.776 60.5494 159.021 60.0892C159.272 59.6218 159.621 59.2623 160.067 59.0106C160.52 58.7589 161.038 58.6331 161.62 58.6331C162.181 58.6331 162.681 58.7553 163.12 58.9998C163.558 59.2443 163.9 59.5894 164.144 60.0353C164.389 60.4739 164.511 60.9809 164.511 61.5561ZM163.227 61.1678C163.22 60.7148 163.058 60.3517 162.742 60.0784C162.426 59.8052 162.034 59.6685 161.566 59.6685C161.142 59.6685 160.779 59.8052 160.477 60.0784C160.175 60.3445 159.995 60.7076 159.938 61.1678H163.227Z" fill="black"/>
<path d="M155.46 64.7705C154.993 64.7705 154.572 64.6878 154.198 64.5224C153.831 64.3498 153.54 64.1197 153.325 63.832C153.109 63.5372 152.994 63.21 152.979 62.8505H154.252C154.274 63.1022 154.392 63.3143 154.608 63.4869C154.831 63.6523 155.108 63.735 155.439 63.735C155.784 63.735 156.05 63.6703 156.237 63.5408C156.431 63.4042 156.528 63.2316 156.528 63.0231C156.528 62.8002 156.42 62.6348 156.204 62.5269C155.996 62.419 155.662 62.3004 155.201 62.171C154.756 62.0487 154.392 61.9301 154.112 61.815C153.831 61.7 153.587 61.5238 153.378 61.2865C153.177 61.0492 153.076 60.7364 153.076 60.3481C153.076 60.0317 153.17 59.744 153.357 59.4852C153.544 59.2191 153.81 59.0106 154.155 58.8596C154.507 58.7086 154.91 58.6331 155.363 58.6331C156.039 58.6331 156.582 58.8056 156.992 59.1508C157.409 59.4888 157.632 59.9526 157.661 60.5422H156.431C156.409 60.2762 156.302 60.064 156.107 59.9058C155.913 59.7476 155.651 59.6685 155.32 59.6685C154.996 59.6685 154.748 59.7297 154.576 59.8519C154.403 59.9742 154.317 60.1359 154.317 60.3373C154.317 60.4955 154.374 60.6285 154.489 60.7364C154.605 60.8442 154.745 60.9305 154.91 60.9953C155.076 61.0528 155.32 61.1283 155.644 61.2218C156.075 61.3368 156.427 61.4555 156.701 61.5777C156.981 61.6928 157.222 61.8653 157.423 62.0955C157.625 62.3256 157.729 62.6312 157.736 63.0123C157.736 63.3503 157.643 63.6523 157.456 63.9183C157.269 64.1844 157.003 64.3929 156.657 64.5439C156.32 64.695 155.92 64.7705 155.46 64.7705Z" fill="black"/>
<path d="M147.222 59.6144C147.431 59.3267 147.715 59.093 148.074 58.9133C148.441 58.7263 148.848 58.6328 149.293 58.6328C149.818 58.6328 150.293 58.7587 150.717 59.0103C151.141 59.262 151.476 59.6216 151.72 60.089C151.965 60.5492 152.087 61.0777 152.087 61.6746C152.087 62.2714 151.965 62.8071 151.72 63.2817C151.476 63.7491 151.138 64.1158 150.706 64.3819C150.282 64.6408 149.811 64.7702 149.293 64.7702C148.833 64.7702 148.423 64.6803 148.064 64.5006C147.711 64.3208 147.431 64.0907 147.222 63.8102V64.6731H145.993V56.6913H147.222V59.6144ZM150.836 61.6746C150.836 61.2647 150.749 60.9123 150.577 60.6175C150.412 60.3155 150.189 60.089 149.908 59.938C149.635 59.7798 149.34 59.7007 149.024 59.7007C148.714 59.7007 148.42 59.7798 148.139 59.938C147.866 60.0962 147.643 60.3263 147.47 60.6283C147.305 60.9303 147.222 61.2862 147.222 61.6961C147.222 62.106 147.305 62.4655 147.47 62.7748C147.643 63.0768 147.866 63.3069 148.139 63.4651C148.42 63.6233 148.714 63.7024 149.024 63.7024C149.34 63.7024 149.635 63.6233 149.908 63.4651C150.189 63.2997 150.412 63.0624 150.577 62.7532C150.749 62.444 150.836 62.0844 150.836 61.6746Z" fill="black"/>
<path d="M142.991 63.1413H139.852L139.313 64.6729H138.029L140.715 57.1656H142.139L144.825 64.6729H143.53L142.991 63.1413ZM142.646 62.1381L141.427 58.6542L140.197 62.1381H142.646Z" fill="black"/>
<path d="M133.451 57.9425C133.228 57.9425 133.041 57.867 132.89 57.716C132.739 57.565 132.663 57.378 132.663 57.1551C132.663 56.9322 132.739 56.7452 132.89 56.5942C133.041 56.4432 133.228 56.3677 133.451 56.3677C133.667 56.3677 133.85 56.4432 134.001 56.5942C134.152 56.7452 134.227 56.9322 134.227 57.1551C134.227 57.378 134.152 57.565 134.001 57.716C133.85 57.867 133.667 57.9425 133.451 57.9425ZM134.055 58.7299V64.6731H132.825V58.7299H134.055Z" fill="black"/>
<path d="M129.221 64.7705C128.753 64.7705 128.333 64.6878 127.959 64.5224C127.592 64.3498 127.301 64.1197 127.085 63.832C126.869 63.5372 126.754 63.21 126.74 62.8505H128.013C128.034 63.1022 128.153 63.3143 128.369 63.4869C128.592 63.6523 128.869 63.735 129.199 63.735C129.544 63.735 129.811 63.6703 129.998 63.5408C130.192 63.4042 130.289 63.2316 130.289 63.0231C130.289 62.8002 130.181 62.6348 129.965 62.5269C129.757 62.419 129.422 62.3004 128.962 62.171C128.516 62.0487 128.153 61.9301 127.873 61.815C127.592 61.7 127.348 61.5238 127.139 61.2865C126.938 61.0492 126.837 60.7364 126.837 60.3481C126.837 60.0317 126.931 59.744 127.118 59.4852C127.305 59.2191 127.571 59.0106 127.916 58.8596C128.268 58.7086 128.671 58.6331 129.124 58.6331C129.8 58.6331 130.343 58.8056 130.753 59.1508C131.17 59.4888 131.393 59.9526 131.421 60.5422H130.192C130.17 60.2762 130.062 60.064 129.868 59.9058C129.674 59.7476 129.411 59.6685 129.081 59.6685C128.757 59.6685 128.509 59.7297 128.336 59.8519C128.164 59.9742 128.078 60.1359 128.078 60.3373C128.078 60.4955 128.135 60.6285 128.25 60.7364C128.365 60.8442 128.505 60.9305 128.671 60.9953C128.836 61.0528 129.081 61.1283 129.404 61.2218C129.836 61.3368 130.188 61.4555 130.461 61.5777C130.742 61.6928 130.983 61.8653 131.184 62.0955C131.385 62.3256 131.49 62.6312 131.497 63.0123C131.497 63.3503 131.403 63.6523 131.216 63.9183C131.029 64.1844 130.763 64.3929 130.418 64.5439C130.08 64.695 129.681 64.7705 129.221 64.7705Z" fill="black"/>
<path d="M119.344 61.6748C119.344 61.0779 119.466 60.5494 119.71 60.0892C119.962 59.629 120.3 59.273 120.724 59.0214C121.156 58.7625 121.63 58.6331 122.148 58.6331C122.616 58.6331 123.022 58.7265 123.367 58.9135C123.719 59.0933 124 59.3198 124.208 59.593V58.7301H125.449V64.6734H124.208V63.7889C124 64.0693 123.716 64.3031 123.356 64.49C122.997 64.677 122.587 64.7705 122.127 64.7705C121.616 64.7705 121.149 64.641 120.724 64.3822C120.3 64.1161 119.962 63.7494 119.71 63.2819C119.466 62.8074 119.344 62.2716 119.344 61.6748ZM124.208 61.6964C124.208 61.2865 124.122 60.9305 123.949 60.6285C123.784 60.3265 123.565 60.0964 123.291 59.9382C123.018 59.78 122.723 59.7009 122.407 59.7009C122.091 59.7009 121.796 59.78 121.523 59.9382C121.249 60.0892 121.026 60.3157 120.854 60.6177C120.688 60.9126 120.606 61.2649 120.606 61.6748C120.606 62.0847 120.688 62.4442 120.854 62.7534C121.026 63.0626 121.249 63.2999 121.523 63.4653C121.803 63.6235 122.098 63.7026 122.407 63.7026C122.723 63.7026 123.018 63.6235 123.291 63.4653C123.565 63.3071 123.784 63.077 123.949 62.775C124.122 62.4658 124.208 62.1062 124.208 61.6964Z" fill="black"/>
<path d="M116.149 64.7705C115.682 64.7705 115.261 64.6878 114.887 64.5224C114.52 64.3498 114.229 64.1197 114.013 63.832C113.798 63.5372 113.683 63.21 113.668 62.8505H114.941C114.963 63.1022 115.081 63.3143 115.297 63.4869C115.52 63.6523 115.797 63.735 116.127 63.735C116.473 63.735 116.739 63.6703 116.926 63.5408C117.12 63.4042 117.217 63.2316 117.217 63.0231C117.217 62.8002 117.109 62.6348 116.893 62.5269C116.685 62.419 116.35 62.3004 115.89 62.171C115.444 62.0487 115.081 61.9301 114.801 61.815C114.52 61.7 114.276 61.5238 114.067 61.2865C113.866 61.0492 113.765 60.7364 113.765 60.3481C113.765 60.0317 113.859 59.744 114.046 59.4852C114.233 59.2191 114.499 59.0106 114.844 58.8596C115.196 58.7086 115.599 58.6331 116.052 58.6331C116.728 58.6331 117.271 58.8056 117.681 59.1508C118.098 59.4888 118.321 59.9526 118.349 60.5422H117.12C117.098 60.2762 116.99 60.064 116.796 59.9058C116.602 59.7476 116.34 59.6685 116.009 59.6685C115.685 59.6685 115.437 59.7297 115.265 59.8519C115.092 59.9742 115.006 60.1359 115.006 60.3373C115.006 60.4955 115.063 60.6285 115.178 60.7364C115.293 60.8442 115.434 60.9305 115.599 60.9953C115.764 61.0528 116.009 61.1283 116.332 61.2218C116.764 61.3368 117.116 61.4555 117.389 61.5777C117.67 61.6928 117.911 61.8653 118.112 62.0955C118.314 62.3256 118.418 62.6312 118.425 63.0123C118.425 63.3503 118.331 63.6523 118.145 63.9183C117.958 64.1844 117.691 64.3929 117.346 64.5439C117.008 64.695 116.609 64.7705 116.149 64.7705Z" fill="black"/>
<path d="M111.773 57.9425C111.55 57.9425 111.363 57.867 111.212 57.716C111.061 57.565 110.986 57.378 110.986 57.1551C110.986 56.9322 111.061 56.7452 111.212 56.5942C111.363 56.4432 111.55 56.3677 111.773 56.3677C111.989 56.3677 112.172 56.4432 112.323 56.5942C112.474 56.7452 112.55 56.9322 112.55 57.1551C112.55 57.378 112.474 57.565 112.323 57.716C112.172 57.867 111.989 57.9425 111.773 57.9425ZM112.377 58.7299V64.6731H111.148V58.7299H112.377Z" fill="black"/>
<path d="M109.534 56.6913V64.6731H108.304V56.6913H109.534Z" fill="black"/>
<path d="M100.583 61.6748C100.583 61.0779 100.706 60.5494 100.95 60.0892C101.202 59.629 101.54 59.273 101.964 59.0214C102.395 58.7625 102.87 58.6331 103.388 58.6331C103.855 58.6331 104.261 58.7265 104.607 58.9135C104.959 59.0933 105.239 59.3198 105.448 59.593V58.7301H106.688V64.6734H105.448V63.7889C105.239 64.0693 104.955 64.3031 104.596 64.49C104.236 64.677 103.826 64.7705 103.366 64.7705C102.856 64.7705 102.388 64.641 101.964 64.3822C101.54 64.1161 101.202 63.7494 100.95 63.2819C100.706 62.8074 100.583 62.2716 100.583 61.6748ZM105.448 61.6964C105.448 61.2865 105.362 60.9305 105.189 60.6285C105.024 60.3265 104.804 60.0964 104.531 59.9382C104.258 59.78 103.963 59.7009 103.647 59.7009C103.33 59.7009 103.035 59.78 102.762 59.9382C102.489 60.0892 102.266 60.3157 102.093 60.6177C101.928 60.9126 101.845 61.2649 101.845 61.6748C101.845 62.0847 101.928 62.4442 102.093 62.7534C102.266 63.0626 102.489 63.2999 102.762 63.4653C103.043 63.6235 103.337 63.7026 103.647 63.7026C103.963 63.7026 104.258 63.6235 104.531 63.4653C104.804 63.3071 105.024 63.077 105.189 62.775C105.362 62.4658 105.448 62.1062 105.448 61.6964Z" fill="black"/>
<path d="M98.4139 59.7328V63.0226C98.4139 63.2455 98.4643 63.4073 98.565 63.508C98.6728 63.6015 98.8526 63.6482 99.1043 63.6482H99.8593V64.6729H98.8885C98.3348 64.6729 97.9106 64.5435 97.6158 64.2846C97.3209 64.0257 97.1735 63.6051 97.1735 63.0226V59.7328H96.4724V58.7297H97.1735V57.252H98.4139V58.7297H99.8593V59.7328H98.4139Z" fill="black"/>
<path d="M94.7618 57.9425C94.5388 57.9425 94.3519 57.867 94.2009 57.716C94.0499 57.565 93.9744 57.378 93.9744 57.1551C93.9744 56.9322 94.0499 56.7452 94.2009 56.5942C94.3519 56.4432 94.5388 56.3677 94.7618 56.3677C94.9775 56.3677 95.1609 56.4432 95.3119 56.5942C95.4629 56.7452 95.5384 56.9322 95.5384 57.1551C95.5384 57.378 95.4629 57.565 95.3119 57.716C95.1609 57.867 94.9775 57.9425 94.7618 57.9425ZM95.3658 58.7299V64.6731H94.1362V58.7299H95.3658Z" fill="black"/>
<path d="M89.22 58.6331C89.6802 58.6331 90.0865 58.7265 90.4388 58.9135C90.7984 59.0933 91.0788 59.3198 91.2801 59.593V58.7301H92.5206V64.7705C92.5206 65.317 92.4055 65.8023 92.1754 66.2266C91.9453 66.6581 91.6109 66.996 91.1723 67.2405C90.7408 67.485 90.2231 67.6073 89.6191 67.6073C88.8137 67.6073 88.1449 67.4167 87.6128 67.0356C87.0807 66.6617 86.7787 66.1511 86.7068 65.5039H87.9256C88.0191 65.8131 88.2168 66.0612 88.5189 66.2482C88.8281 66.4423 89.1948 66.5394 89.6191 66.5394C90.1152 66.5394 90.5143 66.3884 90.8163 66.0864C91.1255 65.7844 91.2801 65.3457 91.2801 64.7705V63.7781C91.0716 64.0586 90.7876 64.2959 90.428 64.49C90.0757 64.677 89.673 64.7705 89.22 64.7705C88.7022 64.7705 88.2276 64.641 87.7962 64.3821C87.3719 64.1161 87.0339 63.7494 86.7823 63.2819C86.5378 62.8074 86.4155 62.2716 86.4155 61.6748C86.4155 61.0779 86.5378 60.5494 86.7823 60.0892C87.0339 59.629 87.3719 59.273 87.7962 59.0214C88.2276 58.7625 88.7022 58.6331 89.22 58.6331ZM91.2801 61.6964C91.2801 61.2865 91.1939 60.9305 91.0213 60.6285C90.8559 60.3265 90.6366 60.0964 90.3633 59.9382C90.0901 59.78 89.7952 59.7009 89.4788 59.7009C89.1624 59.7009 88.8676 59.78 88.5944 59.9382C88.3211 60.0892 88.0982 60.3157 87.9256 60.6177C87.7602 60.9126 87.6775 61.2649 87.6775 61.6748C87.6775 62.0847 87.7602 62.4442 87.9256 62.7534C88.0982 63.0626 88.3211 63.2999 88.5944 63.4653C88.8748 63.6235 89.1696 63.7026 89.4788 63.7026C89.7952 63.7026 90.0901 63.6235 90.3633 63.4653C90.6366 63.3071 90.8559 63.077 91.0213 62.775C91.1939 62.4658 91.2801 62.1062 91.2801 61.6964Z" fill="black"/>
<path d="M84.6074 57.9425C84.3845 57.9425 84.1975 57.867 84.0465 57.716C83.8955 57.565 83.82 57.378 83.82 57.1551C83.82 56.9322 83.8955 56.7452 84.0465 56.5942C84.1975 56.4432 84.3845 56.3677 84.6074 56.3677C84.8231 56.3677 85.0065 56.4432 85.1575 56.5942C85.3085 56.7452 85.384 56.9322 85.384 57.1551C85.384 57.378 85.3085 57.565 85.1575 57.716C85.0065 57.867 84.8231 57.9425 84.6074 57.9425ZM85.2114 58.7299V64.6731H83.9818V58.7299H85.2114Z" fill="black"/>
<path d="M78.7828 57.1766C79.581 57.1766 80.2785 57.3312 80.8754 57.6404C81.4794 57.9425 81.9432 58.3811 82.2668 58.9564C82.5976 59.5245 82.763 60.1896 82.763 60.9518C82.763 61.7141 82.5976 62.3756 82.2668 62.9365C81.9432 63.4974 81.4794 63.9289 80.8754 64.2309C80.2785 64.5257 79.581 64.6731 78.7828 64.6731H76.3344V57.1766H78.7828ZM78.7828 63.67C79.6601 63.67 80.3325 63.4327 80.7999 62.9581C81.2673 62.4835 81.501 61.8147 81.501 60.9518C81.501 60.0817 81.2673 59.4022 80.7999 58.9132C80.3325 58.4243 79.6601 58.1798 78.7828 58.1798H77.564V63.67H78.7828Z" fill="black"/>
</svg>
