<svg width="623" height="138" viewBox="0 0 623 138" fill="none" xmlns="http://www.w3.org/2000/svg">
<rect x="42.1812" y="33.4126" width="67.1625" height="69.525" fill="#22C55E"/>
<path d="M78.8045 56.7222C79.0188 55.5129 79.6741 54.4261 80.6435 53.672C81.6281 52.9062 82.8651 52.5394 84.108 52.6448L85.1474 52.7329C89.0963 53.0675 92.1312 56.3704 92.1312 60.3335V75.8229C92.1312 79.8468 88.6367 82.9792 84.6367 82.5409C81.7537 82.225 79.3937 80.1047 78.7718 77.2719L77.4321 71.1687C76.9982 69.1919 76.9566 67.1492 77.3098 65.1564L78.8045 56.7222Z" fill="white"/>
<path fill-rule="evenodd" clip-rule="evenodd" d="M27.5 0C12.5883 0 0.5 12.0883 0.5 27V108C0.5 122.912 12.5883 135 27.5 135H68C105.279 135 135.5 104.779 135.5 67.5C135.5 30.2208 105.279 0 68 0H27.5ZM88.394 79.0171C95.5178 71.7338 94.3305 59.0524 84.8321 53.5685L81.5702 51.6852C81.641 50.6773 81.6917 49.6113 81.7264 48.4725C81.7366 48.1381 81.558 47.8263 81.2643 47.6659L57.4705 34.6741C57.4466 34.661 57.4222 34.6491 57.3972 34.6383C53.7146 33.0467 50.8154 32.282 48.3599 33.0229C45.8568 33.7782 44.1042 35.9984 42.4373 39.518C42.3792 39.6407 42.35 39.7751 42.3519 39.9109L42.4988 50.1598L42.3518 94.7117C42.3513 94.8566 42.3863 94.9994 42.4537 95.1276C44.2206 98.4921 46.1435 100.523 48.6032 101.529C51.0281 102.521 53.8243 102.45 57.1704 101.972C58.9913 101.712 61.4244 100.681 63.9706 99.3634C66.546 98.0305 69.3381 96.3496 71.9087 94.7069C74.4815 93.0629 76.8442 91.4497 78.563 90.248C79.4227 89.647 80.1221 89.1484 80.607 88.7998C80.8494 88.6254 81.0383 88.4885 81.1668 88.395L81.3135 88.2881L81.3636 88.2513L81.3643 88.2508C81.3645 88.2507 81.3646 88.2506 80.8387 87.535L81.3646 88.2506C81.5974 88.0795 81.7325 87.8059 81.7266 87.517C81.6989 86.1446 81.6538 84.8721 81.569 83.6553L84.8321 81.7713C86.1891 80.9879 87.3764 80.0576 88.394 79.0171Z" fill="#0D47A1"/>
<path d="M81.1626 51.6372C96.9553 60.3232 94.9812 77.4399 81.1626 83.3622" stroke="black" stroke-width="4"/>
<path d="M75.6642 67.7967C79.5024 61.2122 80.7226 56.9771 80.9937 48.3146L56.4317 35.2501C48.8296 32.0494 45.5826 32.7232 42.1812 39.7195L42.3329 50.0336M75.6642 67.7967C80.1794 76.0424 80.8412 80.2789 80.9936 87.6226C80.9936 87.6226 63.2824 100.303 56.4317 101.256C49.581 102.209 45.7204 101.407 42.1812 94.8424L42.3329 50.0336M75.6642 67.7967C64.1934 53.6547 56.6752 50.7928 42.3329 50.0336" stroke="black" stroke-width="4" stroke-linejoin="round"/>
<path d="M622.927 18.3632H577.155V40.5068H617.527V56.1693H577.155V81.5534H622.927V97.2159H554.876V2.70068H622.927V18.3632Z" fill="#0D47A1"/>
<path d="M481.163 2.70068V39.4266L513.164 2.70068H540.033L500.066 48.6081L542.733 97.2159H515.864L481.163 57.6546V97.2159H458.885V2.70068H481.163Z" fill="#0D47A1"/>
<path d="M396.995 57.5193V42.9369H442.632V49.9581C442.632 84.9287 428.995 99.9161 396.995 99.9161C363.104 99.9161 348.657 84.9287 348.657 49.9581C348.657 14.9874 363.104 0 396.995 0C423.459 0 436.826 9.72157 441.282 32.4052H420.218C417.518 21.4685 410.632 16.8777 396.995 16.8777C379.307 16.8777 372.015 26.5993 372.015 49.9581C372.015 73.1818 379.442 83.0384 396.995 83.0384C414.277 83.0384 421.568 75.4772 421.568 57.5193H396.995Z" fill="#0D47A1"/>
<path d="M311.329 2.70068H332.392V97.2159H306.738L270.957 30.3802V97.2159H249.759V2.70068H275.548L311.329 69.5365V2.70068Z" fill="#0D47A1"/>
<path d="M214.332 97.2159L208.661 77.7728H175.04L169.099 97.2159H146.821L177.741 2.70068H208.796L237.555 97.2159H214.332ZM192.188 21.0637L179.496 63.1905H204.475L192.188 21.0637Z" fill="#0D47A1"/>
<path d="M616.631 120.371C617.519 120.371 618.303 120.551 618.983 120.912C619.677 121.259 620.218 121.696 620.606 122.223V120.558H623V132.213C623 133.267 622.778 134.204 622.334 135.023C621.89 135.855 621.245 136.507 620.398 136.979C619.566 137.451 618.567 137.686 617.401 137.686C615.847 137.686 614.557 137.319 613.53 136.583C612.504 135.862 611.921 134.877 611.782 133.628H614.134C614.314 134.225 614.696 134.703 615.279 135.064C615.875 135.439 616.583 135.626 617.401 135.626C618.359 135.626 619.129 135.335 619.711 134.752C620.308 134.169 620.606 133.323 620.606 132.213V130.298C620.204 130.839 619.656 131.297 618.962 131.672C618.282 132.033 617.505 132.213 616.631 132.213C615.632 132.213 614.717 131.963 613.884 131.464C613.066 130.95 612.413 130.243 611.928 129.341C611.456 128.425 611.22 127.392 611.22 126.24C611.22 125.088 611.456 124.069 611.928 123.181C612.413 122.293 613.066 121.606 613.884 121.12C614.717 120.621 615.632 120.371 616.631 120.371ZM620.606 126.282C620.606 125.491 620.44 124.804 620.107 124.221C619.788 123.639 619.365 123.195 618.837 122.889C618.31 122.584 617.741 122.431 617.131 122.431C616.52 122.431 615.951 122.584 615.424 122.889C614.897 123.181 614.467 123.618 614.134 124.2C613.815 124.769 613.655 125.449 613.655 126.24C613.655 127.031 613.815 127.725 614.134 128.321C614.467 128.918 614.897 129.376 615.424 129.695C615.965 130 616.534 130.153 617.131 130.153C617.741 130.153 618.31 130 618.837 129.695C619.365 129.389 619.788 128.946 620.107 128.363C620.44 127.766 620.606 127.072 620.606 126.282Z" fill="black"/>
<path d="M604.282 120.371C605.184 120.371 605.988 120.558 606.696 120.933C607.417 121.308 607.979 121.863 608.382 122.598C608.784 123.333 608.985 124.221 608.985 125.262V132.026H606.633V125.616C606.633 124.589 606.377 123.805 605.863 123.264C605.35 122.709 604.649 122.431 603.761 122.431C602.873 122.431 602.166 122.709 601.639 123.264C601.125 123.805 600.869 124.589 600.869 125.616V132.026H598.496V120.558H600.869V121.87C601.257 121.398 601.75 121.03 602.346 120.767C602.957 120.503 603.602 120.371 604.282 120.371Z" fill="black"/>
<path d="M583.6 126.24C583.6 125.088 583.836 124.069 584.307 123.181C584.793 122.293 585.445 121.606 586.264 121.12C587.096 120.621 588.012 120.371 589.011 120.371C589.913 120.371 590.696 120.551 591.362 120.912C592.042 121.259 592.583 121.696 592.986 122.223V120.558H595.379V132.026H592.986V130.319C592.583 130.86 592.035 131.311 591.342 131.672C590.648 132.033 589.857 132.213 588.969 132.213C587.984 132.213 587.082 131.963 586.264 131.464C585.445 130.95 584.793 130.243 584.307 129.341C583.836 128.425 583.6 127.392 583.6 126.24ZM592.986 126.282C592.986 125.491 592.819 124.804 592.486 124.221C592.167 123.639 591.744 123.195 591.217 122.889C590.689 122.584 590.121 122.431 589.51 122.431C588.9 122.431 588.331 122.584 587.804 122.889C587.276 123.181 586.846 123.618 586.513 124.2C586.194 124.769 586.035 125.449 586.035 126.24C586.035 127.031 586.194 127.725 586.513 128.321C586.846 128.918 587.276 129.376 587.804 129.695C588.345 130 588.914 130.153 589.51 130.153C590.121 130.153 590.689 130 591.217 129.695C591.744 129.389 592.167 128.946 592.486 128.363C592.819 127.766 592.986 127.072 592.986 126.282Z" fill="black"/>
<path d="M577.404 126.302L582.69 132.025H579.485L575.24 127.093V132.025H572.867V116.625H575.24V125.574L579.402 120.558H582.69L577.404 126.302Z" fill="black"/>
<path d="M570.532 126.011C570.532 126.441 570.504 126.83 570.448 127.177H561.687C561.756 128.092 562.096 128.828 562.707 129.383C563.317 129.938 564.066 130.215 564.954 130.215C566.231 130.215 567.132 129.681 567.66 128.613H570.22C569.873 129.667 569.241 130.534 568.326 131.214C567.424 131.88 566.3 132.213 564.954 132.213C563.858 132.213 562.873 131.97 561.999 131.485C561.139 130.985 560.459 130.291 559.959 129.403C559.474 128.502 559.231 127.461 559.231 126.282C559.231 125.102 559.467 124.069 559.939 123.181C560.424 122.279 561.097 121.585 561.957 121.1C562.831 120.614 563.83 120.371 564.954 120.371C566.036 120.371 567.001 120.607 567.847 121.079C568.693 121.55 569.352 122.216 569.824 123.077C570.296 123.923 570.532 124.901 570.532 126.011ZM568.055 125.262C568.041 124.388 567.729 123.687 567.119 123.16C566.508 122.633 565.752 122.369 564.85 122.369C564.032 122.369 563.331 122.633 562.748 123.16C562.165 123.673 561.819 124.374 561.708 125.262H568.055Z" fill="black"/>
<path d="M554.408 122.223C554.755 121.641 555.213 121.19 555.782 120.871C556.364 120.538 557.051 120.371 557.842 120.371V122.827H557.239C556.309 122.827 555.601 123.063 555.116 123.534C554.644 124.006 554.408 124.825 554.408 125.99V132.026H552.036V120.558H554.408V122.223Z" fill="black"/>
<path d="M544.306 120.371C545.208 120.371 546.012 120.558 546.72 120.933C547.441 121.308 548.003 121.863 548.406 122.598C548.808 123.333 549.009 124.221 549.009 125.262V132.026H546.657V125.616C546.657 124.589 546.401 123.805 545.887 123.264C545.374 122.709 544.673 122.431 543.785 122.431C542.897 122.431 542.19 122.709 541.663 123.264C541.149 123.805 540.893 124.589 540.893 125.616V132.026H538.52V120.558H540.893V121.87C541.281 121.398 541.774 121.03 542.37 120.767C542.981 120.503 543.626 120.371 544.306 120.371Z" fill="black"/>
<path d="M529.979 119.476V123.721H534.974V125.657H529.979V130.089H535.598V132.025H527.606V117.54H535.598V119.476H529.979Z" fill="black"/>
<path d="M519.084 132.025H516.711L509.573 121.224V132.025H507.2V117.54H509.573L516.711 128.32V117.54H519.084V132.025Z" fill="black"/>
<path d="M499.406 132.171C498.435 132.171 497.561 132.004 496.784 131.671C496.007 131.324 495.396 130.839 494.952 130.214C494.508 129.59 494.286 128.862 494.286 128.029H496.825C496.881 128.653 497.123 129.167 497.554 129.569C497.998 129.972 498.615 130.173 499.406 130.173C500.224 130.173 500.863 129.978 501.32 129.59C501.778 129.188 502.007 128.674 502.007 128.05C502.007 127.564 501.862 127.169 501.57 126.864C501.293 126.558 500.939 126.323 500.509 126.156C500.093 125.99 499.51 125.809 498.761 125.615C497.817 125.365 497.047 125.115 496.451 124.866C495.868 124.602 495.368 124.2 494.952 123.659C494.536 123.118 494.328 122.396 494.328 121.494C494.328 120.662 494.536 119.933 494.952 119.309C495.368 118.685 495.951 118.206 496.7 117.873C497.449 117.54 498.317 117.374 499.302 117.374C500.703 117.374 501.848 117.727 502.736 118.435C503.637 119.129 504.137 120.086 504.234 121.307H501.612C501.57 120.78 501.32 120.329 500.863 119.954C500.405 119.58 499.801 119.392 499.052 119.392C498.372 119.392 497.817 119.566 497.387 119.913C496.957 120.259 496.742 120.759 496.742 121.411C496.742 121.855 496.874 122.223 497.137 122.514C497.415 122.792 497.762 123.014 498.178 123.18C498.594 123.346 499.163 123.527 499.884 123.721C500.842 123.985 501.619 124.248 502.215 124.512C502.826 124.776 503.339 125.185 503.755 125.74C504.186 126.281 504.401 127.009 504.401 127.925C504.401 128.66 504.199 129.354 503.797 130.006C503.409 130.658 502.833 131.186 502.07 131.588C501.32 131.976 500.433 132.171 499.406 132.171Z" fill="black"/>
<path d="M488.85 129.07H482.794L481.753 132.025H479.276L484.458 117.54H487.206L492.388 132.025H489.89L488.85 129.07ZM488.184 127.134L485.832 120.412L483.46 127.134H488.184Z" fill="black"/>
<path d="M459.827 126.24C459.827 125.088 460.063 124.069 460.535 123.181C461.02 122.293 461.672 121.606 462.491 121.12C463.324 120.621 464.239 120.371 465.238 120.371C466.14 120.371 466.924 120.551 467.59 120.912C468.27 121.259 468.811 121.696 469.213 122.223V120.558H471.607V132.026H469.213V130.319C468.811 130.86 468.263 131.311 467.569 131.672C466.875 132.033 466.085 132.213 465.197 132.213C464.211 132.213 463.31 131.963 462.491 131.464C461.672 130.95 461.02 130.243 460.535 129.341C460.063 128.425 459.827 127.392 459.827 126.24ZM469.213 126.282C469.213 125.491 469.047 124.804 468.714 124.221C468.395 123.639 467.971 123.195 467.444 122.889C466.917 122.584 466.348 122.431 465.738 122.431C465.127 122.431 464.558 122.584 464.031 122.889C463.504 123.181 463.074 123.618 462.741 124.2C462.422 124.769 462.262 125.449 462.262 126.24C462.262 127.031 462.422 127.725 462.741 128.321C463.074 128.918 463.504 129.376 464.031 129.695C464.572 130 465.141 130.153 465.738 130.153C466.348 130.153 466.917 130 467.444 129.695C467.971 129.389 468.395 128.946 468.714 128.363C469.047 127.766 469.213 127.072 469.213 126.282Z" fill="black"/>
<path d="M456.338 119.039C455.908 119.039 455.547 118.893 455.256 118.601C454.964 118.31 454.819 117.949 454.819 117.519C454.819 117.089 454.964 116.728 455.256 116.437C455.547 116.146 455.908 116 456.338 116C456.754 116 457.108 116.146 457.399 116.437C457.691 116.728 457.836 117.089 457.836 117.519C457.836 117.949 457.691 118.31 457.399 118.601C457.108 118.893 456.754 119.039 456.338 119.039ZM457.503 134.273C457.503 135.396 457.219 136.208 456.65 136.708C456.095 137.221 455.284 137.478 454.215 137.478H452.987V135.48H453.799C454.285 135.48 454.624 135.383 454.819 135.188C455.027 135.008 455.131 134.703 455.131 134.273V120.558H457.503V134.273Z" fill="black"/>
<path d="M449.516 122.223C449.862 121.641 450.32 121.19 450.889 120.871C451.472 120.538 452.159 120.371 452.95 120.371V122.827H452.346C451.416 122.827 450.709 123.063 450.223 123.534C449.751 124.006 449.516 124.825 449.516 125.99V132.026H447.143V120.558H449.516V122.223Z" fill="black"/>
<path d="M444.809 126.011C444.809 126.441 444.781 126.83 444.725 127.177H435.964C436.033 128.092 436.373 128.828 436.983 129.383C437.594 129.938 438.343 130.215 439.231 130.215C440.507 130.215 441.409 129.681 441.937 128.613H444.496C444.15 129.667 443.518 130.534 442.603 131.214C441.701 131.88 440.577 132.213 439.231 132.213C438.135 132.213 437.15 131.97 436.276 131.485C435.416 130.985 434.736 130.291 434.236 129.403C433.751 128.502 433.508 127.461 433.508 126.282C433.508 125.102 433.744 124.069 434.215 123.181C434.701 122.279 435.374 121.585 436.234 121.1C437.108 120.614 438.107 120.371 439.231 120.371C440.313 120.371 441.278 120.607 442.124 121.079C442.97 121.55 443.629 122.216 444.101 123.077C444.573 123.923 444.809 124.901 444.809 126.011ZM442.332 125.262C442.318 124.388 442.006 123.687 441.395 123.16C440.785 122.633 440.029 122.369 439.127 122.369C438.308 122.369 437.608 122.633 437.025 123.16C436.442 123.673 436.095 124.374 435.984 125.262H442.332Z" fill="black"/>
<path d="M426.569 120.371C427.471 120.371 428.275 120.558 428.983 120.933C429.704 121.308 430.266 121.863 430.669 122.598C431.071 123.333 431.272 124.221 431.272 125.262V132.026H428.921V125.616C428.921 124.589 428.664 123.805 428.151 123.264C427.637 122.709 426.937 122.431 426.049 122.431C425.161 122.431 424.453 122.709 423.926 123.264C423.412 123.805 423.156 124.589 423.156 125.616V132.026H420.783V120.558H423.156V121.87C423.544 121.398 424.037 121.03 424.633 120.767C425.244 120.503 425.889 120.371 426.569 120.371Z" fill="black"/>
<path d="M416.503 119.039C416.073 119.039 415.712 118.893 415.42 118.601C415.129 118.31 414.983 117.949 414.983 117.519C414.983 117.089 415.129 116.728 415.42 116.437C415.712 116.146 416.073 116 416.503 116C416.919 116 417.273 116.146 417.564 116.437C417.855 116.728 418.001 117.089 418.001 117.519C418.001 117.949 417.855 118.31 417.564 118.601C417.273 118.893 416.919 119.039 416.503 119.039ZM417.668 120.558V132.025H415.296V120.558H417.668Z" fill="black"/>
<path d="M410.097 132.025L404.499 125.553V132.025H402.126V117.561H404.499V124.158L410.118 117.561H413.094L406.809 124.804L413.198 132.025H410.097Z" fill="black"/>
<path d="M388.99 120.371C389.892 120.371 390.696 120.558 391.404 120.933C392.125 121.308 392.687 121.863 393.09 122.598C393.492 123.333 393.693 124.221 393.693 125.262V132.026H391.341V125.616C391.341 124.589 391.085 123.805 390.571 123.264C390.058 122.709 389.357 122.431 388.469 122.431C387.581 122.431 386.874 122.709 386.347 123.264C385.833 123.805 385.577 124.589 385.577 125.616V132.026H383.204V120.558H385.577V121.87C385.965 121.398 386.458 121.03 387.054 120.767C387.665 120.503 388.31 120.371 388.99 120.371Z" fill="black"/>
<path d="M368.31 126.24C368.31 125.088 368.545 124.069 369.017 123.181C369.503 122.293 370.155 121.606 370.973 121.12C371.806 120.621 372.722 120.371 373.721 120.371C374.622 120.371 375.406 120.551 376.072 120.912C376.752 121.259 377.293 121.696 377.696 122.223V120.558H380.089V132.026H377.696V130.319C377.293 130.86 376.745 131.311 376.052 131.672C375.358 132.033 374.567 132.213 373.679 132.213C372.694 132.213 371.792 131.963 370.973 131.464C370.155 130.95 369.503 130.243 369.017 129.341C368.545 128.425 368.31 127.392 368.31 126.24ZM377.696 126.282C377.696 125.491 377.529 124.804 377.196 124.221C376.877 123.639 376.454 123.195 375.927 122.889C375.399 122.584 374.831 122.431 374.22 122.431C373.61 122.431 373.041 122.584 372.514 122.889C371.986 123.181 371.556 123.618 371.223 124.2C370.904 124.769 370.745 125.449 370.745 126.24C370.745 127.031 370.904 127.725 371.223 128.321C371.556 128.918 371.986 129.376 372.514 129.695C373.055 130 373.623 130.153 374.22 130.153C374.831 130.153 375.399 130 375.927 129.695C376.454 129.389 376.877 128.946 377.196 128.363C377.529 127.766 377.696 127.072 377.696 126.282Z" fill="black"/>
<path d="M354.204 126.24C354.204 125.088 354.44 124.068 354.912 123.18C355.397 122.292 356.049 121.605 356.868 121.12C357.7 120.62 358.623 120.371 359.636 120.371C360.385 120.371 361.121 120.537 361.842 120.87C362.577 121.189 363.16 121.619 363.59 122.16V116.625H365.984V132.025H363.59V130.298C363.202 130.853 362.661 131.311 361.967 131.671C361.287 132.032 360.503 132.212 359.615 132.212C358.616 132.212 357.7 131.963 356.868 131.463C356.049 130.95 355.397 130.242 354.912 129.34C354.44 128.425 354.204 127.391 354.204 126.24ZM363.59 126.281C363.59 125.49 363.424 124.804 363.091 124.221C362.772 123.638 362.348 123.194 361.821 122.889C361.294 122.584 360.725 122.431 360.115 122.431C359.504 122.431 358.935 122.584 358.408 122.889C357.881 123.18 357.451 123.617 357.118 124.2C356.799 124.769 356.639 125.449 356.639 126.24C356.639 127.03 356.799 127.724 357.118 128.321C357.451 128.917 357.881 129.375 358.408 129.694C358.949 129.999 359.518 130.152 360.115 130.152C360.725 130.152 361.294 129.999 361.821 129.694C362.348 129.389 362.772 128.945 363.091 128.362C363.424 127.766 363.59 127.072 363.59 126.281Z" fill="black"/>
<path d="M345.308 119.039C344.878 119.039 344.517 118.893 344.226 118.601C343.935 118.31 343.789 117.949 343.789 117.519C343.789 117.089 343.935 116.728 344.226 116.437C344.517 116.146 344.878 116 345.308 116C345.725 116 346.078 116.146 346.37 116.437C346.661 116.728 346.807 117.089 346.807 117.519C346.807 117.949 346.661 118.31 346.37 118.601C346.078 118.893 345.725 119.039 345.308 119.039ZM346.474 120.558V132.025H344.101V120.558H346.474Z" fill="black"/>
<path d="M337.146 132.213C336.244 132.213 335.433 132.053 334.711 131.734C334.003 131.401 333.442 130.957 333.025 130.402C332.609 129.833 332.387 129.202 332.359 128.508H334.815C334.857 128.994 335.086 129.403 335.502 129.736C335.932 130.055 336.466 130.215 337.104 130.215C337.77 130.215 338.284 130.09 338.645 129.84C339.019 129.577 339.206 129.244 339.206 128.841C339.206 128.411 338.998 128.092 338.582 127.884C338.18 127.676 337.535 127.447 336.647 127.197C335.786 126.961 335.086 126.733 334.545 126.511C334.003 126.289 333.532 125.949 333.129 125.491C332.741 125.033 332.547 124.429 332.547 123.68C332.547 123.07 332.727 122.515 333.088 122.015C333.449 121.502 333.962 121.1 334.628 120.808C335.308 120.517 336.085 120.371 336.959 120.371C338.263 120.371 339.31 120.704 340.101 121.37C340.906 122.022 341.336 122.917 341.392 124.055H339.019C338.978 123.541 338.769 123.132 338.395 122.827C338.02 122.522 337.514 122.369 336.876 122.369C336.251 122.369 335.772 122.487 335.44 122.723C335.107 122.959 334.94 123.271 334.94 123.659C334.94 123.965 335.051 124.221 335.273 124.429C335.495 124.637 335.766 124.804 336.085 124.929C336.404 125.04 336.876 125.186 337.5 125.366C338.332 125.588 339.012 125.817 339.539 126.053C340.081 126.275 340.545 126.608 340.934 127.052C341.322 127.496 341.523 128.085 341.537 128.821C341.537 129.473 341.357 130.055 340.996 130.569C340.635 131.082 340.122 131.485 339.456 131.776C338.804 132.067 338.034 132.213 337.146 132.213Z" fill="black"/>
<path d="M325.255 120.371C326.157 120.371 326.961 120.558 327.669 120.933C328.391 121.308 328.952 121.863 329.355 122.598C329.757 123.333 329.958 124.221 329.958 125.262V132.026H327.607V125.616C327.607 124.589 327.35 123.805 326.837 123.264C326.323 122.709 325.623 122.431 324.735 122.431C323.847 122.431 323.139 122.709 322.612 123.264C322.098 123.805 321.842 124.589 321.842 125.616V132.026H319.469V120.558H321.842V121.87C322.23 121.398 322.723 121.03 323.319 120.767C323.93 120.503 324.575 120.371 325.255 120.371Z" fill="black"/>
<path d="M317.134 126.011C317.134 126.441 317.106 126.83 317.05 127.177H308.289C308.358 128.092 308.698 128.828 309.309 129.383C309.919 129.938 310.668 130.215 311.556 130.215C312.833 130.215 313.735 129.681 314.262 128.613H316.822C316.475 129.667 315.843 130.534 314.928 131.214C314.026 131.88 312.902 132.213 311.556 132.213C310.46 132.213 309.475 131.97 308.601 131.485C307.741 130.985 307.061 130.291 306.561 129.403C306.076 128.502 305.833 127.461 305.833 126.282C305.833 125.102 306.069 124.069 306.541 123.181C307.026 122.279 307.699 121.585 308.559 121.1C309.433 120.614 310.432 120.371 311.556 120.371C312.638 120.371 313.603 120.607 314.449 121.079C315.295 121.55 315.954 122.216 316.426 123.077C316.898 123.923 317.134 124.901 317.134 126.011ZM314.657 125.262C314.643 124.388 314.331 123.687 313.721 123.16C313.11 122.633 312.354 122.369 311.452 122.369C310.634 122.369 309.933 122.633 309.35 123.16C308.767 123.673 308.421 124.374 308.31 125.262H314.657Z" fill="black"/>
<path d="M299.669 132.213C298.768 132.213 297.956 132.053 297.235 131.734C296.527 131.401 295.965 130.957 295.549 130.402C295.133 129.833 294.911 129.202 294.883 128.508H297.339C297.38 128.994 297.609 129.403 298.025 129.736C298.455 130.055 298.99 130.215 299.628 130.215C300.294 130.215 300.807 130.09 301.168 129.84C301.543 129.577 301.73 129.244 301.73 128.841C301.73 128.411 301.522 128.092 301.106 127.884C300.703 127.676 300.058 127.447 299.17 127.197C298.31 126.961 297.609 126.733 297.068 126.511C296.527 126.289 296.055 125.949 295.653 125.491C295.264 125.033 295.07 124.429 295.07 123.68C295.07 123.07 295.25 122.515 295.611 122.015C295.972 121.502 296.485 121.1 297.151 120.808C297.831 120.517 298.608 120.371 299.482 120.371C300.786 120.371 301.834 120.704 302.625 121.37C303.429 122.022 303.86 122.917 303.915 124.055H301.543C301.501 123.541 301.293 123.132 300.918 122.827C300.544 122.522 300.037 122.369 299.399 122.369C298.775 122.369 298.296 122.487 297.963 122.723C297.63 122.959 297.463 123.271 297.463 123.659C297.463 123.965 297.574 124.221 297.796 124.429C298.018 124.637 298.289 124.804 298.608 124.929C298.927 125.04 299.399 125.186 300.023 125.366C300.856 125.588 301.536 125.817 302.063 126.053C302.604 126.275 303.069 126.608 303.457 127.052C303.846 127.496 304.047 128.085 304.061 128.821C304.061 129.473 303.88 130.055 303.52 130.569C303.159 131.082 302.646 131.485 301.98 131.776C301.327 132.067 300.557 132.213 299.669 132.213Z" fill="black"/>
<path d="M283.775 122.264C284.177 121.709 284.725 121.259 285.419 120.912C286.127 120.551 286.911 120.371 287.771 120.371C288.784 120.371 289.699 120.613 290.518 121.099C291.336 121.585 291.982 122.278 292.453 123.18C292.925 124.068 293.161 125.088 293.161 126.24C293.161 127.391 292.925 128.425 292.453 129.34C291.982 130.242 291.33 130.95 290.497 131.463C289.678 131.963 288.77 132.212 287.771 132.212C286.883 132.212 286.092 132.039 285.398 131.692C284.718 131.345 284.177 130.901 283.775 130.36V132.025H281.402V116.625H283.775V122.264ZM290.747 126.24C290.747 125.449 290.58 124.769 290.247 124.2C289.928 123.617 289.498 123.18 288.957 122.889C288.43 122.584 287.861 122.431 287.25 122.431C286.654 122.431 286.085 122.584 285.544 122.889C285.017 123.194 284.587 123.638 284.254 124.221C283.934 124.804 283.775 125.49 283.775 126.281C283.775 127.072 283.934 127.766 284.254 128.362C284.587 128.945 285.017 129.389 285.544 129.694C286.085 129.999 286.654 130.152 287.25 130.152C287.861 130.152 288.43 129.999 288.957 129.694C289.498 129.375 289.928 128.917 290.247 128.321C290.58 127.724 290.747 127.03 290.747 126.24Z" fill="black"/>
<path d="M275.611 129.07H269.555L268.515 132.025H266.038L271.22 117.54H273.967L279.149 132.025H276.652L275.611 129.07ZM274.945 127.134L272.594 120.412L270.221 127.134H274.945Z" fill="black"/>
<path d="M257.204 119.039C256.774 119.039 256.413 118.893 256.122 118.601C255.831 118.31 255.685 117.949 255.685 117.519C255.685 117.089 255.831 116.728 256.122 116.437C256.413 116.146 256.774 116 257.204 116C257.621 116 257.974 116.146 258.266 116.437C258.557 116.728 258.703 117.089 258.703 117.519C258.703 117.949 258.557 118.31 258.266 118.601C257.974 118.893 257.621 119.039 257.204 119.039ZM258.37 120.558V132.025H255.997V120.558H258.37Z" fill="black"/>
<path d="M249.042 132.213C248.14 132.213 247.329 132.053 246.607 131.734C245.899 131.401 245.338 130.957 244.921 130.402C244.505 129.833 244.283 129.202 244.255 128.508H246.711C246.753 128.994 246.982 129.403 247.398 129.736C247.828 130.055 248.362 130.215 249 130.215C249.666 130.215 250.18 130.09 250.541 129.84C250.915 129.577 251.102 129.244 251.102 128.841C251.102 128.411 250.894 128.092 250.478 127.884C250.076 127.676 249.431 127.447 248.543 127.197C247.682 126.961 246.982 126.733 246.441 126.511C245.899 126.289 245.428 125.949 245.025 125.491C244.637 125.033 244.443 124.429 244.443 123.68C244.443 123.07 244.623 122.515 244.984 122.015C245.345 121.502 245.858 121.1 246.524 120.808C247.204 120.517 247.981 120.371 248.855 120.371C250.159 120.371 251.206 120.704 251.997 121.37C252.802 122.022 253.232 122.917 253.288 124.055H250.915C250.873 123.541 250.665 123.132 250.291 122.827C249.916 122.522 249.41 122.369 248.772 122.369C248.147 122.369 247.668 122.487 247.336 122.723C247.003 122.959 246.836 123.271 246.836 123.659C246.836 123.965 246.947 124.221 247.169 124.429C247.391 124.637 247.662 124.804 247.981 124.929C248.3 125.04 248.772 125.186 249.396 125.366C250.228 125.588 250.908 125.817 251.435 126.053C251.977 126.275 252.441 126.608 252.83 127.052C253.218 127.496 253.419 128.085 253.433 128.821C253.433 129.473 253.253 130.055 252.892 130.569C252.531 131.082 252.018 131.485 251.352 131.776C250.7 132.067 249.93 132.213 249.042 132.213Z" fill="black"/>
<path d="M229.984 126.24C229.984 125.088 230.22 124.069 230.692 123.181C231.178 122.293 231.83 121.606 232.648 121.12C233.481 120.621 234.396 120.371 235.395 120.371C236.297 120.371 237.081 120.551 237.747 120.912C238.427 121.259 238.968 121.696 239.37 122.223V120.558H241.764V132.026H239.37V130.319C238.968 130.86 238.42 131.311 237.726 131.672C237.033 132.033 236.242 132.213 235.354 132.213C234.369 132.213 233.467 131.963 232.648 131.464C231.83 130.95 231.178 130.243 230.692 129.341C230.22 128.425 229.984 127.392 229.984 126.24ZM239.37 126.282C239.37 125.491 239.204 124.804 238.871 124.221C238.552 123.639 238.129 123.195 237.601 122.889C237.074 122.584 236.505 122.431 235.895 122.431C235.284 122.431 234.716 122.584 234.188 122.889C233.661 123.181 233.231 123.618 232.898 124.2C232.579 124.769 232.419 125.449 232.419 126.24C232.419 127.031 232.579 127.725 232.898 128.321C233.231 128.918 233.661 129.376 234.188 129.695C234.729 130 235.298 130.153 235.895 130.153C236.505 130.153 237.074 130 237.601 129.695C238.129 129.389 238.552 128.946 238.871 128.363C239.204 127.766 239.37 127.072 239.37 126.282Z" fill="black"/>
<path d="M223.821 132.213C222.919 132.213 222.107 132.053 221.386 131.734C220.678 131.401 220.116 130.957 219.7 130.402C219.284 129.833 219.062 129.202 219.034 128.508H221.49C221.532 128.994 221.761 129.403 222.177 129.736C222.607 130.055 223.141 130.215 223.779 130.215C224.445 130.215 224.959 130.09 225.319 129.84C225.694 129.577 225.881 129.244 225.881 128.841C225.881 128.411 225.673 128.092 225.257 127.884C224.855 127.676 224.209 127.447 223.321 127.197C222.461 126.961 221.761 126.733 221.219 126.511C220.678 126.289 220.207 125.949 219.804 125.491C219.416 125.033 219.221 124.429 219.221 123.68C219.221 123.07 219.402 122.515 219.763 122.015C220.123 121.502 220.637 121.1 221.303 120.808C221.983 120.517 222.759 120.371 223.634 120.371C224.938 120.371 225.985 120.704 226.776 121.37C227.581 122.022 228.011 122.917 228.066 124.055H225.694C225.652 123.541 225.444 123.132 225.07 122.827C224.695 122.522 224.189 122.369 223.55 122.369C222.926 122.369 222.447 122.487 222.114 122.723C221.781 122.959 221.615 123.271 221.615 123.659C221.615 123.965 221.726 124.221 221.948 124.429C222.17 124.637 222.44 124.804 222.759 124.929C223.079 125.04 223.55 125.186 224.175 125.366C225.007 125.588 225.687 125.817 226.214 126.053C226.755 126.275 227.22 126.608 227.609 127.052C227.997 127.496 228.198 128.085 228.212 128.821C228.212 129.473 228.032 130.055 227.671 130.569C227.31 131.082 226.797 131.485 226.131 131.776C225.479 132.067 224.709 132.213 223.821 132.213Z" fill="black"/>
<path d="M215.378 119.039C214.948 119.039 214.587 118.893 214.295 118.601C214.004 118.31 213.858 117.949 213.858 117.519C213.858 117.089 214.004 116.728 214.295 116.437C214.587 116.146 214.948 116 215.378 116C215.794 116 216.148 116.146 216.439 116.437C216.73 116.728 216.876 117.089 216.876 117.519C216.876 117.949 216.73 118.31 216.439 118.601C216.148 118.893 215.794 119.039 215.378 119.039ZM216.543 120.558V132.025H214.171V120.558H216.543Z" fill="black"/>
<path d="M211.056 116.625V132.025H208.683V116.625H211.056Z" fill="black"/>
<path d="M193.788 126.24C193.788 125.088 194.023 124.069 194.495 123.181C194.981 122.293 195.633 121.606 196.451 121.12C197.284 120.621 198.2 120.371 199.199 120.371C200.1 120.371 200.884 120.551 201.55 120.912C202.23 121.259 202.771 121.696 203.174 122.223V120.558H205.567V132.026H203.174V130.319C202.771 130.86 202.223 131.311 201.53 131.672C200.836 132.033 200.045 132.213 199.157 132.213C198.172 132.213 197.27 131.963 196.451 131.464C195.633 130.95 194.981 130.243 194.495 129.341C194.023 128.425 193.788 127.392 193.788 126.24ZM203.174 126.282C203.174 125.491 203.007 124.804 202.674 124.221C202.355 123.639 201.932 123.195 201.405 122.889C200.877 122.584 200.309 122.431 199.698 122.431C199.088 122.431 198.519 122.584 197.992 122.889C197.464 123.181 197.034 123.618 196.701 124.2C196.382 124.769 196.223 125.449 196.223 126.24C196.223 127.031 196.382 127.725 196.701 128.321C197.034 128.918 197.464 129.376 197.992 129.695C198.533 130 199.102 130.153 199.698 130.153C200.309 130.153 200.877 130 201.405 129.695C201.932 129.389 202.355 128.946 202.674 128.363C203.007 127.766 203.174 127.072 203.174 126.282Z" fill="black"/>
<path d="M189.603 122.493V128.841C189.603 129.271 189.7 129.583 189.894 129.777C190.102 129.958 190.449 130.048 190.934 130.048H192.391V132.025H190.518C189.45 132.025 188.631 131.775 188.062 131.276C187.494 130.776 187.209 129.965 187.209 128.841V122.493H185.856V120.558H187.209V117.707H189.603V120.558H192.391V122.493H189.603Z" fill="black"/>
<path d="M182.555 119.039C182.125 119.039 181.764 118.893 181.473 118.601C181.181 118.31 181.036 117.949 181.036 117.519C181.036 117.089 181.181 116.728 181.473 116.437C181.764 116.146 182.125 116 182.555 116C182.971 116 183.325 116.146 183.616 116.437C183.908 116.728 184.053 117.089 184.053 117.519C184.053 117.949 183.908 118.31 183.616 118.601C183.325 118.893 182.971 119.039 182.555 119.039ZM183.72 120.558V132.025H181.348V120.558H183.72Z" fill="black"/>
<path d="M171.863 120.371C172.751 120.371 173.535 120.551 174.214 120.912C174.908 121.259 175.449 121.696 175.838 122.223V120.558H178.231V132.213C178.231 133.267 178.009 134.204 177.565 135.023C177.121 135.855 176.476 136.507 175.63 136.979C174.797 137.451 173.798 137.686 172.633 137.686C171.079 137.686 169.788 137.319 168.762 136.583C167.735 135.862 167.152 134.877 167.014 133.628H169.365C169.546 134.225 169.927 134.703 170.51 135.064C171.107 135.439 171.814 135.626 172.633 135.626C173.59 135.626 174.36 135.335 174.943 134.752C175.539 134.169 175.838 133.323 175.838 132.213V130.298C175.435 130.839 174.887 131.297 174.194 131.672C173.514 132.033 172.737 132.213 171.863 132.213C170.864 132.213 169.948 131.963 169.116 131.464C168.297 130.95 167.645 130.243 167.159 129.341C166.688 128.425 166.452 127.392 166.452 126.24C166.452 125.088 166.688 124.069 167.159 123.181C167.645 122.293 168.297 121.606 169.116 121.12C169.948 120.621 170.864 120.371 171.863 120.371ZM175.838 126.282C175.838 125.491 175.671 124.804 175.338 124.221C175.019 123.639 174.596 123.195 174.069 122.889C173.542 122.584 172.973 122.431 172.362 122.431C171.752 122.431 171.183 122.584 170.656 122.889C170.128 123.181 169.698 123.618 169.365 124.2C169.046 124.769 168.887 125.449 168.887 126.24C168.887 127.031 169.046 127.725 169.365 128.321C169.698 128.918 170.128 129.376 170.656 129.695C171.197 130 171.766 130.153 172.362 130.153C172.973 130.153 173.542 130 174.069 129.695C174.596 129.389 175.019 128.946 175.338 128.363C175.671 127.766 175.838 127.072 175.838 126.282Z" fill="black"/>
<path d="M162.963 119.039C162.533 119.039 162.172 118.893 161.88 118.601C161.589 118.31 161.443 117.949 161.443 117.519C161.443 117.089 161.589 116.728 161.88 116.437C162.172 116.146 162.533 116 162.963 116C163.379 116 163.733 116.146 164.024 116.437C164.315 116.728 164.461 117.089 164.461 117.519C164.461 117.949 164.315 118.31 164.024 118.601C163.733 118.893 163.379 119.039 162.963 119.039ZM164.128 120.558V132.025H161.756V120.558H164.128Z" fill="black"/>
<path d="M151.724 117.561C153.264 117.561 154.61 117.859 155.762 118.456C156.927 119.039 157.822 119.885 158.446 120.995C159.085 122.091 159.404 123.374 159.404 124.845C159.404 126.316 159.085 127.592 158.446 128.674C157.822 129.757 156.927 130.589 155.762 131.172C154.61 131.741 153.264 132.025 151.724 132.025H147V117.561H151.724ZM151.724 130.09C153.417 130.09 154.714 129.632 155.616 128.716C156.518 127.8 156.969 126.51 156.969 124.845C156.969 123.166 156.518 121.855 155.616 120.912C154.714 119.968 153.417 119.497 151.724 119.497H149.373V130.09H151.724Z" fill="black"/>
</svg>
