<svg width="125" height="78" viewBox="0 0 125 78" fill="none" xmlns="http://www.w3.org/2000/svg">
<g opacity="0.3">
<mask id="mask0_3537_77741" style="mask-type:alpha" maskUnits="userSpaceOnUse" x="0" y="0" width="125" height="78">
<path d="M0 0H125V70C125 74.4183 121.418 78 117 78H0V0Z" fill="#D9D9D9"/>
</mask>
<g mask="url(#mask0_3537_77741)">
<path opacity="0.3" d="M105.661 44.4617C113.805 44.4617 120.406 37.8258 120.406 29.6399C120.406 21.4541 113.805 14.8182 105.661 14.8182C97.518 14.8182 90.9165 21.4541 90.9165 29.6399C90.9165 37.8258 97.518 44.4617 105.661 44.4617Z" fill="#1D4ED8"/>
<path opacity="0.3" d="M30.782 44.4617C38.9254 44.4617 45.5269 37.8258 45.5269 29.6399C45.5269 21.4541 38.9254 14.8182 30.782 14.8182C22.6386 14.8182 16.0371 21.4541 16.0371 29.6399C16.0371 37.8258 22.6386 44.4617 30.782 44.4617Z" fill="#1D4ED8"/>
<path d="M34.8244 58.4357C34.4987 58.9001 34.1806 59.372 33.8701 59.8516C29.5889 66.4926 27.316 74.2393 27.3269 82.1527L68.2787 93.0009L109.117 82.1527C109.125 74.28 106.873 66.5722 102.631 59.9544C102.32 59.4748 102.002 59.0028 101.676 58.5385C97.8994 53.166 92.8951 48.7832 87.0835 45.7581C81.272 42.7331 74.8232 41.1543 68.2787 41.1543C61.7343 41.1543 55.2854 42.7331 49.4739 45.7581C43.6624 48.7832 38.658 53.166 34.8812 58.5385L34.8244 58.4357Z" fill="#1D4ED8"/>
<path opacity="0.3" d="M29.0547 44.4609C32.3253 44.4628 36.6278 45.4581 40.1067 46.6238C30.8296 50.1208 20.2982 66.4384 21.5525 80.4285L-0.48061 74.15C-0.48061 66.276 2.63113 58.7245 8.17007 53.1567C13.709 47.5889 21.2214 44.4609 29.0547 44.4609Z" fill="#1D4ED8"/>
<path d="M68.222 41.0395C79.496 41.0395 88.6354 31.8525 88.6354 20.5197C88.6354 9.187 79.496 0 68.222 0C56.948 0 47.8086 9.187 47.8086 20.5197C47.8086 31.8525 56.948 41.0395 68.222 41.0395Z" fill="#1D4ED8"/>
<path opacity="0.3" d="M105.662 44.4609C102.391 44.4628 98.0888 45.4581 94.6099 46.6238C103.887 50.1208 114.418 66.4384 113.164 80.4285L135.197 74.15C135.197 66.276 132.085 58.7245 126.546 53.1567C121.008 47.5889 113.495 44.4609 105.662 44.4609Z" fill="#1D4ED8"/>
</g>
</g>
</svg>
