<svg width="28" height="28" viewBox="0 0 28 28" fill="none" xmlns="http://www.w3.org/2000/svg">
<rect width="28" height="28" rx="6" fill="#96DEB5"/>
<path d="M12.456 17.3287C12.2547 17.1547 12.0927 16.9447 12 16.6667V15.3333C12.2553 15.2073 12.9087 14.4507 13.156 13.7367C12.9467 13.4047 12.7827 12.9867 12.7133 12.4433C12.656 11.992 12.724 11.5993 12.862 11.2733C12.7587 10.914 12.6667 10.464 12.6667 10C12.6667 9.076 12.858 8.23 13.1993 7.49533C12.8913 7.186 12.4953 7 12 7C12 7 11.7507 6 10.3333 6C8.008 6 6.66667 7.814 6.66667 10C6.66667 10.736 7.01867 11.476 7.01867 11.476C6.87733 11.5573 6.644 11.816 6.70267 12.2747C6.812 13.13 7.18267 13.3467 7.41867 13.3647C7.50867 14.1633 8.36667 15.1847 8.66667 15.3333V16.6667C8 18.6667 4 17.3333 4 22H10C10 19.216 11.2427 17.9933 12.456 17.3287Z" fill="#B8E9CD"/>
<path d="M19.3333 16.668V15.3346C19.6333 15.186 20.4913 14.1646 20.5813 13.3666C20.8173 13.3486 21.1879 13.132 21.2973 12.2766C21.3559 11.8173 21.1226 11.5593 20.9813 11.478C20.9813 11.478 21.3333 10.8093 21.3333 10.002C21.3333 8.38329 20.6979 7.00195 19.3333 7.00195C19.3333 7.00195 19.0839 6.00195 17.6666 6.00195C15.3413 6.00129 13.9999 7.81529 13.9999 10.0013C13.9999 10.7373 14.3519 11.4773 14.3519 11.4773C14.2106 11.5586 13.9773 11.8173 14.0359 12.276C14.1453 13.1313 14.5159 13.348 14.7519 13.366C14.8419 14.1646 15.6999 15.186 15.9999 15.3346V16.668C15.3333 18.668 11.3333 17.3346 11.3333 22.0013H23.9999C23.9999 17.3346 19.9999 18.668 19.3333 16.668Z" fill="#1AB75E"/>
</svg>
