<svg width="28" height="28" viewBox="0 0 28 28" fill="none" xmlns="http://www.w3.org/2000/svg">
<rect width="28" height="28" rx="6" fill="#9FB5EE"/>
<path d="M4 21.9993C4 18.666 7.33333 19.3327 8 17.528V16.678C5.586 16.678 4.916 15.684 4.916 15.684C6.17733 14.6347 3.792 7.33268 8.08667 7.33268C8.08667 7.33268 8.66667 6.66602 9.416 6.66602C13.7996 6.66602 12.8721 12.1922 13.2364 14.666C13.3085 15.1554 13 15.3327 13 15.3327C13 15.3327 12.6667 15.3327 13.0624 16.1939C12.6175 16.4323 11.8721 16.6693 10.6667 16.6693V17.528C11.0516 18.5699 11.992 18.6929 13 19.3327C12.3333 19.9993 12.0995 20.666 12.0995 21.9993H4Z" fill="#BFCDF3"/>
<path d="M13.3333 21.9993C13.3333 18.666 16.6666 19.3327 17.3333 17.528V16.678C14.9193 16.678 14.2493 15.684 14.2493 15.684C15.5106 14.6347 13.1253 7.33268 17.4199 7.33268C17.4199 7.33268 17.9999 6.66602 18.7493 6.66602C23.9999 6.66602 21.6306 14.5947 22.9886 15.7093C22.9886 15.7093 22.4259 16.6693 19.9999 16.6693V17.528C20.6666 19.3327 23.9999 18.666 23.9999 21.9993H13.3333Z" fill="#2F5ED9"/>
</svg>
