<svg width="17" height="16" viewBox="0 0 17 16" fill="none" xmlns="http://www.w3.org/2000/svg">
<path d="M7.57992 12.973H3.83325C3.71538 12.973 3.60233 12.9262 3.51898 12.8428C3.43563 12.7595 3.38881 12.6464 3.38881 12.5286C3.38881 12.4107 3.43563 12.2976 3.51898 12.2143C3.60233 12.1309 3.71538 12.0841 3.83325 12.0841H7.27325C7.20148 11.7647 7.16571 11.4382 7.16658 11.1108C7.16589 10.7388 7.2137 10.3682 7.30881 10.0086H3.83325C3.71538 10.0086 3.60233 9.96174 3.51898 9.87839C3.43563 9.79504 3.38881 9.68199 3.38881 9.56412C3.38881 9.44624 3.43563 9.3332 3.51898 9.24985C3.60233 9.1665 3.71538 9.11967 3.83325 9.11967H7.64214C8.10805 8.19342 8.88314 7.45921 9.83325 7.04412H3.83325C3.71538 7.04412 3.60233 6.99729 3.51898 6.91394C3.43563 6.83059 3.38881 6.71755 3.38881 6.59967C3.38881 6.4818 3.43563 6.36875 3.51898 6.2854C3.60233 6.20205 3.71538 6.15523 3.83325 6.15523H10.0555C10.1733 6.15523 10.2864 6.20205 10.3697 6.2854C10.4531 6.36875 10.4999 6.4818 10.4999 6.59967C10.4999 6.67944 10.4784 6.75774 10.4377 6.82634C10.8195 6.71884 11.2144 6.66499 11.611 6.66634C11.7621 6.66634 11.9088 6.66634 12.0555 6.68856V2.66634C12.0555 2.31272 11.915 1.97358 11.6649 1.72353C11.4149 1.47348 11.0758 1.33301 10.7221 1.33301H3.16659C2.81296 1.33301 2.47382 1.47348 2.22378 1.72353C1.97373 1.97358 1.83325 2.31272 1.83325 2.66634V13.333C1.83325 13.6866 1.97373 14.0258 2.22378 14.2758C2.47382 14.5259 2.81296 14.6663 3.16659 14.6663H8.94436C8.35634 14.2236 7.8875 13.6417 7.57992 12.973ZM3.83325 3.19523H10.0555C10.1733 3.19523 10.2864 3.24205 10.3697 3.3254C10.4531 3.40875 10.4999 3.5218 10.4999 3.63967C10.4999 3.75755 10.4531 3.87059 10.3697 3.95394C10.2864 4.03729 10.1733 4.08412 10.0555 4.08412H3.83325C3.71538 4.08412 3.60233 4.03729 3.51898 3.95394C3.43563 3.87059 3.38881 3.75755 3.38881 3.63967C3.38881 3.5218 3.43563 3.40875 3.51898 3.3254C3.60233 3.24205 3.71538 3.19523 3.83325 3.19523Z" fill="white"/>
<path d="M11.6112 7.55566C10.908 7.55566 10.2206 7.76419 9.63586 8.15488C9.05115 8.54557 8.59543 9.10087 8.32632 9.75057C8.0572 10.4003 7.98679 11.1152 8.12398 11.8049C8.26118 12.4946 8.59981 13.1281 9.09706 13.6254C9.59432 14.1226 10.2279 14.4613 10.9176 14.5985C11.6073 14.7356 12.3222 14.6652 12.9719 14.3961C13.6216 14.127 14.1769 13.6713 14.5676 13.0866C14.9582 12.5019 15.1668 11.8144 15.1668 11.1112C15.1668 10.1682 14.7922 9.26386 14.1254 8.59706C13.4586 7.93027 12.5542 7.55566 11.6112 7.55566ZM13.0157 10.7779L11.4779 12.1112C11.398 12.1817 11.2955 12.2211 11.189 12.2223C11.081 12.2222 10.9767 12.1827 10.8957 12.1112L10.2068 11.5157C10.1627 11.4771 10.1267 11.4303 10.1007 11.3779C10.0747 11.3254 10.0593 11.2684 10.0554 11.21C10.0515 11.1516 10.0591 11.093 10.0778 11.0375C10.0966 10.9821 10.126 10.9308 10.1646 10.8868C10.2031 10.8427 10.2499 10.8067 10.3024 10.7807C10.3548 10.7547 10.4119 10.7393 10.4703 10.7354C10.5287 10.7315 10.5873 10.7391 10.6427 10.7578C10.6982 10.7766 10.7494 10.806 10.7934 10.8446L11.189 11.1868L12.429 10.1112C12.4723 10.0697 12.5235 10.0373 12.5796 10.0161C12.6357 9.99483 12.6956 9.98519 12.7555 9.9877C12.8155 9.99022 12.8743 10.0048 12.9284 10.0307C12.9825 10.0566 13.0309 10.0931 13.0705 10.1381C13.1102 10.1832 13.1403 10.2358 13.159 10.2928C13.1778 10.3498 13.1848 10.41 13.1797 10.4697C13.1746 10.5295 13.1574 10.5876 13.1292 10.6406C13.101 10.6935 13.0624 10.7403 13.0157 10.7779Z" fill="white"/>
</svg>
