<svg width="24" height="24" viewBox="0 0 24 24" fill="none" xmlns="http://www.w3.org/2000/svg">
<path fill-rule="evenodd" clip-rule="evenodd" d="M16.2954 9.60598L11.7274 15.606C11.5394 15.853 11.2484 15.999 10.9384 16.001H10.9314C10.6244 16.001 10.3344 15.859 10.1444 15.617L7.71237 12.51C7.37237 12.076 7.44837 11.447 7.88337 11.107C8.31737 10.766 8.94737 10.842 9.28737 11.278L10.9204 13.364L14.7044 8.39498C15.0384 7.95598 15.6654 7.86998 16.1064 8.20498C16.5454 8.53998 16.6304 9.16698 16.2954 9.60598ZM12.0004 2.00098C6.47737 2.00098 2.00037 6.47798 2.00037 12.001C2.00037 17.523 6.47737 22.001 12.0004 22.001C17.5234 22.001 22.0004 17.523 22.0004 12.001C22.0004 6.47798 17.5234 2.00098 12.0004 2.00098Z" fill="white"/>
<mask id="mask0_2467_19194" style="mask-type:luminance" maskUnits="userSpaceOnUse" x="2" y="2" width="21" height="21">
<path fill-rule="evenodd" clip-rule="evenodd" d="M16.2954 9.60598L11.7274 15.606C11.5394 15.853 11.2484 15.999 10.9384 16.001H10.9314C10.6244 16.001 10.3344 15.859 10.1444 15.617L7.71237 12.51C7.37237 12.076 7.44837 11.447 7.88337 11.107C8.31737 10.766 8.94737 10.842 9.28737 11.278L10.9204 13.364L14.7044 8.39498C15.0384 7.95598 15.6654 7.86998 16.1064 8.20498C16.5454 8.53998 16.6304 9.16698 16.2954 9.60598ZM12.0004 2.00098C6.47737 2.00098 2.00037 6.47798 2.00037 12.001C2.00037 17.523 6.47737 22.001 12.0004 22.001C17.5234 22.001 22.0004 17.523 22.0004 12.001C22.0004 6.47798 17.5234 2.00098 12.0004 2.00098Z" fill="white"/>
</mask>
<g mask="url(#mask0_2467_19194)">
<rect width="24" height="24" fill="white"/>
</g>
</svg>
