<svg width="77" height="77" viewBox="0 0 77 77" fill="none" xmlns="http://www.w3.org/2000/svg">
<path fill-rule="evenodd" clip-rule="evenodd" d="M70.0892 37.946C70.1576 38.1642 70.2261 38.3827 70.2715 38.6097C70.4704 39.6139 70.5827 40.647 70.5827 41.709C70.5827 42.6972 70.4672 43.6693 70.2875 44.6286C70.2478 44.8472 70.1943 45.0568 70.1408 45.2666C70.1166 45.3616 70.0923 45.4566 70.0694 45.5526C69.9089 46.191 69.7196 46.8167 69.4854 47.4294C69.3635 47.7471 69.2384 48.0583 69.0972 48.3663C68.8181 48.9759 68.4941 49.5598 68.1379 50.1341C68.0826 50.2231 68.03 50.3135 67.9773 50.4039C67.8896 50.5545 67.8019 50.7052 67.7016 50.8495C67.6723 50.8912 67.6474 50.9343 67.6228 50.9771C67.5961 51.0234 67.5696 51.0693 67.538 51.1126C67.5132 51.148 67.4787 51.1707 67.4446 51.1931C67.4169 51.2113 67.3895 51.2293 67.3679 51.2538C64.4419 55.1744 59.8091 57.7507 54.541 57.7507H44.916V53.6857C45.8817 54.2439 46.979 54.5423 48.1244 54.5423C49.8376 54.5423 51.4482 53.875 52.6609 52.6622C55.1634 50.1629 55.1634 46.0884 52.6609 43.5891L43.0359 33.9641C41.8296 32.7545 40.219 32.0872 38.5058 32.0872C36.8406 32.0872 35.2589 32.7192 34.0526 33.871L24.418 43.1752C21.8738 45.6328 21.8032 49.7042 24.2608 52.2484C25.4671 53.4964 27.1483 54.2119 28.8808 54.2119C30.0197 54.2119 31.117 53.9135 32.0827 53.3552V57.7507H22.4577C17.1896 57.7507 12.5568 55.1744 9.63397 51.2538C9.61149 51.2299 9.58408 51.2122 9.5566 51.1944C9.52134 51.1716 9.48597 51.1487 9.46072 51.1126C9.42679 51.0662 9.39883 51.0168 9.37074 50.9671C9.34836 50.9276 9.32591 50.8879 9.30031 50.8495C9.19791 50.7021 9.10727 50.5481 9.01672 50.3942C8.96541 50.3071 8.91414 50.2199 8.86077 50.1341C8.50785 49.5598 8.1806 48.9759 7.90147 48.3663C7.76483 48.0682 7.64623 47.767 7.52529 47.46L7.51327 47.4294C7.28227 46.8167 7.08977 46.191 6.93256 45.5526C6.91226 45.4714 6.89129 45.3908 6.87036 45.3105C6.81189 45.0859 6.75371 44.8625 6.71118 44.6286C6.53472 43.6693 6.41602 42.6972 6.41602 41.709C6.41602 40.647 6.53152 39.6139 6.72722 38.6097C6.77398 38.3759 6.84522 38.1512 6.91644 37.9264C6.95761 37.7965 6.99879 37.6666 7.03522 37.5349C7.04863 37.4857 7.062 37.4364 7.07537 37.3871C7.22832 36.8233 7.3813 36.2595 7.59668 35.7254C7.71289 35.4349 7.85557 35.1631 7.99868 34.8904C8.06102 34.7716 8.12345 34.6527 8.18381 34.5319C8.20434 34.4911 8.2248 34.4504 8.24524 34.4097C8.47071 33.9607 8.6928 33.5185 8.96343 33.0978C9.16804 32.7741 9.39982 32.4754 9.63178 32.1765C9.68716 32.1052 9.74256 32.0338 9.7976 31.9621L9.80894 31.9475C10.1195 31.5482 10.4274 31.1523 10.7729 30.7814C11.0825 30.4476 11.4149 30.1482 11.7514 29.8453C11.7707 29.828 11.7899 29.8106 11.8092 29.7932C12.1878 29.4532 12.5728 29.1259 12.9835 28.8243C13.3653 28.542 13.7567 28.2853 14.1641 28.0415C14.6133 27.7656 15.0721 27.5185 15.5469 27.2907C15.964 27.0886 16.3811 26.9057 16.8174 26.7421C17.3372 26.5432 17.873 26.386 18.4184 26.2448C18.8515 26.1293 19.275 26.017 19.7242 25.9432C19.809 25.9277 19.8912 25.9053 19.9735 25.8829C20.078 25.8545 20.1825 25.8261 20.2921 25.8117C22.9261 18.163 30.2218 12.834 38.4994 12.834C46.7801 12.834 54.0758 18.163 56.7066 25.8117C56.8164 25.8261 56.9221 25.8546 57.0278 25.8831C57.1105 25.9054 57.1932 25.9277 57.2777 25.9432C57.7237 26.017 58.1504 26.1293 58.5803 26.2448C59.1257 26.386 59.6615 26.5432 60.1813 26.7421C60.6176 26.9057 61.0379 27.0886 61.4518 27.2907C61.9266 27.5185 62.3854 27.7656 62.8346 28.0415C63.242 28.2853 63.6366 28.542 64.0184 28.8243C64.4259 29.1259 64.8109 29.4532 65.1895 29.7932C65.5488 30.1141 65.8985 30.4285 66.229 30.7814C66.5787 31.1568 66.8899 31.5578 67.2011 31.9621C67.2418 32.0145 67.2826 32.0668 67.3233 32.119C67.5715 32.4372 67.818 32.7533 68.0385 33.0978C68.3051 33.5168 68.5263 33.9572 68.7508 34.4044C68.7721 34.4469 68.7935 34.4894 68.8149 34.5319C68.8752 34.6527 68.9377 34.7716 69 34.8904C69.1431 35.1631 69.2858 35.4349 69.402 35.7254C69.621 36.2611 69.7745 36.8268 69.9279 37.3922C69.9408 37.4398 69.9537 37.4874 69.9667 37.5349C70.0037 37.6732 70.0464 37.8095 70.0892 37.946ZM36.2702 36.19C37.5343 34.9837 39.5331 34.9933 40.7683 36.2317L50.3933 45.8567C51.6477 47.1112 51.6477 49.1388 50.3933 50.3933C49.7677 51.0189 48.9463 51.3333 48.125 51.3333C47.3037 51.3333 46.4823 51.0189 45.8567 50.3933L41.7083 46.2449V64.1667C41.7083 65.9409 40.271 67.375 38.5 67.375C36.729 67.375 35.2917 65.9409 35.2917 64.1667V46.0588L31.1048 50.1013C29.8311 51.3366 27.8002 51.2948 26.5682 50.0211C25.3362 48.7442 25.3715 46.7166 26.6452 45.4846L36.2702 36.19Z" fill="#2E3A59"/>
<mask id="mask0_1093_43545" style="mask-type:luminance" maskUnits="userSpaceOnUse" x="6" y="12" width="65" height="56">
<path fill-rule="evenodd" clip-rule="evenodd" d="M70.0892 37.946C70.1576 38.1642 70.2261 38.3827 70.2715 38.6097C70.4704 39.6139 70.5827 40.647 70.5827 41.709C70.5827 42.6972 70.4672 43.6693 70.2875 44.6286C70.2478 44.8472 70.1943 45.0568 70.1408 45.2666C70.1166 45.3616 70.0923 45.4566 70.0694 45.5526C69.9089 46.191 69.7196 46.8167 69.4854 47.4294C69.3635 47.7471 69.2384 48.0583 69.0972 48.3663C68.8181 48.9759 68.4941 49.5598 68.1379 50.1341C68.0826 50.2231 68.03 50.3135 67.9773 50.4039C67.8896 50.5545 67.8019 50.7052 67.7016 50.8495C67.6723 50.8912 67.6474 50.9343 67.6228 50.9771C67.5961 51.0234 67.5696 51.0693 67.538 51.1126C67.5132 51.148 67.4787 51.1707 67.4446 51.1931C67.4169 51.2113 67.3895 51.2293 67.3679 51.2538C64.4419 55.1744 59.8091 57.7507 54.541 57.7507H44.916V53.6857C45.8817 54.2439 46.979 54.5423 48.1244 54.5423C49.8376 54.5423 51.4482 53.875 52.6609 52.6622C55.1634 50.1629 55.1634 46.0884 52.6609 43.5891L43.0359 33.9641C41.8296 32.7545 40.219 32.0872 38.5058 32.0872C36.8406 32.0872 35.2589 32.7192 34.0526 33.871L24.418 43.1752C21.8738 45.6328 21.8032 49.7042 24.2608 52.2484C25.4671 53.4964 27.1483 54.2119 28.8808 54.2119C30.0197 54.2119 31.117 53.9135 32.0827 53.3552V57.7507H22.4577C17.1896 57.7507 12.5568 55.1744 9.63397 51.2538C9.61149 51.2299 9.58408 51.2122 9.5566 51.1944C9.52134 51.1716 9.48597 51.1487 9.46072 51.1126C9.42679 51.0662 9.39883 51.0168 9.37074 50.9671C9.34836 50.9276 9.32591 50.8879 9.30031 50.8495C9.19791 50.7021 9.10727 50.5481 9.01672 50.3942C8.96541 50.3071 8.91414 50.2199 8.86077 50.1341C8.50785 49.5598 8.1806 48.9759 7.90147 48.3663C7.76483 48.0682 7.64623 47.767 7.52529 47.46L7.51327 47.4294C7.28227 46.8167 7.08977 46.191 6.93256 45.5526C6.91226 45.4714 6.89129 45.3908 6.87036 45.3105C6.81189 45.0859 6.75371 44.8625 6.71118 44.6286C6.53472 43.6693 6.41602 42.6972 6.41602 41.709C6.41602 40.647 6.53152 39.6139 6.72722 38.6097C6.77398 38.3759 6.84522 38.1512 6.91644 37.9264C6.95761 37.7965 6.99879 37.6666 7.03522 37.5349C7.04863 37.4857 7.062 37.4364 7.07537 37.3871C7.22832 36.8233 7.3813 36.2595 7.59668 35.7254C7.71289 35.4349 7.85557 35.1631 7.99868 34.8904C8.06102 34.7716 8.12345 34.6527 8.18381 34.5319C8.20434 34.4911 8.2248 34.4504 8.24524 34.4097C8.47071 33.9607 8.6928 33.5185 8.96343 33.0978C9.16804 32.7741 9.39982 32.4754 9.63178 32.1765C9.68716 32.1052 9.74256 32.0338 9.7976 31.9621L9.80894 31.9475C10.1195 31.5482 10.4274 31.1523 10.7729 30.7814C11.0825 30.4476 11.4149 30.1482 11.7514 29.8453C11.7707 29.828 11.7899 29.8106 11.8092 29.7932C12.1878 29.4532 12.5728 29.1259 12.9835 28.8243C13.3653 28.542 13.7567 28.2853 14.1641 28.0415C14.6133 27.7656 15.0721 27.5185 15.5469 27.2907C15.964 27.0886 16.3811 26.9057 16.8174 26.7421C17.3372 26.5432 17.873 26.386 18.4184 26.2448C18.8515 26.1293 19.275 26.017 19.7242 25.9432C19.809 25.9277 19.8912 25.9053 19.9735 25.8829C20.078 25.8545 20.1825 25.8261 20.2921 25.8117C22.9261 18.163 30.2218 12.834 38.4994 12.834C46.7801 12.834 54.0758 18.163 56.7066 25.8117C56.8164 25.8261 56.9221 25.8546 57.0278 25.8831C57.1105 25.9054 57.1932 25.9277 57.2777 25.9432C57.7237 26.017 58.1504 26.1293 58.5803 26.2448C59.1257 26.386 59.6615 26.5432 60.1813 26.7421C60.6176 26.9057 61.0379 27.0886 61.4518 27.2907C61.9266 27.5185 62.3854 27.7656 62.8346 28.0415C63.242 28.2853 63.6366 28.542 64.0184 28.8243C64.4259 29.1259 64.8109 29.4532 65.1895 29.7932C65.5488 30.1141 65.8985 30.4285 66.229 30.7814C66.5787 31.1568 66.8899 31.5578 67.2011 31.9621C67.2418 32.0145 67.2826 32.0668 67.3233 32.119C67.5715 32.4372 67.818 32.7533 68.0385 33.0978C68.3051 33.5168 68.5263 33.9572 68.7508 34.4044C68.7721 34.4469 68.7935 34.4894 68.8149 34.5319C68.8752 34.6527 68.9377 34.7716 69 34.8904C69.1431 35.1631 69.2858 35.4349 69.402 35.7254C69.621 36.2611 69.7745 36.8268 69.9279 37.3922C69.9408 37.4398 69.9537 37.4874 69.9667 37.5349C70.0037 37.6732 70.0464 37.8095 70.0892 37.946ZM36.2702 36.19C37.5343 34.9837 39.5331 34.9933 40.7683 36.2317L50.3933 45.8567C51.6477 47.1112 51.6477 49.1388 50.3933 50.3933C49.7677 51.0189 48.9463 51.3333 48.125 51.3333C47.3037 51.3333 46.4823 51.0189 45.8567 50.3933L41.7083 46.2449V64.1667C41.7083 65.9409 40.271 67.375 38.5 67.375C36.729 67.375 35.2917 65.9409 35.2917 64.1667V46.0588L31.1048 50.1013C29.8311 51.3366 27.8002 51.2948 26.5682 50.0211C25.3362 48.7442 25.3715 46.7166 26.6452 45.4846L36.2702 36.19Z" fill="white"/>
</mask>
<g mask="url(#mask0_1093_43545)">
<rect width="77" height="77" fill="#8F9BB3"/>
</g>
</svg>
