<svg width="16" height="16" viewBox="0 0 16 16" fill="none" xmlns="http://www.w3.org/2000/svg">
<path d="M9.14917 1.33337H4.44428C3.97279 1.33337 3.5206 1.50897 3.1872 1.82153C2.8538 2.13409 2.6665 2.55801 2.6665 3.00004V13C2.6665 13.4421 2.8538 13.866 3.1872 14.1786C3.5206 14.4911 3.97279 14.6667 4.44428 14.6667H11.5554C12.0269 14.6667 12.4791 14.4911 12.8125 14.1786C13.1459 13.866 13.3332 13.4421 13.3332 13V5.25587C13.3331 5.03488 13.2394 4.82295 13.0727 4.66671L9.77761 1.57754C9.61095 1.42125 9.3849 1.33342 9.14917 1.33337ZM9.33317 4.25004V2.58337L11.9998 5.08337H10.2221C9.98631 5.08337 9.76022 4.99558 9.59352 4.8393C9.42682 4.68302 9.33317 4.47105 9.33317 4.25004ZM6.11895 6.90004L7.99984 9.01587L9.88073 6.89921C9.95628 6.81434 10.0647 6.76108 10.1821 6.75116C10.2996 6.74124 10.4164 6.77546 10.5069 6.84629C10.5975 6.91713 10.6543 7.01877 10.6649 7.12887C10.6755 7.23897 10.6389 7.34851 10.5634 7.43337L8.5785 9.66671L10.5634 11.9C10.6355 11.9853 10.6692 12.0935 10.6573 12.2017C10.6454 12.3099 10.5889 12.4095 10.4998 12.4791C10.4106 12.5488 10.296 12.583 10.1803 12.5744C10.0646 12.5659 9.95712 12.5152 9.88073 12.4334L7.99984 10.3175L6.11895 12.4342C6.04339 12.5191 5.93497 12.5723 5.81753 12.5823C5.70009 12.5922 5.58325 12.558 5.49273 12.4871C5.4022 12.4163 5.34539 12.3146 5.33481 12.2045C5.32422 12.0944 5.36072 11.9849 5.43628 11.9L7.42117 9.66671L5.43628 7.43337C5.39726 7.39156 5.36755 7.34285 5.34891 7.29011C5.33027 7.23737 5.32306 7.18167 5.32772 7.12628C5.33237 7.0709 5.3488 7.01694 5.37603 6.96759C5.40325 6.91825 5.44073 6.8745 5.48626 6.83893C5.53179 6.80337 5.58444 6.77669 5.64113 6.76048C5.69781 6.74428 5.75738 6.73886 5.81633 6.74455C5.87528 6.75025 5.93243 6.76694 5.98439 6.79364C6.03636 6.82034 6.08211 6.85652 6.11895 6.90004Z" fill="white"/>
<mask id="mask0_3172_82324" style="mask-type:luminance" maskUnits="userSpaceOnUse" x="2" y="1" width="12" height="14">
<path d="M9.14917 1.33337H4.44428C3.97279 1.33337 3.5206 1.50897 3.1872 1.82153C2.8538 2.13409 2.6665 2.55801 2.6665 3.00004V13C2.6665 13.4421 2.8538 13.866 3.1872 14.1786C3.5206 14.4911 3.97279 14.6667 4.44428 14.6667H11.5554C12.0269 14.6667 12.4791 14.4911 12.8125 14.1786C13.1459 13.866 13.3332 13.4421 13.3332 13V5.25587C13.3331 5.03488 13.2394 4.82295 13.0727 4.66671L9.77761 1.57754C9.61095 1.42125 9.3849 1.33342 9.14917 1.33337ZM9.33317 4.25004V2.58337L11.9998 5.08337H10.2221C9.98631 5.08337 9.76022 4.99558 9.59352 4.8393C9.42682 4.68302 9.33317 4.47105 9.33317 4.25004ZM6.11895 6.90004L7.99984 9.01587L9.88073 6.89921C9.95628 6.81434 10.0647 6.76108 10.1821 6.75116C10.2996 6.74124 10.4164 6.77546 10.5069 6.84629C10.5975 6.91713 10.6543 7.01877 10.6649 7.12887C10.6755 7.23897 10.6389 7.34851 10.5634 7.43337L8.5785 9.66671L10.5634 11.9C10.6355 11.9853 10.6692 12.0935 10.6573 12.2017C10.6454 12.3099 10.5889 12.4095 10.4998 12.4791C10.4106 12.5488 10.296 12.583 10.1803 12.5744C10.0646 12.5659 9.95712 12.5152 9.88073 12.4334L7.99984 10.3175L6.11895 12.4342C6.04339 12.5191 5.93497 12.5723 5.81753 12.5823C5.70009 12.5922 5.58325 12.558 5.49273 12.4871C5.4022 12.4163 5.34539 12.3146 5.33481 12.2045C5.32422 12.0944 5.36072 11.9849 5.43628 11.9L7.42117 9.66671L5.43628 7.43337C5.39726 7.39156 5.36755 7.34285 5.34891 7.29011C5.33027 7.23737 5.32306 7.18167 5.32772 7.12628C5.33237 7.0709 5.3488 7.01694 5.37603 6.96759C5.40325 6.91825 5.44073 6.8745 5.48626 6.83893C5.53179 6.80337 5.58444 6.77669 5.64113 6.76048C5.69781 6.74428 5.75738 6.73886 5.81633 6.74455C5.87528 6.75025 5.93243 6.76694 5.98439 6.79364C6.03636 6.82034 6.08211 6.85652 6.11895 6.90004Z" fill="white"/>
</mask>
<g mask="url(#mask0_3172_82324)">
<rect width="16" height="16" fill="white"/>
</g>
</svg>
