<svg width="24" height="24" viewBox="0 0 24 24" fill="none" xmlns="http://www.w3.org/2000/svg">
<path fill-rule="evenodd" clip-rule="evenodd" d="M12 10.4996C11.173 10.4996 10.5 11.1726 10.5 11.9996C10.5 12.8266 11.173 13.4996 12 13.4996C12.827 13.4996 13.5 12.8266 13.5 11.9996C13.5 11.1726 12.827 10.4996 12 10.4996ZM12 15.4996C10.07 15.4996 8.5 13.9296 8.5 11.9996C8.5 10.0696 10.07 8.49964 12 8.49964C13.93 8.49964 15.5 10.0696 15.5 11.9996C15.5 13.9296 13.93 15.4996 12 15.4996ZM21.868 11.5016C21.229 10.3896 17.706 4.81564 11.729 5.00264C6.202 5.14364 2.986 10.0136 2.132 11.5016C1.956 11.8106 1.956 12.1886 2.132 12.4976C2.762 13.5946 6.162 18.9996 12.025 18.9996C12.106 18.9996 12.188 18.9986 12.271 18.9966C17.798 18.8556 21.014 13.9856 21.868 12.4976C22.044 12.1886 22.044 11.8106 21.868 11.5016Z" fill="white"/>
<mask id="mask0_2444_16436" style="mask-type:luminance" maskUnits="userSpaceOnUse" x="2" y="4" width="20" height="15">
<path fill-rule="evenodd" clip-rule="evenodd" d="M12 10.4996C11.173 10.4996 10.5 11.1726 10.5 11.9996C10.5 12.8266 11.173 13.4996 12 13.4996C12.827 13.4996 13.5 12.8266 13.5 11.9996C13.5 11.1726 12.827 10.4996 12 10.4996ZM12 15.4996C10.07 15.4996 8.5 13.9296 8.5 11.9996C8.5 10.0696 10.07 8.49964 12 8.49964C13.93 8.49964 15.5 10.0696 15.5 11.9996C15.5 13.9296 13.93 15.4996 12 15.4996ZM21.868 11.5016C21.229 10.3896 17.706 4.81564 11.729 5.00264C6.202 5.14364 2.986 10.0136 2.132 11.5016C1.956 11.8106 1.956 12.1886 2.132 12.4976C2.762 13.5946 6.162 18.9996 12.025 18.9996C12.106 18.9996 12.188 18.9986 12.271 18.9966C17.798 18.8556 21.014 13.9856 21.868 12.4976C22.044 12.1886 22.044 11.8106 21.868 11.5016Z" fill="white"/>
</mask>
<g mask="url(#mask0_2444_16436)">
<rect width="24" height="24" fill="white"/>
</g>
</svg>
