<svg width="16" height="16" viewBox="0 0 16 16" fill="none" xmlns="http://www.w3.org/2000/svg">
<path fill-rule="evenodd" clip-rule="evenodd" d="M3.99984 1.33337H9.33317L13.3332 5.33337V13.3334C13.3332 13.687 13.1927 14.0261 12.9426 14.2762C12.6926 14.5262 12.3535 14.6667 11.9998 14.6667H3.99984C3.64622 14.6667 3.30708 14.5262 3.05703 14.2762C2.80698 14.0261 2.6665 13.687 2.6665 13.3334V2.66671C2.6665 2.31309 2.80698 1.97395 3.05703 1.7239C3.30708 1.47385 3.64622 1.33337 3.99984 1.33337ZM5.46784 11.0734C5.82184 11.0734 6.12584 10.9867 6.33184 10.7934C6.48917 10.6434 6.57584 10.4227 6.5765 10.1614C6.5765 9.90137 6.46184 9.68071 6.2925 9.54604C6.1145 9.40404 5.8505 9.33337 5.47917 9.33337C5.20725 9.32964 4.93547 9.34792 4.6665 9.38804V12.012H5.2625V11.0614C5.33059 11.0701 5.3992 11.0741 5.46784 11.0734ZM7.64317 12.04C8.16384 12.04 8.58984 11.9294 8.86984 11.6967C9.12584 11.48 9.31184 11.1287 9.31184 10.62C9.31184 10.15 9.1385 9.82271 8.86184 9.61737C8.60584 9.42404 8.27784 9.33337 7.77317 9.33337C7.50126 9.33094 7.22957 9.34944 6.9605 9.38871V12C7.1105 12.02 7.33117 12.04 7.64317 12.04ZM10.3118 9.84671H11.3332V9.35337H9.70784V12.0127H10.3118V10.9434H11.2665V10.454H10.3118V9.84671ZM8.6665 6.00004H9.33317H11.9998L8.6665 2.66671V6.00004ZM5.26286 9.81074C5.30552 9.79874 5.38819 9.78674 5.51086 9.78674C5.81086 9.78674 5.98019 9.93341 5.98019 10.1774C5.98019 10.4501 5.78352 10.6114 5.46419 10.6114C5.37686 10.6114 5.31352 10.6081 5.26286 10.5961V9.81074ZM7.56419 9.81874C7.61552 9.80674 7.70219 9.79474 7.83552 9.79474C8.35286 9.79474 8.67619 10.0867 8.67219 10.6401C8.67219 11.2747 8.31752 11.5747 7.77286 11.5707C7.69819 11.5707 7.61552 11.5707 7.56419 11.5587V9.81874Z" fill="white"/>
<mask id="mask0_3172_69229" style="mask-type:luminance" maskUnits="userSpaceOnUse" x="2" y="1" width="12" height="14">
<path fill-rule="evenodd" clip-rule="evenodd" d="M3.99984 1.33337H9.33317L13.3332 5.33337V13.3334C13.3332 13.687 13.1927 14.0261 12.9426 14.2762C12.6926 14.5262 12.3535 14.6667 11.9998 14.6667H3.99984C3.64622 14.6667 3.30708 14.5262 3.05703 14.2762C2.80698 14.0261 2.6665 13.687 2.6665 13.3334V2.66671C2.6665 2.31309 2.80698 1.97395 3.05703 1.7239C3.30708 1.47385 3.64622 1.33337 3.99984 1.33337ZM5.46784 11.0734C5.82184 11.0734 6.12584 10.9867 6.33184 10.7934C6.48917 10.6434 6.57584 10.4227 6.5765 10.1614C6.5765 9.90137 6.46184 9.68071 6.2925 9.54604C6.1145 9.40404 5.8505 9.33337 5.47917 9.33337C5.20725 9.32964 4.93547 9.34792 4.6665 9.38804V12.012H5.2625V11.0614C5.33059 11.0701 5.3992 11.0741 5.46784 11.0734ZM7.64317 12.04C8.16384 12.04 8.58984 11.9294 8.86984 11.6967C9.12584 11.48 9.31184 11.1287 9.31184 10.62C9.31184 10.15 9.1385 9.82271 8.86184 9.61737C8.60584 9.42404 8.27784 9.33337 7.77317 9.33337C7.50126 9.33094 7.22957 9.34944 6.9605 9.38871V12C7.1105 12.02 7.33117 12.04 7.64317 12.04ZM10.3118 9.84671H11.3332V9.35337H9.70784V12.0127H10.3118V10.9434H11.2665V10.454H10.3118V9.84671ZM8.6665 6.00004H9.33317H11.9998L8.6665 2.66671V6.00004ZM5.26286 9.81074C5.30552 9.79874 5.38819 9.78674 5.51086 9.78674C5.81086 9.78674 5.98019 9.93341 5.98019 10.1774C5.98019 10.4501 5.78352 10.6114 5.46419 10.6114C5.37686 10.6114 5.31352 10.6081 5.26286 10.5961V9.81074ZM7.56419 9.81874C7.61552 9.80674 7.70219 9.79474 7.83552 9.79474C8.35286 9.79474 8.67619 10.0867 8.67219 10.6401C8.67219 11.2747 8.31752 11.5747 7.77286 11.5707C7.69819 11.5707 7.61552 11.5707 7.56419 11.5587V9.81874Z" fill="white"/>
</mask>
<g mask="url(#mask0_3172_69229)">
<rect width="16" height="16" fill="white"/>
</g>
</svg>
