<svg width="17" height="16" viewBox="0 0 17 16" fill="none" xmlns="http://www.w3.org/2000/svg">
<path fill-rule="evenodd" clip-rule="evenodd" d="M5.49992 12.6667V10H11.4999L11.5013 12.6667H5.49992ZM5.84259 3.33333H11.1666V4.66667H5.83792L5.84259 3.33333ZM13.4086 4.66667H12.4999V3.33333C12.4999 2.598 11.9519 2 11.2779 2H5.72192C5.04792 2 4.49992 2.598 4.49992 3.33333V4.66667H3.59125C2.62192 4.66667 1.83325 5.464 1.83325 6.44467V10.8887C1.83325 11.8693 2.62192 12.6667 3.59125 12.6667H4.16659C4.16659 13.402 4.76459 14 5.49992 14H11.4999C12.2353 14 12.8333 13.402 12.8333 12.6667H13.4086C14.3779 12.6667 15.1666 11.8693 15.1666 10.8887V6.44467C15.1666 5.464 14.3779 4.66667 13.4086 4.66667Z" fill="white"/>
<mask id="mask0_3802_34593" style="mask-type:luminance" maskUnits="userSpaceOnUse" x="1" y="2" width="15" height="12">
<path fill-rule="evenodd" clip-rule="evenodd" d="M5.49992 12.6667V10H11.4999L11.5013 12.6667H5.49992ZM5.84259 3.33333H11.1666V4.66667H5.83792L5.84259 3.33333ZM13.4086 4.66667H12.4999V3.33333C12.4999 2.598 11.9519 2 11.2779 2H5.72192C5.04792 2 4.49992 2.598 4.49992 3.33333V4.66667H3.59125C2.62192 4.66667 1.83325 5.464 1.83325 6.44467V10.8887C1.83325 11.8693 2.62192 12.6667 3.59125 12.6667H4.16659C4.16659 13.402 4.76459 14 5.49992 14H11.4999C12.2353 14 12.8333 13.402 12.8333 12.6667H13.4086C14.3779 12.6667 15.1666 11.8693 15.1666 10.8887V6.44467C15.1666 5.464 14.3779 4.66667 13.4086 4.66667Z" fill="white"/>
</mask>
<g mask="url(#mask0_3802_34593)">
<rect x="0.5" width="16" height="16" fill="white"/>
</g>
</svg>
