<svg width="16" height="16" viewBox="0 0 16 16" fill="none" xmlns="http://www.w3.org/2000/svg">
<path d="M7.07992 12.973H3.33325C3.21538 12.973 3.10233 12.9262 3.01898 12.8428C2.93563 12.7595 2.88881 12.6464 2.88881 12.5286C2.88881 12.4107 2.93563 12.2976 3.01898 12.2143C3.10233 12.1309 3.21538 12.0841 3.33325 12.0841H6.77325C6.70148 11.7647 6.66571 11.4382 6.66659 11.1108C6.66589 10.7388 6.7137 10.3682 6.80881 10.0086H3.33325C3.21538 10.0086 3.10233 9.96174 3.01898 9.87839C2.93563 9.79504 2.88881 9.68199 2.88881 9.56412C2.88881 9.44625 2.93563 9.3332 3.01898 9.24985C3.10233 9.1665 3.21538 9.11968 3.33325 9.11968H7.14214C7.60805 8.19342 8.38314 7.45921 9.33325 7.04412H3.33325C3.21538 7.04412 3.10233 6.99729 3.01898 6.91394C2.93563 6.8306 2.88881 6.71755 2.88881 6.59968C2.88881 6.4818 2.93563 6.36875 3.01898 6.28541C3.10233 6.20206 3.21538 6.15523 3.33325 6.15523H9.55547C9.67335 6.15523 9.7864 6.20206 9.86974 6.28541C9.95309 6.36875 9.99992 6.4818 9.99992 6.59968C9.9999 6.67945 9.9784 6.75774 9.9377 6.82634C10.3195 6.71884 10.7144 6.66499 11.111 6.66634C11.2621 6.66634 11.4088 6.66634 11.5555 6.68856V2.66634C11.5555 2.31272 11.415 1.97358 11.165 1.72353C10.9149 1.47348 10.5758 1.33301 10.2221 1.33301H2.66659C2.31296 1.33301 1.97382 1.47348 1.72378 1.72353C1.47373 1.97358 1.33325 2.31272 1.33325 2.66634V13.333C1.33325 13.6866 1.47373 14.0258 1.72378 14.2758C1.97382 14.5259 2.31296 14.6663 2.66659 14.6663H8.44436C7.85634 14.2236 7.3875 13.6417 7.07992 12.973ZM3.33325 3.19523H9.55547C9.67335 3.19523 9.7864 3.24206 9.86974 3.3254C9.95309 3.40875 9.99992 3.5218 9.99992 3.63967C9.99992 3.75755 9.95309 3.87059 9.86974 3.95394C9.7864 4.03729 9.67335 4.08412 9.55547 4.08412H3.33325C3.21538 4.08412 3.10233 4.03729 3.01898 3.95394C2.93563 3.87059 2.88881 3.75755 2.88881 3.63967C2.88881 3.5218 2.93563 3.40875 3.01898 3.3254C3.10233 3.24206 3.21538 3.19523 3.33325 3.19523Z" fill="white"/>
<path fill-rule="evenodd" clip-rule="evenodd" d="M12.0726 11.5709C12.2116 11.71 12.2116 11.9347 12.0726 12.0737C12.0033 12.143 11.9122 12.1779 11.8212 12.1779C11.7302 12.1779 11.6392 12.143 11.5698 12.0737L11.1101 11.614L10.6504 12.0737C10.581 12.143 10.49 12.1779 10.399 12.1779C10.308 12.1779 10.217 12.143 10.1476 12.0737C10.0086 11.9347 10.0086 11.71 10.1476 11.5709L10.6074 11.1112L10.1476 10.6515C10.0086 10.5125 10.0086 10.2877 10.1476 10.1487C10.2866 10.0097 10.5114 10.0097 10.6504 10.1487L11.1101 10.6085L11.5698 10.1487C11.7089 10.0097 11.9336 10.0097 12.0726 10.1487C12.2116 10.2877 12.2116 10.5125 12.0726 10.6515L11.6129 11.1112L12.0726 11.5709ZM11.1105 7.55566C9.14995 7.55566 7.55493 9.15069 7.55493 11.1112C7.55493 13.0718 9.14995 14.6668 11.1105 14.6668C13.071 14.6668 14.666 13.0718 14.666 11.1112C14.666 9.15069 13.071 7.55566 11.1105 7.55566Z" fill="white"/>
</svg>
