<svg width="24" height="24" viewBox="0 0 24 24" fill="none" xmlns="http://www.w3.org/2000/svg">
<path d="M15 10H9C8.73478 10 8.48043 9.89464 8.29289 9.70711C8.10536 9.51957 8 9.26522 8 9V6C8 4.93913 8.42143 3.92172 9.17157 3.17157C9.92172 2.42143 10.9391 2 12 2C13.0609 2 14.0783 2.42143 14.8284 3.17157C15.5786 3.92172 16 4.93913 16 6V9C16 9.26522 15.8946 9.51957 15.7071 9.70711C15.5196 9.89464 15.2652 10 15 10ZM10 8H14V6C14 5.46957 13.7893 4.96086 13.4142 4.58579C13.0391 4.21071 12.5304 4 12 4C11.4696 4 10.9609 4.21071 10.5858 4.58579C10.2107 4.96086 10 5.46957 10 6V8Z" fill="white"/>
<path fill-rule="evenodd" clip-rule="evenodd" d="M8 8H16C17.6569 8 19 9.34315 19 11V19C19 20.6569 17.6569 22 16 22H8C6.34315 22 5 20.6569 5 19V11C5 9.34315 6.34315 8 8 8ZM9.5218 12.1096L8.71863 11.3065C8.46499 11.0528 8 11.2219 8 11.6024V14.3923C8 14.646 8.16909 14.8151 8.42272 14.8151H11.1704C11.5509 14.8151 11.7199 14.3501 11.4663 14.0964L10.7054 13.3355C11.5509 12.4901 12.9036 12.4901 13.7067 13.3355C14.1295 13.716 14.3408 14.2655 14.3408 14.8151C14.3408 15.3646 14.1295 15.9141 13.7067 16.3369C12.8613 17.14 11.5086 17.1823 10.7054 16.3369C10.3672 15.9987 9.85997 15.9987 9.5218 16.3369C9.18362 16.675 9.18362 17.1823 9.5218 17.5205C10.2827 18.2391 11.255 18.6196 12.2272 18.6196C13.1995 18.6196 14.1717 18.2391 14.8904 17.4782C16.3699 15.9987 16.3699 13.5892 14.8904 12.1096C13.4108 10.6301 11.0013 10.6301 9.5218 12.1096Z" fill="white"/>
</svg>
