<svg width="24" height="24" viewBox="0 0 24 24" fill="none" xmlns="http://www.w3.org/2000/svg">
<path d="M14.5625 3C16.9097 3 18.8125 4.90279 18.8125 7.25C18.8125 9.59721 16.9097 11.5 14.5625 11.5C12.2153 11.5 10.3125 9.59721 10.3125 7.25C10.3125 4.90279 12.2153 3 14.5625 3ZM19.8657 12.5625C21.0404 12.5625 22 13.5048 22 14.6875C22 16.4844 21.1151 17.8392 19.7316 18.7214C18.3695 19.5899 16.5332 20 14.5625 20C14.126 20 13.696 19.9799 13.2763 19.9391C14.081 18.9378 14.5625 17.6658 14.5625 16.2812C14.5625 14.8686 14.0612 13.5728 13.2267 12.5625H19.8657Z" fill="white"/>
<path d="M3.89153 11.3802L4.88794 12.3766C6.72344 10.5411 9.71268 10.5411 11.5482 12.3766C13.3837 14.2121 13.3837 17.2014 11.5482 19.0369C10.6567 19.9808 9.45047 20.4528 8.24428 20.4528C7.0381 20.4528 5.83191 19.9808 4.88794 19.0893C4.4684 18.6698 4.4684 18.0405 4.88794 17.6209C5.30748 17.2014 5.9368 17.2014 6.35634 17.6209C7.35275 18.6698 9.03092 18.6173 10.0798 17.6209C10.6042 17.0965 10.8664 16.4147 10.8664 15.733C10.8664 15.0512 10.6042 14.3695 10.0798 13.8975C9.08337 12.8486 7.4052 12.8486 6.35634 13.8975L7.30031 14.8414C7.61497 15.1561 7.4052 15.733 6.93321 15.733H3.52443C3.20977 15.733 3 15.5232 3 15.2085V11.7473C3 11.2753 3.57687 11.0656 3.89153 11.3802Z" fill="white"/>
</svg>
