<svg width="24" height="24" viewBox="0 0 24 24" fill="none" xmlns="http://www.w3.org/2000/svg">
<g opacity="0.3">
<path d="M6 5.65237V17.904C6 19.0595 6.94064 20.0001 8.09612 20.0001H17.1658C18.3213 20.0001 19.2619 19.0595 19.2619 17.904V5.65237C19.2619 4.49689 18.3213 3.55624 17.1658 3.55624H17.0961C17.1309 3.73043 17.1484 3.91043 17.1484 4.09624V4.75818C17.1654 6.20264 15.9523 7.44271 14.4716 7.43495H10.7903C9.50127 7.43495 8.41546 6.51752 8.16579 5.29818C8.08386 4.76712 8.08467 4.08724 8.16576 3.55625C6.98679 3.51868 5.9977 4.47095 6 5.65237ZM15.6967 16.0982H9.56513C8.4239 16.0772 8.41972 14.3817 9.56513 14.3562H15.6968C16.8388 14.3811 16.8413 16.0765 15.6967 16.0982ZM15.6967 13.0207H9.56513C8.42309 12.9959 8.42057 11.3004 9.56513 11.2788H15.6968C16.838 11.2998 16.8422 12.9952 15.6967 13.0207ZM9.56513 8.19559H15.6968C16.8387 8.21636 16.8421 9.91611 15.6967 9.93752H9.56513C8.42316 9.91676 8.41979 8.217 9.56513 8.19559Z" fill="white"/>
<path d="M14.4715 2.00002H10.7902C9.82055 2.00002 9.00766 2.66196 8.76381 3.55614C8.65568 3.86755 8.70579 4.42701 8.6941 4.75808C8.68531 5.88613 9.62932 6.85955 10.7903 6.8542H14.4715C15.4412 6.8542 16.2541 6.19226 16.498 5.29808C16.6061 4.98667 16.556 4.42722 16.5677 4.09614C16.5765 2.9681 15.6325 1.99467 14.4715 2.00002ZM14.8257 4.75808C14.8257 4.95548 14.6631 5.11227 14.4715 5.11227H10.7902C10.2854 5.10263 10.467 4.41074 10.436 4.09614C10.436 3.89871 10.5986 3.74196 10.7903 3.74196H14.4715C14.9764 3.75156 14.7948 4.44348 14.8257 4.75808Z" fill="white"/>
</g>
<path d="M5 6.65237V18.904C5 20.0595 5.94064 21.0001 7.09612 21.0001H16.1658C17.3213 21.0001 18.2619 20.0595 18.2619 18.904V6.65237C18.2619 5.49689 17.3213 4.55624 16.1658 4.55624H16.0961C16.1309 4.73043 16.1484 4.91043 16.1484 5.09624V5.75818C16.1654 7.20264 14.9523 8.44271 13.4716 8.43495H9.79032C8.50127 8.43495 7.41546 7.51752 7.16579 6.29818C7.08386 5.76712 7.08467 5.08724 7.16576 4.55625C5.98679 4.51868 4.9977 5.47095 5 6.65237ZM14.6967 17.0982H8.56513C7.4239 17.0772 7.41972 15.3817 8.56513 15.3562H14.6968C15.8388 15.3811 15.8413 17.0765 14.6967 17.0982ZM14.6967 14.0207H8.56513C7.42309 13.9959 7.42057 12.3004 8.56513 12.2788H14.6968C15.838 12.2998 15.8422 13.9952 14.6967 14.0207ZM8.56513 9.19559H14.6968C15.8387 9.21636 15.8421 10.9161 14.6967 10.9375H8.56513C7.42316 10.9168 7.41979 9.217 8.56513 9.19559Z" fill="white"/>
<path d="M13.4715 3.00002H9.79025C8.82055 3.00002 8.00766 3.66196 7.76381 4.55614C7.65568 4.86755 7.70579 5.42701 7.6941 5.75808C7.68531 6.88613 8.62932 7.85955 9.79025 7.8542H13.4715C14.4412 7.8542 15.2541 7.19226 15.498 6.29808C15.6061 5.98667 15.556 5.42722 15.5677 5.09614C15.5765 3.9681 14.6325 2.99467 13.4715 3.00002ZM13.8257 5.75808C13.8257 5.95548 13.6631 6.11227 13.4715 6.11227H9.79025C9.28537 6.10263 9.467 5.41074 9.43603 5.09614C9.43603 4.89871 9.59863 4.74196 9.79025 4.74196H13.4715C13.9764 4.75156 13.7948 5.44348 13.8257 5.75808Z" fill="white"/>
</svg>
