<svg width="24" height="24" viewBox="0 0 24 24" fill="none" xmlns="http://www.w3.org/2000/svg">
<path opacity="0.3" d="M11 3C8.79086 3 7 4.79086 7 7C7 9.20914 8.79086 11 11 11C13.2091 11 15 9.20914 15 7C15 4.79086 13.2091 3 11 3ZM6.00873 12C4.90315 12 4 12.8869 4 14C4 15.6912 4.83281 16.9663 6.13499 17.7966C7.41697 18.614 9.14526 19 11 19C11.4109 19 11.8155 18.9811 12.2105 18.9427C11.4532 18.0003 11 16.8031 11 15.5C11 14.1704 11.4718 12.9509 12.2572 12H6.00873ZM12.6351 14.9199C13.723 14.642 14.369 13.5231 14.0657 12.442L13.9095 11.8852C14.1636 11.6899 14.439 11.5226 14.7314 11.3877L15.0688 11.7457C15.8577 12.5828 17.1885 12.5835 17.9783 11.7472L18.303 11.4034C18.6008 11.5439 18.8806 11.7182 19.1378 11.9215L19.0116 12.3438C18.6823 13.4459 19.3483 14.598 20.4677 14.8627L20.8167 14.9452C20.8383 15.127 20.8494 15.3121 20.8494 15.4999C20.8494 15.6559 20.8417 15.81 20.8268 15.9619L20.3662 16.0795C19.2783 16.3575 18.6323 17.4764 18.9356 18.5575L19.0917 19.1142C18.8376 19.3095 18.5623 19.4769 18.2698 19.6118L17.9325 19.2538C17.1436 18.4167 15.8128 18.416 15.023 19.2523L14.698 19.5964C14.4002 19.4559 14.1205 19.2817 13.8633 19.0785L13.9897 18.6557C14.319 17.5536 13.653 16.4014 12.5336 16.1368L12.184 16.0541C12.1625 15.8725 12.1514 15.6875 12.1514 15.4999C12.1514 15.3438 12.159 15.1896 12.174 15.0377L12.6351 14.9199ZM17.5004 15.4999C17.5004 14.9476 17.0527 14.4999 16.5004 14.4999C15.9481 14.4999 15.5004 14.9476 15.5004 15.4999C15.5004 16.0521 15.9481 16.4999 16.5004 16.4999C17.0527 16.4999 17.5004 16.0521 17.5004 15.4999Z" fill="#F4BE2A"/>
<path d="M10 4C7.79086 4 6 5.79086 6 8C6 10.2091 7.79086 12 10 12C12.2091 12 14 10.2091 14 8C14 5.79086 12.2091 4 10 4ZM5.00873 13C3.90315 13 3 13.8869 3 15C3 16.6912 3.83281 17.9663 5.13499 18.7966C6.41697 19.614 8.14526 20 10 20C10.4109 20 10.8155 19.9811 11.2105 19.9427C10.4532 19.0003 10 17.8031 10 16.5C10 15.1704 10.4718 13.9509 11.2572 13H5.00873ZM11.6351 15.9199C12.723 15.642 13.369 14.5231 13.0657 13.442L12.9095 12.8852C13.1636 12.6899 13.439 12.5226 13.7314 12.3877L14.0688 12.7457C14.8577 13.5828 16.1885 13.5835 16.9783 12.7472L17.303 12.4034C17.6008 12.5439 17.8806 12.7182 18.1378 12.9215L18.0116 13.3438C17.6823 14.4459 18.3483 15.598 19.4677 15.8627L19.8167 15.9452C19.8383 16.127 19.8494 16.3121 19.8494 16.4999C19.8494 16.6559 19.8417 16.81 19.8268 16.9619L19.3662 17.0795C18.2783 17.3575 17.6323 18.4764 17.9356 19.5575L18.0917 20.1142C17.8376 20.3095 17.5623 20.4769 17.2698 20.6118L16.9325 20.2538C16.1436 19.4167 14.8128 19.416 14.023 20.2523L13.698 20.5964C13.4002 20.4559 13.1205 20.2817 12.8633 20.0785L12.9897 19.6557C13.319 18.5536 12.653 17.4014 11.5336 17.1368L11.184 17.0541C11.1625 16.8725 11.1514 16.6875 11.1514 16.4999C11.1514 16.3438 11.159 16.1896 11.174 16.0377L11.6351 15.9199ZM16.5004 16.4999C16.5004 15.9476 16.0527 15.4999 15.5004 15.4999C14.9481 15.4999 14.5004 15.9476 14.5004 16.4999C14.5004 17.0521 14.9481 17.4999 15.5004 17.4999C16.0527 17.4999 16.5004 17.0521 16.5004 16.4999Z" fill="#F4BE2A"/>
</svg>
