<svg width="24" height="24" viewBox="0 0 24 24" fill="none" xmlns="http://www.w3.org/2000/svg">
<g opacity="0.3">
<path d="M9.77264 5.0914H15.2272C15.3167 5.09142 15.4054 5.0738 15.4881 5.03954C15.5709 5.00529 15.646 4.95507 15.7094 4.89175C15.7727 4.82843 15.8229 4.75326 15.8571 4.67053C15.8914 4.58779 15.909 4.49912 15.909 4.40958V1.68231C15.909 1.59276 15.8914 1.50409 15.8571 1.42136C15.8229 1.33863 15.7727 1.26345 15.7094 1.20014C15.646 1.13682 15.5709 1.0866 15.4881 1.05234C15.4054 1.01808 15.3167 1.00047 15.2272 1.00049H9.77264C9.68309 1.00047 9.59442 1.01808 9.51169 1.05234C9.42896 1.0866 9.35379 1.13682 9.29047 1.20014C9.22715 1.26345 9.17693 1.33863 9.14267 1.42136C9.10842 1.50409 9.0908 1.59276 9.09082 1.68231V4.40958C9.0908 4.49912 9.10842 4.58779 9.14267 4.67053C9.17693 4.75326 9.22715 4.82843 9.29047 4.89175C9.35379 4.95507 9.42896 5.00529 9.51169 5.03954C9.59442 5.0738 9.68309 5.09142 9.77264 5.0914ZM10.4545 2.36412H14.5454V3.72776H10.4545V2.36412Z" fill="white"/>
<path d="M17.9545 2.36426H16.9318C16.8414 2.36426 16.7547 2.40017 16.6908 2.46411C16.6268 2.52804 16.5909 2.61475 16.5909 2.70517V4.40971C16.5909 4.77137 16.4472 5.11822 16.1915 5.37395C15.9358 5.62968 15.5889 5.77335 15.2273 5.77335H9.77273C9.41107 5.77335 9.06422 5.62968 8.80849 5.37395C8.55276 5.11822 8.40909 4.77137 8.40909 4.40971V2.70517C8.40909 2.61475 8.37317 2.52804 8.30924 2.46411C8.24531 2.40017 8.1586 2.36426 8.06818 2.36426H7.04545C6.50297 2.36426 5.9827 2.57976 5.5991 2.96336C5.2155 3.34695 5 3.86722 5 4.40971V19.4097C5 19.9522 5.2155 20.4725 5.5991 20.8561C5.9827 21.2397 6.50297 21.4552 7.04545 21.4552H17.9545C18.497 21.4552 19.0173 21.2397 19.4009 20.8561C19.7845 20.4725 20 19.9522 20 19.4097V4.40971C20 3.86722 19.7845 3.34695 19.4009 2.96336C19.0173 2.57976 18.497 2.36426 17.9545 2.36426ZM8.40909 10.5461H11.1364C11.3172 10.5461 11.4906 10.6179 11.6185 10.7458C11.7463 10.8736 11.8182 11.0471 11.8182 11.2279C11.8182 11.4087 11.7463 11.5821 11.6185 11.71C11.4906 11.8379 11.3172 11.9097 11.1364 11.9097H8.40909C8.22826 11.9097 8.05484 11.8379 7.92697 11.71C7.79911 11.5821 7.72727 11.4087 7.72727 11.2279C7.72727 11.0471 7.79911 10.8736 7.92697 10.7458C8.05484 10.6179 8.22826 10.5461 8.40909 10.5461ZM15.9091 17.3643H8.40909C8.22826 17.3643 8.05484 17.2924 7.92697 17.1646C7.79911 17.0367 7.72727 16.8633 7.72727 16.6824C7.72727 16.5016 7.79911 16.3282 7.92697 16.2003C8.05484 16.0725 8.22826 16.0006 8.40909 16.0006H15.9091C16.0899 16.0006 16.2633 16.0725 16.3912 16.2003C16.5191 16.3282 16.5909 16.5016 16.5909 16.6824C16.5909 16.8633 16.5191 17.0367 16.3912 17.1646C16.2633 17.2924 16.0899 17.3643 15.9091 17.3643ZM15.9091 14.637H8.40909C8.22826 14.637 8.05484 14.5652 7.92697 14.4373C7.79911 14.3094 7.72727 14.136 7.72727 13.9552C7.72727 13.7743 7.79911 13.6009 7.92697 13.473C8.05484 13.3452 8.22826 13.2733 8.40909 13.2733H15.9091C16.0899 13.2733 16.2633 13.3452 16.3912 13.473C16.5191 13.6009 16.5909 13.7743 16.5909 13.9552C16.5909 14.136 16.5191 14.3094 16.3912 14.4373C16.2633 14.5652 16.0899 14.637 15.9091 14.637Z" fill="white"/>
</g>
<path d="M8.77264 6.0914H14.2272C14.3167 6.09142 14.4054 6.0738 14.4881 6.03954C14.5709 6.00529 14.646 5.95507 14.7094 5.89175C14.7727 5.82843 14.8229 5.75326 14.8571 5.67053C14.8914 5.58779 14.909 5.49912 14.909 5.40958V2.68231C14.909 2.59276 14.8914 2.50409 14.8571 2.42136C14.8229 2.33863 14.7727 2.26345 14.7094 2.20014C14.646 2.13682 14.5709 2.0866 14.4881 2.05234C14.4054 2.01808 14.3167 2.00047 14.2272 2.00049H8.77264C8.68309 2.00047 8.59442 2.01808 8.51169 2.05234C8.42896 2.0866 8.35379 2.13682 8.29047 2.20014C8.22715 2.26345 8.17693 2.33863 8.14267 2.42136C8.10842 2.50409 8.0908 2.59276 8.09082 2.68231V5.40958C8.0908 5.49912 8.10842 5.58779 8.14267 5.67053C8.17693 5.75326 8.22715 5.82843 8.29047 5.89175C8.35379 5.95507 8.42896 6.00529 8.51169 6.03954C8.59442 6.0738 8.68309 6.09142 8.77264 6.0914ZM9.45446 3.36412H13.5454V4.72776H9.45446V3.36412Z" fill="white"/>
<path d="M16.9545 3.36426H15.9318C15.8414 3.36426 15.7547 3.40017 15.6908 3.46411C15.6268 3.52804 15.5909 3.61475 15.5909 3.70517V5.40971C15.5909 5.77137 15.4472 6.11822 15.1915 6.37395C14.9358 6.62968 14.5889 6.77335 14.2273 6.77335H8.77273C8.41107 6.77335 8.06422 6.62968 7.80849 6.37395C7.55276 6.11822 7.40909 5.77137 7.40909 5.40971V3.70517C7.40909 3.61475 7.37317 3.52804 7.30924 3.46411C7.24531 3.40017 7.1586 3.36426 7.06818 3.36426H6.04545C5.50297 3.36426 4.9827 3.57976 4.5991 3.96336C4.2155 4.34695 4 4.86722 4 5.40971V20.4097C4 20.9522 4.2155 21.4725 4.5991 21.8561C4.9827 22.2397 5.50297 22.4552 6.04545 22.4552H16.9545C17.497 22.4552 18.0173 22.2397 18.4009 21.8561C18.7845 21.4725 19 20.9522 19 20.4097V5.40971C19 4.86722 18.7845 4.34695 18.4009 3.96336C18.0173 3.57976 17.497 3.36426 16.9545 3.36426ZM7.40909 11.5461H10.1364C10.3172 11.5461 10.4906 11.6179 10.6185 11.7458C10.7463 11.8736 10.8182 12.0471 10.8182 12.2279C10.8182 12.4087 10.7463 12.5821 10.6185 12.71C10.4906 12.8379 10.3172 12.9097 10.1364 12.9097H7.40909C7.22826 12.9097 7.05484 12.8379 6.92697 12.71C6.79911 12.5821 6.72727 12.4087 6.72727 12.2279C6.72727 12.0471 6.79911 11.8736 6.92697 11.7458C7.05484 11.6179 7.22826 11.5461 7.40909 11.5461ZM14.9091 18.3643H7.40909C7.22826 18.3643 7.05484 18.2924 6.92697 18.1646C6.79911 18.0367 6.72727 17.8633 6.72727 17.6824C6.72727 17.5016 6.79911 17.3282 6.92697 17.2003C7.05484 17.0725 7.22826 17.0006 7.40909 17.0006H14.9091C15.0899 17.0006 15.2633 17.0725 15.3912 17.2003C15.5191 17.3282 15.5909 17.5016 15.5909 17.6824C15.5909 17.8633 15.5191 18.0367 15.3912 18.1646C15.2633 18.2924 15.0899 18.3643 14.9091 18.3643ZM14.9091 15.637H7.40909C7.22826 15.637 7.05484 15.5652 6.92697 15.4373C6.79911 15.3094 6.72727 15.136 6.72727 14.9552C6.72727 14.7743 6.79911 14.6009 6.92697 14.473C7.05484 14.3452 7.22826 14.2733 7.40909 14.2733H14.9091C15.0899 14.2733 15.2633 14.3452 15.3912 14.473C15.5191 14.6009 15.5909 14.7743 15.5909 14.9552C15.5909 15.136 15.5191 15.3094 15.3912 15.4373C15.2633 15.5652 15.0899 15.637 14.9091 15.637Z" fill="white"/>
</svg>
