<svg width="24" height="24" viewBox="0 0 24 24" fill="none" xmlns="http://www.w3.org/2000/svg">
<path opacity="0.3" fill-rule="evenodd" clip-rule="evenodd" d="M5.125 3C4.50368 3 4 3.50369 4 4.125C4 4.74632 4.50368 5.25 5.125 5.25V14.25C5.125 15.4927 6.13236 16.5 7.375 16.5H10.284L8.8295 17.9545C8.39017 18.3938 8.39017 19.1062 8.8295 19.5455C9.26885 19.9848 9.98115 19.9848 10.4205 19.5455L13 16.966L15.5795 19.5455C16.0188 19.9848 16.7312 19.9848 17.1705 19.5455C17.6098 19.1062 17.6098 18.3938 17.1705 17.9545L15.716 16.5H18.625C19.8677 16.5 20.875 15.4927 20.875 14.25V5.25C21.4963 5.25 22 4.74632 22 4.125C22 3.50369 21.4963 3 20.875 3H5.125ZM18.2955 8.2955C18.7348 7.85615 18.7348 7.14385 18.2955 6.7045C17.8562 6.26517 17.1438 6.26517 16.7045 6.7045L13 10.409L11.5455 8.9545C11.1062 8.51517 10.3938 8.51517 9.9545 8.9545L7.7045 11.2045C7.26517 11.6438 7.26517 12.3562 7.7045 12.7955C8.14385 13.2348 8.85615 13.2348 9.2955 12.7955L10.75 11.341L12.2045 12.7955C12.6438 13.2348 13.3562 13.2348 13.7955 12.7955L18.2955 8.2955Z" fill="white"/>
<path fill-rule="evenodd" clip-rule="evenodd" d="M4.125 4C3.50368 4 3 4.50369 3 5.125C3 5.74632 3.50368 6.25 4.125 6.25V15.25C4.125 16.4927 5.13236 17.5 6.375 17.5H9.28401L7.8295 18.9545C7.39017 19.3938 7.39017 20.1062 7.8295 20.5455C8.26885 20.9848 8.98115 20.9848 9.4205 20.5455L12 17.966L14.5795 20.5455C15.0188 20.9848 15.7312 20.9848 16.1705 20.5455C16.6098 20.1062 16.6098 19.3938 16.1705 18.9545L14.716 17.5H17.625C18.8677 17.5 19.875 16.4927 19.875 15.25V6.25C20.4963 6.25 21 5.74632 21 5.125C21 4.50369 20.4963 4 19.875 4H4.125ZM17.2955 9.2955C17.7348 8.85615 17.7348 8.14385 17.2955 7.7045C16.8562 7.26517 16.1438 7.26517 15.7045 7.7045L12 11.409L10.5455 9.9545C10.1062 9.51517 9.39385 9.51517 8.9545 9.9545L6.7045 12.2045C6.26517 12.6438 6.26517 13.3562 6.7045 13.7955C7.14385 14.2348 7.85615 14.2348 8.2955 13.7955L9.75 12.341L11.2045 13.7955C11.6438 14.2348 12.3562 14.2348 12.7955 13.7955L17.2955 9.2955Z" fill="white"/>
</svg>
