<svg width="24" height="24" viewBox="0 0 24 24" fill="none" xmlns="http://www.w3.org/2000/svg">
<g opacity="0.3">
<path d="M19.6906 5.00049H17.1417C16.9712 5.00049 16.8077 5.06822 16.6872 5.18877C16.5666 5.30933 16.4989 5.47283 16.4989 5.64333V6.28616C16.4989 6.45665 16.4312 6.62016 16.3106 6.74072C16.19 6.86127 16.0265 6.929 15.856 6.929C15.6856 6.929 15.522 6.86127 15.4015 6.74072C15.2809 6.62016 15.2132 6.45665 15.2132 6.28616V5.64333C15.2132 5.47283 15.1455 5.30933 15.0249 5.18877C14.9044 5.06822 14.7409 5.00049 14.5704 5.00049H4.30747C3.96052 5.00049 3.62779 5.13831 3.38246 5.38364C3.13712 5.62897 2.9993 5.96171 2.9993 6.30866V7.81933C2.9907 8.39069 3.18294 8.94694 3.5425 9.39107C4.02243 9.96159 4.2854 10.6833 4.28497 11.4289C4.2854 12.1744 4.02243 12.8961 3.5425 13.4667C3.18294 13.9108 2.9907 14.467 2.9993 15.0384V16.5491C2.9993 16.896 3.13712 17.2288 3.38246 17.4741C3.62779 17.7194 3.96052 17.8572 4.30747 17.8572H14.5704C14.7409 17.8572 14.9044 17.7895 15.0249 17.669C15.1455 17.5484 15.2132 17.3849 15.2132 17.2144V16.5716C15.2132 16.4011 15.2809 16.2376 15.4015 16.117C15.522 15.9965 15.6856 15.9287 15.856 15.9287C16.0265 15.9287 16.19 15.9965 16.3106 16.117C16.4312 16.2376 16.4989 16.4011 16.4989 16.5716V17.2144C16.4989 17.3849 16.5666 17.5484 16.6872 17.669C16.8077 17.7895 16.9712 17.8572 17.1417 17.8572H19.6906C20.0375 17.8572 20.3703 17.7194 20.6156 17.4741C20.8609 17.2288 20.9987 16.896 20.9987 16.5491V15.0384C21.0073 14.467 20.8151 13.9108 20.4555 13.4667C19.9775 12.8952 19.7155 12.1739 19.7155 11.4289C19.7155 10.6838 19.9775 9.96249 20.4555 9.39107C20.8151 8.94694 21.0073 8.39069 20.9987 7.81933V6.30866C20.9987 5.96171 20.8609 5.62897 20.6156 5.38364C20.3703 5.13831 20.0375 5.00049 19.6906 5.00049ZM6.21349 7.89326H7.17774C7.26299 7.89326 7.34474 7.92712 7.40502 7.9874C7.4653 8.04768 7.49916 8.12943 7.49916 8.21468C7.49916 8.29992 7.4653 8.38168 7.40502 8.44195C7.34474 8.50223 7.26299 8.53609 7.17774 8.53609H6.21349C6.12824 8.53609 6.04649 8.50223 5.98621 8.44195C5.92593 8.38168 5.89207 8.29992 5.89207 8.21468C5.89207 8.12943 5.92593 8.04768 5.98621 7.9874C6.04649 7.92712 6.12824 7.89326 6.21349 7.89326ZM6.21349 9.50035H6.53491C6.62015 9.50035 6.70191 9.53421 6.76218 9.59449C6.82246 9.65477 6.85632 9.73652 6.85632 9.82177C6.85632 9.90701 6.82246 9.98877 6.76218 10.049C6.70191 10.1093 6.62015 10.1432 6.53491 10.1432H6.21349C6.12824 10.1432 6.04649 10.1093 5.98621 10.049C5.92593 9.98877 5.89207 9.90701 5.89207 9.82177C5.89207 9.73652 5.92593 9.65477 5.98621 9.59449C6.04649 9.53421 6.12824 9.50035 6.21349 9.50035ZM13.0211 12.3674L10.0898 12.0717C10.0862 12.0712 10.0825 12.0716 10.079 12.0727C10.0755 12.0737 10.0722 12.0756 10.0695 12.078C10.0668 12.0804 10.0646 12.0834 10.0631 12.0868C10.0616 12.0901 10.0608 12.0937 10.0609 12.0974C10.0519 12.6127 9.95853 13.123 9.78445 13.6081L9.73945 13.7334C9.72421 13.7744 9.72288 13.8193 9.73566 13.8611C9.74844 13.9029 9.77462 13.9394 9.81016 13.9649L10.6169 14.5434C10.6455 14.5702 10.6649 14.6052 10.6725 14.6436C10.68 14.6821 10.6753 14.7219 10.6589 14.7574C10.6426 14.793 10.6154 14.8225 10.5813 14.8418C10.5473 14.8611 10.508 14.8691 10.4691 14.8648L9.42767 14.6913L8.38628 14.8841C8.34737 14.8884 8.30809 14.8804 8.27401 14.8611C8.23994 14.8418 8.21279 14.8123 8.19643 14.7767C8.18007 14.7412 8.17532 14.7013 8.18286 14.6629C8.1904 14.6245 8.20984 14.5894 8.23842 14.5627L9.04519 13.9841C9.08073 13.9587 9.10691 13.9222 9.11969 13.8804C9.13247 13.8386 9.13114 13.7937 9.1159 13.7527L9.0709 13.6274C8.89682 13.1423 8.80344 12.632 8.79448 12.1167C8.79451 12.113 8.79375 12.1094 8.79226 12.1061C8.79078 12.1027 8.78859 12.0997 8.78585 12.0973C8.78311 12.0948 8.77988 12.093 8.77638 12.0919C8.77288 12.0909 8.76919 12.0905 8.76555 12.091L5.83421 12.3835C5.79125 12.3882 5.748 12.3776 5.7121 12.3535C5.6762 12.3295 5.64997 12.2935 5.63805 12.2519C5.62612 12.2104 5.62927 12.1659 5.64693 12.1265C5.6646 12.087 5.69564 12.0551 5.73457 12.0363L8.78484 10.4903V9.14036C8.78455 8.80024 8.87797 8.46662 9.05483 8.1761C9.09217 8.11351 9.14513 8.06168 9.20851 8.02569C9.27189 7.9897 9.34353 7.97077 9.41642 7.97077C9.48931 7.97077 9.56095 7.9897 9.62434 8.02569C9.68772 8.06168 9.74068 8.11351 9.77802 8.1761C9.95488 8.46662 10.0483 8.80024 10.048 9.14036V10.4903L13.1079 12.0203C13.1469 12.039 13.1779 12.071 13.1956 12.1104C13.2132 12.1499 13.2164 12.1943 13.2044 12.2358C13.1925 12.2774 13.1663 12.3134 13.1304 12.3375C13.0945 12.3615 13.0512 12.3721 13.0083 12.3674H13.0211ZM16.4989 14.0002C16.4989 14.1707 16.4312 14.3342 16.3106 14.4548C16.19 14.5753 16.0265 14.643 15.856 14.643C15.6856 14.643 15.522 14.5753 15.4015 14.4548C15.2809 14.3342 15.2132 14.1707 15.2132 14.0002V12.7145C15.2132 12.544 15.2809 12.3805 15.4015 12.26C15.522 12.1394 15.6856 12.0717 15.856 12.0717C16.0265 12.0717 16.19 12.1394 16.3106 12.26C16.4312 12.3805 16.4989 12.544 16.4989 12.7145V14.0002ZM16.4989 10.1432C16.4989 10.3137 16.4312 10.4772 16.3106 10.5977C16.19 10.7183 16.0265 10.786 15.856 10.786C15.6856 10.786 15.522 10.7183 15.4015 10.5977C15.2809 10.4772 15.2132 10.3137 15.2132 10.1432V8.85751C15.2132 8.68702 15.2809 8.52351 15.4015 8.40296C15.522 8.2824 15.6856 8.21468 15.856 8.21468C16.0265 8.21468 16.19 8.2824 16.3106 8.40296C16.4312 8.52351 16.4989 8.68702 16.4989 8.85751V10.1432Z" fill="white"/>
</g>
<path d="M18.6915 6.00049H16.1427C15.9722 6.00049 15.8087 6.06822 15.6881 6.18877C15.5676 6.30933 15.4999 6.47283 15.4999 6.64333V7.28616C15.4999 7.45665 15.4321 7.62016 15.3116 7.74072C15.191 7.86127 15.0275 7.929 14.857 7.929C14.6865 7.929 14.523 7.86127 14.4025 7.74072C14.2819 7.62016 14.2142 7.45665 14.2142 7.28616V6.64333C14.2142 6.47283 14.1465 6.30933 14.0259 6.18877C13.9053 6.06822 13.7418 6.00049 13.5713 6.00049H3.30845C2.9615 6.00049 2.62876 6.13831 2.38343 6.38364C2.1381 6.62897 2.00028 6.96171 2.00028 7.30866V8.81933C1.99168 9.39069 2.18392 9.94694 2.54347 10.3911C3.02341 10.9616 3.28637 11.6833 3.28595 12.4289C3.28637 13.1744 3.02341 13.8961 2.54347 14.4667C2.18392 14.9108 1.99168 15.467 2.00028 16.0384V17.5491C2.00028 17.896 2.1381 18.2288 2.38343 18.4741C2.62876 18.7194 2.9615 18.8572 3.30845 18.8572H13.5713C13.7418 18.8572 13.9053 18.7895 14.0259 18.669C14.1465 18.5484 14.2142 18.3849 14.2142 18.2144V17.5716C14.2142 17.4011 14.2819 17.2376 14.4025 17.117C14.523 16.9965 14.6865 16.9287 14.857 16.9287C15.0275 16.9287 15.191 16.9965 15.3116 17.117C15.4321 17.2376 15.4999 17.4011 15.4999 17.5716V18.2144C15.4999 18.3849 15.5676 18.5484 15.6881 18.669C15.8087 18.7895 15.9722 18.8572 16.1427 18.8572H18.6915C19.0385 18.8572 19.3712 18.7194 19.6166 18.4741C19.8619 18.2288 19.9997 17.896 19.9997 17.5491V16.0384C20.0083 15.467 19.8161 14.9108 19.4565 14.4667C18.9784 13.8952 18.7165 13.1739 18.7165 12.4289C18.7165 11.6838 18.9784 10.9625 19.4565 10.3911C19.8161 9.94694 20.0083 9.39069 19.9997 8.81933V7.30866C19.9997 6.96171 19.8619 6.62897 19.6166 6.38364C19.3712 6.13831 19.0385 6.00049 18.6915 6.00049ZM5.21446 8.89326H6.17872C6.26397 8.89326 6.34572 8.92712 6.406 8.9874C6.46627 9.04768 6.50014 9.12943 6.50014 9.21468C6.50014 9.29992 6.46627 9.38168 6.406 9.44195C6.34572 9.50223 6.26397 9.53609 6.17872 9.53609H5.21446C5.12922 9.53609 5.04746 9.50223 4.98719 9.44195C4.92691 9.38168 4.89304 9.29992 4.89304 9.21468C4.89304 9.12943 4.92691 9.04768 4.98719 8.9874C5.04746 8.92712 5.12922 8.89326 5.21446 8.89326ZM5.21446 10.5003H5.53588C5.62113 10.5003 5.70288 10.5342 5.76316 10.5945C5.82344 10.6548 5.8573 10.7365 5.8573 10.8218C5.8573 10.907 5.82344 10.9888 5.76316 11.049C5.70288 11.1093 5.62113 11.1432 5.53588 11.1432H5.21446C5.12922 11.1432 5.04746 11.1093 4.98719 11.049C4.92691 10.9888 4.89304 10.907 4.89304 10.8218C4.89304 10.7365 4.92691 10.6548 4.98719 10.5945C5.04746 10.5342 5.12922 10.5003 5.21446 10.5003ZM12.0221 13.3674L9.09077 13.0717C9.08714 13.0712 9.08344 13.0716 9.07994 13.0727C9.07644 13.0737 9.07321 13.0756 9.07048 13.078C9.06774 13.0804 9.06555 13.0834 9.06406 13.0868C9.06257 13.0901 9.06182 13.0937 9.06185 13.0974C9.05288 13.6127 8.9595 14.123 8.78543 14.6081L8.74043 14.7334C8.72519 14.7744 8.72386 14.8193 8.73664 14.8611C8.74941 14.9029 8.77559 14.9394 8.81114 14.9649L9.6179 15.5434C9.64649 15.5702 9.66593 15.6052 9.67346 15.6436C9.681 15.6821 9.67625 15.7219 9.65989 15.7574C9.64353 15.793 9.61639 15.8225 9.58231 15.8418C9.54824 15.8611 9.50896 15.8691 9.47005 15.8648L8.42865 15.6913L7.38725 15.8841C7.34834 15.8884 7.30906 15.8804 7.27499 15.8611C7.24091 15.8418 7.21377 15.8123 7.19741 15.7767C7.18105 15.7412 7.1763 15.7013 7.18384 15.6629C7.19137 15.6245 7.21081 15.5894 7.2394 15.5627L8.04616 14.9841C8.08171 14.9587 8.10789 14.9222 8.12067 14.8804C8.13344 14.8386 8.13211 14.7937 8.11687 14.7527L8.07188 14.6274C7.8978 14.1423 7.80442 13.632 7.79546 13.1167C7.79548 13.113 7.79473 13.1094 7.79324 13.1061C7.79175 13.1027 7.78957 13.0997 7.78683 13.0973C7.78409 13.0948 7.78086 13.093 7.77736 13.0919C7.77386 13.0909 7.77016 13.0905 7.76653 13.091L4.83519 13.3835C4.79223 13.3882 4.74897 13.3776 4.71308 13.3535C4.67718 13.3295 4.65095 13.2935 4.63902 13.2519C4.6271 13.2104 4.63025 13.1659 4.64791 13.1265C4.66557 13.087 4.69662 13.0551 4.73555 13.0363L7.78581 11.4903V10.1404C7.78553 9.80024 7.87894 9.46662 8.0558 9.1761C8.09315 9.11351 8.1461 9.06168 8.20949 9.02569C8.27287 8.9897 8.34451 8.97077 8.4174 8.97077C8.49029 8.97077 8.56193 8.9897 8.62531 9.02569C8.6887 9.06168 8.74165 9.11351 8.779 9.1761C8.95586 9.46662 9.04927 9.80024 9.04899 10.1404V11.4903L12.1089 13.0203C12.1478 13.039 12.1789 13.071 12.1965 13.1104C12.2142 13.1499 12.2173 13.1943 12.2054 13.2358C12.1935 13.2774 12.1673 13.3134 12.1314 13.3375C12.0955 13.3615 12.0522 13.3721 12.0093 13.3674H12.0221ZM15.4999 15.0002C15.4999 15.1707 15.4321 15.3342 15.3116 15.4548C15.191 15.5753 15.0275 15.643 14.857 15.643C14.6865 15.643 14.523 15.5753 14.4025 15.4548C14.2819 15.3342 14.2142 15.1707 14.2142 15.0002V13.7145C14.2142 13.544 14.2819 13.3805 14.4025 13.26C14.523 13.1394 14.6865 13.0717 14.857 13.0717C15.0275 13.0717 15.191 13.1394 15.3116 13.26C15.4321 13.3805 15.4999 13.544 15.4999 13.7145V15.0002ZM15.4999 11.1432C15.4999 11.3137 15.4321 11.4772 15.3116 11.5977C15.191 11.7183 15.0275 11.786 14.857 11.786C14.6865 11.786 14.523 11.7183 14.4025 11.5977C14.2819 11.4772 14.2142 11.3137 14.2142 11.1432V9.85751C14.2142 9.68702 14.2819 9.52351 14.4025 9.40296C14.523 9.2824 14.6865 9.21468 14.857 9.21468C15.0275 9.21468 15.191 9.2824 15.3116 9.40296C15.4321 9.52351 15.4999 9.68702 15.4999 9.85751V11.1432Z" fill="white"/>
</svg>
