<svg width="24" height="24" viewBox="0 0 24 24" fill="none" xmlns="http://www.w3.org/2000/svg">
<g opacity="0.3">
<path d="M16.6429 17.0288C12.0501 17.0288 12.288 20.4199 12.288 20.4199H20.9977C20.9977 20.4199 21.2357 17.0288 16.6429 17.0288Z" fill="#F4BE2A"/>
<path d="M16.6422 15.7565C17.7596 15.7565 18.6654 14.8506 18.6654 13.7332C18.6654 12.6158 17.7596 11.71 16.6422 11.71C15.5247 11.71 14.6189 12.6158 14.6189 13.7332C14.6189 14.8506 15.5247 15.7565 16.6422 15.7565Z" fill="#F4BE2A"/>
<path d="M7.93677 8.31885C3.34397 8.31885 3.58193 11.7099 3.58193 11.7099H12.2916C12.2916 11.7099 12.5296 8.31885 7.93677 8.31885Z" fill="#F4BE2A"/>
<path d="M7.93696 7.04702C9.05438 7.04702 9.96022 6.14117 9.96022 5.02375C9.96022 3.90633 9.05438 3.00049 7.93696 3.00049C6.81954 3.00049 5.9137 3.90633 5.9137 5.02375C5.9137 6.14117 6.81954 7.04702 7.93696 7.04702Z" fill="#F4BE2A"/>
<path d="M10.7192 18.716H8.81055C8.00876 18.716 7.35638 18.0636 7.35638 17.2619V13.7335C7.35638 13.4128 7.61637 13.1528 7.93703 13.1528C8.25769 13.1528 8.51767 13.4128 8.51767 13.7335V17.2619C8.51767 17.4235 8.64894 17.5547 8.81055 17.5547H10.7192C11.0399 17.5547 11.2998 17.8147 11.2998 18.1354C11.2998 18.456 11.0399 18.716 10.7192 18.716Z" fill="#F4BE2A"/>
<path d="M16.8228 10.2678C16.5022 10.2678 16.2422 10.0078 16.2422 9.68714V6.15875C16.2422 5.99715 16.1109 5.86588 15.9493 5.86588H14.0407C13.72 5.86588 13.46 5.60589 13.46 5.28523C13.46 4.96458 13.72 4.70459 14.0407 4.70459H15.9493C16.7511 4.70459 17.4035 5.35697 17.4035 6.15875V9.68714C17.4035 10.0078 17.1435 10.2678 16.8228 10.2678Z" fill="#F4BE2A"/>
<path d="M16.8225 10.2674C16.6686 10.2674 16.5209 10.2062 16.412 10.0973L14.8904 8.57565C14.6635 8.34884 14.6635 7.9814 14.8904 7.75458C15.1172 7.52777 15.4846 7.52777 15.7114 7.75458L16.8225 8.86569L17.9334 7.75458C18.1602 7.52777 18.5276 7.52777 18.7544 7.75458C18.9812 7.98111 18.9812 8.34884 18.7544 8.57565L17.2331 10.0973C17.1242 10.2062 16.9765 10.2674 16.8225 10.2674Z" fill="#F4BE2A"/>
<path d="M9.45842 15.8358C9.30986 15.8358 9.1613 15.7791 9.04789 15.6657L7.93678 14.5546L6.82596 15.6657C6.59914 15.8925 6.2317 15.8925 6.00489 15.6657C5.77807 15.4392 5.77807 15.0714 6.00489 14.8446L7.52625 13.323C7.74399 13.1052 8.12957 13.1052 8.34732 13.323L9.86896 14.8446C10.0958 15.0714 10.0958 15.4389 9.86896 15.6657C9.75555 15.7791 9.60699 15.8358 9.45842 15.8358Z" fill="#F4BE2A"/>
</g>
<path d="M16.0623 17.6094C11.4695 17.6094 11.7075 21.0004 11.7075 21.0004H20.4171C20.4171 21.0004 20.6551 17.6094 16.0623 17.6094Z" fill="#F4BE2A"/>
<path d="M16.0623 16.3371C17.1797 16.3371 18.0856 15.4312 18.0856 14.3138C18.0856 13.1964 17.1797 12.2905 16.0623 12.2905C14.9449 12.2905 14.0391 13.1964 14.0391 14.3138C14.0391 15.4312 14.9449 16.3371 16.0623 16.3371Z" fill="#F4BE2A"/>
<path d="M7.35694 8.89941C2.76413 8.89941 3.0021 12.2905 3.0021 12.2905H11.7118C11.7118 12.2905 11.9497 8.89941 7.35694 8.89941Z" fill="#F4BE2A"/>
<path d="M7.35719 7.62758C8.4746 7.62758 9.38045 6.72174 9.38045 5.60432C9.38045 4.4869 8.4746 3.58105 7.35719 3.58105C6.23977 3.58105 5.33392 4.4869 5.33392 5.60432C5.33392 6.72174 6.23977 7.62758 7.35719 7.62758Z" fill="#F4BE2A"/>
<path d="M10.1393 19.2966H8.23062C7.42883 19.2966 6.77646 18.6442 6.77646 17.8424V14.314C6.77646 13.9934 7.03644 13.7334 7.3571 13.7334C7.67776 13.7334 7.93775 13.9934 7.93775 14.314V17.8424C7.93775 18.004 8.06902 18.1353 8.23062 18.1353H10.1393C10.4599 18.1353 10.7199 18.3953 10.7199 18.7159C10.7199 19.0366 10.4599 19.2966 10.1393 19.2966Z" fill="#F4BE2A"/>
<path d="M16.2428 10.8483C15.9222 10.8483 15.6622 10.5884 15.6622 10.2677V6.73932C15.6622 6.57772 15.5309 6.44645 15.3693 6.44645H13.4607C13.14 6.44645 12.88 6.18646 12.88 5.8658C12.88 5.54514 13.14 5.28516 13.4607 5.28516H15.3693C16.1711 5.28516 16.8235 5.93753 16.8235 6.73932V10.2677C16.8235 10.5884 16.5635 10.8483 16.2428 10.8483Z" fill="#F4BE2A"/>
<path d="M16.2426 10.848C16.0887 10.848 15.941 10.7867 15.8321 10.6779L14.3105 9.15622C14.0836 8.9294 14.0836 8.56196 14.3105 8.33515C14.5373 8.10834 14.9047 8.10834 15.1315 8.33515L16.2426 9.44626L17.3535 8.33515C17.5803 8.10834 17.9477 8.10834 18.1745 8.33515C18.4013 8.56168 18.4013 8.9294 18.1745 9.15622L16.6532 10.6779C16.5443 10.7867 16.3966 10.848 16.2426 10.848Z" fill="#F4BE2A"/>
<path d="M8.87783 16.4164C8.72926 16.4164 8.5807 16.3597 8.46729 16.2463L7.35618 15.1351L6.24536 16.2463C6.01855 16.4731 5.65111 16.4731 5.42429 16.2463C5.19748 16.0197 5.19748 15.652 5.42429 15.4252L6.94565 13.9035C7.16339 13.6858 7.54898 13.6858 7.76672 13.9035L9.28836 15.4252C9.51517 15.652 9.51517 16.0194 9.28836 16.2463C9.17495 16.3597 9.02639 16.4164 8.87783 16.4164Z" fill="#F4BE2A"/>
</svg>
