<svg width="24" height="24" viewBox="0 0 24 24" fill="none" xmlns="http://www.w3.org/2000/svg">
<g opacity="0.3">
<path d="M6 5.65285V17.9045C6 19.0599 6.94064 20.0006 8.09612 20.0006H17.1658C18.3213 20.0006 19.2619 19.0599 19.2619 17.9045V5.65285C19.2619 4.49738 18.3213 3.55673 17.1658 3.55673H17.0961C17.1309 3.73092 17.1484 3.91092 17.1484 4.09673V4.75867C17.1654 6.20312 15.9523 7.4432 14.4716 7.43544H10.7903C9.50127 7.43544 8.41546 6.51801 8.16579 5.29867C8.08386 4.76761 8.08467 4.08773 8.16576 3.55674C6.98679 3.51917 5.9977 4.47143 6 5.65285ZM15.6967 16.0986H9.56513C8.4239 16.0777 8.41972 14.3822 9.56513 14.3567H15.6968C16.8388 14.3815 16.8413 16.077 15.6967 16.0986ZM15.6967 13.0212H9.56513C8.42309 12.9964 8.42057 11.3009 9.56513 11.2793H15.6968C16.838 11.3003 16.8422 12.9957 15.6967 13.0212ZM9.56513 8.19608H15.6968C16.8387 8.21685 16.8421 9.9166 15.6967 9.93801H9.56513C8.42316 9.91725 8.41979 8.21748 9.56513 8.19608Z" fill="white"/>
<path d="M14.4714 2.00051H10.7902C9.82046 2.00051 9.00757 2.66245 8.76371 3.55663C8.65559 3.86804 8.7057 4.42749 8.69401 4.75857C8.68522 5.88662 9.62923 6.86004 10.7902 6.85469H14.4714C15.4411 6.85469 16.254 6.19275 16.4979 5.29857C16.606 4.98716 16.5559 4.42771 16.5676 4.09663C16.5764 2.96858 15.6324 1.99516 14.4714 2.00051ZM14.8256 4.75857C14.8256 4.95597 14.663 5.11276 14.4714 5.11276H10.7902C10.2853 5.10312 10.4669 4.41123 10.4359 4.09663C10.4359 3.89919 10.5985 3.74244 10.7902 3.74244H14.4714C14.9763 3.75205 14.7947 4.44397 14.8256 4.75857Z" fill="white"/>
</g>
<path d="M5 6.65285V18.9045C5 20.0599 5.94064 21.0006 7.09612 21.0006H16.1658C17.3213 21.0006 18.2619 20.0599 18.2619 18.9045V6.65285C18.2619 5.49738 17.3213 4.55673 16.1658 4.55673H16.0961C16.1309 4.73092 16.1484 4.91092 16.1484 5.09673V5.75867C16.1654 7.20312 14.9523 8.4432 13.4716 8.43544H9.79032C8.50127 8.43544 7.41546 7.51801 7.16579 6.29867C7.08386 5.76761 7.08467 5.08773 7.16576 4.55674C5.98679 4.51917 4.9977 5.47143 5 6.65285ZM14.6967 17.0986H8.56513C7.4239 17.0777 7.41972 15.3822 8.56513 15.3567H14.6968C15.8388 15.3815 15.8413 17.077 14.6967 17.0986ZM14.6967 14.0212H8.56513C7.42309 13.9964 7.42057 12.3009 8.56513 12.2793H14.6968C15.838 12.3003 15.8422 13.9957 14.6967 14.0212ZM8.56513 9.19608H14.6968C15.8387 9.21685 15.8421 10.9166 14.6967 10.938H8.56513C7.42316 10.9172 7.41979 9.21748 8.56513 9.19608Z" fill="white"/>
<path d="M13.4714 3.00051H9.79016C8.82046 3.00051 8.00757 3.66245 7.76371 4.55663C7.65559 4.86804 7.7057 5.42749 7.69401 5.75857C7.68522 6.88662 8.62923 7.86004 9.79016 7.85469H13.4714C14.4411 7.85469 15.254 7.19275 15.4979 6.29857C15.606 5.98716 15.5559 5.42771 15.5676 5.09663C15.5764 3.96858 14.6324 2.99516 13.4714 3.00051ZM13.8256 5.75857C13.8256 5.95597 13.663 6.11276 13.4714 6.11276H9.79016C9.28528 6.10312 9.46691 5.41123 9.43594 5.09663C9.43594 4.89919 9.59854 4.74244 9.79016 4.74244H13.4714C13.9763 4.75205 13.7947 5.44397 13.8256 5.75857Z" fill="white"/>
</svg>
