<svg width="24" height="24" viewBox="0 0 24 24" fill="none" xmlns="http://www.w3.org/2000/svg">
<path opacity="0.3" d="M14.2046 3.00049H8.25C7.65326 3.00049 7.08097 3.23754 6.65901 3.6595C6.23705 4.08145 6 4.65375 6 5.25049V18.7505C6 19.3472 6.23705 19.9195 6.65901 20.3415C7.08097 20.7634 7.65326 21.0005 8.25 21.0005H17.25C17.8467 21.0005 18.419 20.7634 18.841 20.3415C19.2629 19.9195 19.5 19.3472 19.5 18.7505V8.29586C19.4999 7.99752 19.3814 7.71142 19.1704 7.50049L15 3.33011C14.7891 3.11912 14.503 3.00055 14.2046 3.00049ZM14.4375 6.93799V4.68799L17.8125 8.06299H15.5625C15.2641 8.06299 14.978 7.94446 14.767 7.73348C14.556 7.5225 14.4375 7.23636 14.4375 6.93799ZM15 18.188V11.438C15 11.2888 15.0593 11.1457 15.1648 11.0402C15.2702 10.9348 15.4133 10.8755 15.5625 10.8755H16.6875C16.8367 10.8755 16.9798 10.9348 17.0852 11.0402C17.1907 11.1457 17.25 11.2888 17.25 11.438V18.188C17.25 18.3372 17.1907 18.4802 17.0852 18.5857C16.9798 18.6912 16.8367 18.7505 16.6875 18.7505H15.5625C15.4133 18.7505 15.2702 18.6912 15.1648 18.5857C15.0593 18.4802 15 18.3372 15 18.188ZM12.1875 18.7505C12.0383 18.7505 11.8952 18.6912 11.7898 18.5857C11.6843 18.4802 11.625 18.3372 11.625 18.188V13.688C11.625 13.5388 11.6843 13.3957 11.7898 13.2902C11.8952 13.1848 12.0383 13.1255 12.1875 13.1255H13.3125C13.4617 13.1255 13.6048 13.1848 13.7102 13.2902C13.8157 13.3957 13.875 13.5388 13.875 13.688V18.188C13.875 18.3372 13.8157 18.4802 13.7102 18.5857C13.6048 18.6912 13.4617 18.7505 13.3125 18.7505H12.1875ZM8.8125 18.7505C8.66332 18.7505 8.52024 18.6912 8.41475 18.5857C8.30926 18.4802 8.25 18.3372 8.25 18.188V15.938C8.25 15.7888 8.30926 15.6457 8.41475 15.5402C8.52024 15.4348 8.66332 15.3755 8.8125 15.3755H9.9375C10.0867 15.3755 10.2298 15.4348 10.3352 15.5402C10.4407 15.6457 10.5 15.7888 10.5 15.938V18.188C10.5 18.3372 10.4407 18.4802 10.3352 18.5857C10.2298 18.6912 10.0867 18.7505 9.9375 18.7505H8.8125Z" fill="#F4BE2A"/>
<path d="M13.2046 4.00049H7.25C6.65326 4.00049 6.08097 4.23754 5.65901 4.6595C5.23705 5.08145 5 5.65375 5 6.25049V19.7505C5 20.3472 5.23705 20.9195 5.65901 21.3415C6.08097 21.7634 6.65326 22.0005 7.25 22.0005H16.25C16.8467 22.0005 17.419 21.7634 17.841 21.3415C18.2629 20.9195 18.5 20.3472 18.5 19.7505V9.29586C18.4999 8.99752 18.3814 8.71142 18.1704 8.50049L14 4.33011C13.7891 4.11912 13.503 4.00055 13.2046 4.00049ZM13.4375 7.93799V5.68799L16.8125 9.06299H14.5625C14.2641 9.06299 13.978 8.94446 13.767 8.73348C13.556 8.5225 13.4375 8.23636 13.4375 7.93799ZM14 19.188V12.438C14 12.2888 14.0593 12.1457 14.1648 12.0402C14.2702 11.9348 14.4133 11.8755 14.5625 11.8755H15.6875C15.8367 11.8755 15.9798 11.9348 16.0852 12.0402C16.1907 12.1457 16.25 12.2888 16.25 12.438V19.188C16.25 19.3372 16.1907 19.4802 16.0852 19.5857C15.9798 19.6912 15.8367 19.7505 15.6875 19.7505H14.5625C14.4133 19.7505 14.2702 19.6912 14.1648 19.5857C14.0593 19.4802 14 19.3372 14 19.188ZM11.1875 19.7505C11.0383 19.7505 10.8952 19.6912 10.7898 19.5857C10.6843 19.4802 10.625 19.3372 10.625 19.188V14.688C10.625 14.5388 10.6843 14.3957 10.7898 14.2902C10.8952 14.1848 11.0383 14.1255 11.1875 14.1255H12.3125C12.4617 14.1255 12.6048 14.1848 12.7102 14.2902C12.8157 14.3957 12.875 14.5388 12.875 14.688V19.188C12.875 19.3372 12.8157 19.4802 12.7102 19.5857C12.6048 19.6912 12.4617 19.7505 12.3125 19.7505H11.1875ZM7.8125 19.7505C7.66332 19.7505 7.52024 19.6912 7.41475 19.5857C7.30926 19.4802 7.25 19.3372 7.25 19.188V16.938C7.25 16.7888 7.30926 16.6457 7.41475 16.5402C7.52024 16.4348 7.66332 16.3755 7.8125 16.3755H8.9375C9.08668 16.3755 9.22976 16.4348 9.33525 16.5402C9.44074 16.6457 9.5 16.7888 9.5 16.938V19.188C9.5 19.3372 9.44074 19.4802 9.33525 19.5857C9.22976 19.6912 9.08668 19.7505 8.9375 19.7505H7.8125Z" fill="#F4BE2A"/>
</svg>
