<svg width="24" height="24" viewBox="0 0 24 24" fill="none" xmlns="http://www.w3.org/2000/svg">
<g opacity="0.3">
<path d="M21.6224 10.0354L20.6298 9.81715C20.4427 9.77614 20.299 9.629 20.2593 9.44148C20.1022 8.69906 19.8344 7.9978 19.4729 7.35587C19.3845 7.19898 19.3901 7.00631 19.4872 6.85464L20.0942 5.907C20.2178 5.71415 20.1904 5.46133 20.0284 5.29937L19.0212 4.29206C18.8592 4.1301 18.6065 4.10276 18.4136 4.22625L17.5664 4.76873C17.4053 4.87188 17.1991 4.87051 17.0384 4.76655C16.4155 4.36325 15.7282 4.05125 14.9952 3.8491C14.8212 3.80113 14.6882 3.6608 14.6495 3.4845L14.4099 2.38757C14.3609 2.16382 14.1627 2.00049 13.9337 2.00049H12.509C12.28 2.00049 12.0819 2.16382 12.0329 2.38757L11.8158 3.37965C11.775 3.56583 11.6292 3.71143 11.4431 3.75191C10.7028 3.9131 10.0042 4.18551 9.36493 4.5501C9.2076 4.63973 9.01386 4.63532 8.8613 4.53766L7.90455 3.92499C7.7117 3.80158 7.45881 3.82898 7.29692 3.99088L6.28954 4.99829C6.12757 5.16018 6.10024 5.41311 6.22372 5.60596L6.78413 6.48112C6.88676 6.64134 6.88599 6.84623 6.78354 7.00668C6.39183 7.62024 6.08817 8.29532 5.89024 9.01429C5.84227 9.18847 5.70201 9.32173 5.52549 9.36051L4.386 9.60959C4.16226 9.6587 4 9.85685 4 10.0859V11.5104C4 11.7395 4.16226 11.9376 4.386 11.9867L5.42779 12.2147C5.61349 12.2554 5.75853 12.4006 5.79957 12.5862C5.95894 13.3067 6.22398 13.9876 6.57658 14.6122C6.66532 14.7694 6.66058 14.9623 6.56321 15.1143L5.92257 16.115C5.79902 16.3078 5.82646 16.5606 5.98842 16.7226L6.9958 17.73C7.15777 17.8919 7.41055 17.9193 7.6034 17.7957L8.5123 17.2138C8.67289 17.1109 8.87811 17.1121 9.03878 17.215C9.64131 17.6009 10.3034 17.9018 11.0084 18.101C11.1812 18.1498 11.3131 18.2895 11.3515 18.4648L11.6071 19.624C11.6561 19.8477 11.8543 20.0006 12.0833 20.0006H13.5079C13.737 20.0006 13.935 19.8477 13.9841 19.624L14.2133 18.5816C14.2543 18.3949 14.4009 18.2518 14.5877 18.2115C15.3104 18.0561 15.9939 17.7959 16.6213 17.4463C16.778 17.3589 16.9698 17.3648 17.1209 17.4615L18.1124 18.0967C18.3053 18.2202 18.5581 18.1928 18.72 18.031L19.7274 17.0236C19.8892 16.8617 19.9166 16.6088 19.7932 16.416L19.2291 15.5352C19.1258 15.3738 19.1275 15.1672 19.2318 15.0064C19.6293 14.3945 19.9386 13.72 20.142 13.0011C20.1909 12.8284 20.3307 12.6968 20.5058 12.6585L21.6223 12.4124C21.8461 12.3634 22 12.1652 22 11.9362V10.5116C22.0001 10.2826 21.8462 10.0845 21.6224 10.0354ZM12.9596 16.6334C9.91223 16.6334 7.44177 14.163 7.44177 11.1156C7.44177 8.06828 9.9122 5.59785 12.9596 5.59785C16.0069 5.59785 18.4773 8.06828 18.4773 11.1156C18.4773 14.163 16.0069 16.6334 12.9596 16.6334Z" fill="white"/>
<path d="M10.8229 10.3398C11.3037 10.3398 11.6934 9.94994 11.6934 9.46923C11.6934 8.98841 11.3037 8.59863 10.8229 8.59863C10.3421 8.59863 9.95236 8.98838 9.95236 9.46923C9.95236 9.94994 10.3421 10.3398 10.8229 10.3398Z" fill="white"/>
<path d="M15.2478 10.3398C15.7287 10.3398 16.1184 9.94994 16.1184 9.46923C16.1184 8.98841 15.7287 8.59863 15.2478 8.59863C14.7671 8.59863 14.3773 8.98838 14.3773 9.46923C14.3773 9.94994 14.7671 10.3398 15.2478 10.3398Z" fill="white"/>
<path d="M13.0321 10.9009C13.5129 10.9009 13.9027 10.5111 13.9027 10.0303C13.9027 9.54945 13.5129 9.15967 13.0321 9.15967C12.5513 9.15967 12.1615 9.54945 12.1615 10.0303C12.1615 10.5111 12.5513 10.9009 13.0321 10.9009Z" fill="white"/>
<path d="M13.0001 11.2461C12.0694 11.2461 11.3334 12.0006 11.3334 12.9312V13.2772C11.3334 13.3446 11.3932 13.4082 11.4607 13.4082H14.5869C14.6542 13.4082 14.6668 13.3446 14.6668 13.2772V12.9312C14.6668 12.0006 13.9308 11.2461 13.0001 11.2461Z" fill="white"/>
<path d="M11.9297 11.1166C11.6329 10.8527 11.215 10.6885 10.787 10.6885C9.85613 10.6885 9.07413 11.4399 9.07413 12.3699V12.7156C9.07413 12.7832 9.18405 12.8524 9.25161 12.8524H10.9243C10.9613 12.0746 11.3532 11.4867 11.9297 11.1166Z" fill="white"/>
<path d="M15.2405 10.6851C14.8106 10.6851 14.4195 10.8544 14.1223 11.1192C14.6965 11.4891 15.0862 12.0748 15.1232 12.8526H16.8024C16.8699 12.8526 16.926 12.7834 16.926 12.7159V12.3701C16.926 11.9051 16.737 11.4834 16.4321 11.1792C16.1271 10.8734 15.7063 10.6851 15.2405 10.6851Z" fill="white"/>
</g>
<path d="M20.6224 11.0354L19.6298 10.8171C19.4427 10.7761 19.299 10.629 19.2593 10.4415C19.1022 9.69906 18.8344 8.9978 18.4729 8.35587C18.3845 8.19898 18.3901 8.00631 18.4872 7.85464L19.0942 6.907C19.2178 6.71415 19.1904 6.46133 19.0284 6.29937L18.0212 5.29206C17.8592 5.1301 17.6065 5.10276 17.4136 5.22625L16.5664 5.76873C16.4053 5.87188 16.1991 5.87051 16.0384 5.76655C15.4155 5.36325 14.7282 5.05125 13.9952 4.8491C13.8212 4.80113 13.6882 4.6608 13.6495 4.4845L13.4099 3.38757C13.3609 3.16382 13.1627 3.00049 12.9337 3.00049H11.509C11.28 3.00049 11.0819 3.16382 11.0329 3.38757L10.8158 4.37965C10.775 4.56583 10.6292 4.71143 10.4431 4.75191C9.70283 4.9131 9.00416 5.18551 8.36493 5.5501C8.2076 5.63973 8.01386 5.63532 7.8613 5.53766L6.90455 4.92499C6.7117 4.80158 6.45881 4.82898 6.29692 4.99088L5.28954 5.99829C5.12757 6.16018 5.10024 6.41311 5.22372 6.60596L5.78413 7.48112C5.88676 7.64134 5.88599 7.84623 5.78354 8.00668C5.39183 8.62024 5.08817 9.29532 4.89024 10.0143C4.84227 10.1885 4.70201 10.3217 4.52549 10.3605L3.386 10.6096C3.16226 10.6587 3 10.8568 3 11.0859V12.5104C3 12.7395 3.16226 12.9376 3.386 12.9867L4.42779 13.2147C4.61349 13.2554 4.75853 13.4006 4.79957 13.5862C4.95894 14.3067 5.22398 14.9876 5.57658 15.6122C5.66532 15.7694 5.66058 15.9623 5.56321 16.1143L4.92257 17.115C4.79902 17.3078 4.82646 17.5606 4.98842 17.7226L5.9958 18.73C6.15777 18.8919 6.41055 18.9193 6.6034 18.7957L7.5123 18.2138C7.67289 18.1109 7.87811 18.1121 8.03878 18.215C8.64131 18.6009 9.30342 18.9018 10.0084 19.101C10.1812 19.1498 10.3131 19.2895 10.3515 19.4648L10.6071 20.624C10.6561 20.8477 10.8543 21.0006 11.0833 21.0006H12.5079C12.737 21.0006 12.935 20.8477 12.9841 20.624L13.2133 19.5816C13.2543 19.3949 13.4009 19.2518 13.5877 19.2115C14.3104 19.0561 14.9939 18.7959 15.6213 18.4463C15.778 18.3589 15.9698 18.3648 16.1209 18.4615L17.1124 19.0967C17.3053 19.2202 17.5581 19.1928 17.72 19.031L18.7274 18.0236C18.8892 17.8617 18.9166 17.6088 18.7932 17.416L18.2291 16.5352C18.1258 16.3738 18.1275 16.1672 18.2318 16.0064C18.6293 15.3945 18.9386 14.72 19.142 14.0011C19.1909 13.8284 19.3307 13.6968 19.5058 13.6585L20.6223 13.4124C20.8461 13.3634 21 13.1652 21 12.9362V11.5116C21.0001 11.2826 20.8462 11.0845 20.6224 11.0354ZM11.9596 17.6334C8.91223 17.6334 6.44177 15.163 6.44177 12.1156C6.44177 9.06828 8.9122 6.59785 11.9596 6.59785C15.0069 6.59785 17.4773 9.06828 17.4773 12.1156C17.4773 15.163 15.0069 17.6334 11.9596 17.6334Z" fill="white"/>
<path d="M9.82289 11.3398C10.3037 11.3398 10.6934 10.9499 10.6934 10.4692C10.6934 9.98841 10.3037 9.59863 9.82289 9.59863C9.34214 9.59863 8.95236 9.98838 8.95236 10.4692C8.95236 10.9499 9.34211 11.3398 9.82289 11.3398Z" fill="white"/>
<path d="M14.2478 11.3398C14.7287 11.3398 15.1184 10.9499 15.1184 10.4692C15.1184 9.98841 14.7287 9.59863 14.2478 9.59863C13.7671 9.59863 13.3773 9.98838 13.3773 10.4692C13.3773 10.9499 13.7671 11.3398 14.2478 11.3398Z" fill="white"/>
<path d="M12.0321 11.9009C12.5129 11.9009 12.9027 11.5111 12.9027 11.0303C12.9027 10.5494 12.5129 10.1597 12.0321 10.1597C11.5513 10.1597 11.1615 10.5494 11.1615 11.0303C11.1615 11.5111 11.5513 11.9009 12.0321 11.9009Z" fill="white"/>
<path d="M12.0001 12.2461C11.0694 12.2461 10.3334 13.0006 10.3334 13.9312V14.2772C10.3334 14.3446 10.3932 14.4082 10.4607 14.4082H13.5869C13.6542 14.4082 13.6668 14.3446 13.6668 14.2772V13.9312C13.6668 13.0006 12.9308 12.2461 12.0001 12.2461Z" fill="white"/>
<path d="M10.9297 12.1166C10.6329 11.8527 10.215 11.6885 9.78699 11.6885C8.85613 11.6885 8.07413 12.4399 8.07413 13.3699V13.7156C8.07413 13.7832 8.18405 13.8524 8.25161 13.8524H9.92429C9.96125 13.0746 10.3532 12.4867 10.9297 12.1166Z" fill="white"/>
<path d="M14.2405 11.6851C13.8106 11.6851 13.4195 11.8544 13.1223 12.1192C13.6965 12.4891 14.0862 13.0748 14.1232 13.8526H15.8024C15.8699 13.8526 15.926 13.7834 15.926 13.7159V13.3701C15.926 12.9051 15.737 12.4834 15.4321 12.1792C15.1271 11.8734 14.7063 11.6851 14.2405 11.6851Z" fill="white"/>
</svg>
