<svg width="24" height="24" viewBox="0 0 24 24" fill="none" xmlns="http://www.w3.org/2000/svg">
<g opacity="0.3">
<path d="M8.95647 20.0008H6.55499C6.20338 20.0008 5.91858 19.7125 5.91858 19.3644V14.4489C5.91858 14.0973 6.2069 13.8125 6.55499 13.8125H8.95647C9.30808 13.8125 9.59288 14.1008 9.59288 14.4489V19.3644C9.5964 19.716 9.30808 20.0008 8.95647 20.0008Z" fill="#F4BE2A"/>
<path d="M14.1989 20.0011H12.026C11.6146 20.0011 11.2736 19.6636 11.2736 19.2487V12.1567C11.2736 11.7454 11.6111 11.4043 12.026 11.4043H14.1989C14.6103 11.4043 14.9514 11.7418 14.9514 12.1567V19.2487C14.9514 19.6636 14.6138 20.0011 14.1989 20.0011Z" fill="#F4BE2A"/>
<path d="M19.459 20.0006H17.4794C17.0118 20.0006 16.632 19.6174 16.632 19.1533V9.88839C16.632 9.42075 17.0153 9.04102 17.4794 9.04102H19.459C19.9266 9.04102 20.3064 9.42427 20.3064 9.88839V19.1533C20.3064 19.6209 19.9266 20.0006 19.459 20.0006Z" fill="#F4BE2A"/>
<path d="M19.7616 2.00119C18.988 2.03284 18.3868 2.68683 18.4184 3.46388L14.8461 6.97644L11.8011 4.31126L6.22817 9.90182C5.51089 9.99324 4.97293 10.6121 5.00105 11.3469C5.0327 12.1205 5.69021 12.7217 6.46374 12.6901C7.23728 12.6584 7.83853 12.0009 7.80689 11.2274C7.80337 11.1641 7.7893 11.1043 7.77876 11.041L11.9734 7.01512L14.9164 9.59241L19.7932 4.80351C19.8213 4.80351 19.8495 4.81054 19.8776 4.80702C20.6511 4.77538 21.2524 4.11787 21.2207 3.34434C21.1891 2.5708 20.5351 1.96955 19.7616 2.00119Z" fill="#F4BE2A"/>
</g>
<path d="M7.95647 21.0008H5.55499C5.20338 21.0008 4.91858 20.7125 4.91858 20.3644V15.4489C4.91858 15.0973 5.2069 14.8125 5.55499 14.8125H7.95647C8.30808 14.8125 8.59288 15.1008 8.59288 15.4489V20.3644C8.5964 20.716 8.30808 21.0008 7.95647 21.0008Z" fill="#F4BE2A"/>
<path d="M13.1989 21.0011H11.026C10.6146 21.0011 10.2736 20.6636 10.2736 20.2487V13.1567C10.2736 12.7454 10.6111 12.4043 11.026 12.4043H13.1989C13.6103 12.4043 13.9514 12.7418 13.9514 13.1567V20.2487C13.9514 20.6636 13.6138 21.0011 13.1989 21.0011Z" fill="#F4BE2A"/>
<path d="M18.459 21.0006H16.4794C16.0118 21.0006 15.632 20.6174 15.632 20.1533V10.8884C15.632 10.4208 16.0153 10.041 16.4794 10.041H18.459C18.9266 10.041 19.3064 10.4243 19.3064 10.8884V20.1533C19.3064 20.6209 18.9266 21.0006 18.459 21.0006Z" fill="#F4BE2A"/>
<path d="M18.7616 3.00119C17.988 3.03284 17.3868 3.68683 17.4184 4.46388L13.8461 7.97644L10.8011 5.31126L5.22817 10.9018C4.51089 10.9932 3.97293 11.6121 4.00105 12.3469C4.0327 13.1205 4.69021 13.7217 5.46374 13.6901C6.23728 13.6584 6.83853 13.0009 6.80689 12.2274C6.80337 12.1641 6.7893 12.1043 6.77876 12.041L10.9734 8.01512L13.9164 10.5924L18.7932 5.80351C18.8213 5.80351 18.8495 5.81054 18.8776 5.80702C19.6511 5.77538 20.2524 5.11787 20.2207 4.34434C20.1891 3.5708 19.5351 2.96955 18.7616 3.00119Z" fill="#F4BE2A"/>
</svg>
