<svg width="24" height="24" viewBox="0 0 24 24" fill="none" xmlns="http://www.w3.org/2000/svg">
<g opacity="0.3">
<path d="M8.95647 19.9998H6.55499C6.20338 19.9998 5.91858 19.7115 5.91858 19.3634V14.4479C5.91858 14.0963 6.2069 13.8115 6.55499 13.8115H8.95647C9.30808 13.8115 9.59288 14.0998 9.59288 14.4479V19.3634C9.5964 19.715 9.30808 19.9998 8.95647 19.9998Z" fill="white"/>
<path d="M14.1989 19.9992H12.026C11.6146 19.9992 11.2736 19.6616 11.2736 19.2467V12.1548C11.2736 11.7434 11.6111 11.4023 12.026 11.4023H14.1989C14.6103 11.4023 14.9514 11.7399 14.9514 12.1548V19.2467C14.9514 19.6616 14.6138 19.9992 14.1989 19.9992Z" fill="white"/>
<path d="M19.459 19.9997H17.4794C17.0118 19.9997 16.632 19.6164 16.632 19.1523V9.88741C16.632 9.41978 17.0153 9.04004 17.4794 9.04004H19.459C19.9266 9.04004 20.3064 9.42329 20.3064 9.88741V19.1523C20.3064 19.6199 19.9266 19.9997 19.459 19.9997Z" fill="white"/>
<path d="M19.7616 2.00119C18.988 2.03284 18.3868 2.68683 18.4184 3.46388L14.8461 6.97644L11.8011 4.31126L6.22817 9.90182C5.51089 9.99324 4.97293 10.6121 5.00105 11.3469C5.0327 12.1205 5.69021 12.7217 6.46374 12.6901C7.23728 12.6584 7.83853 12.0009 7.80689 11.2274C7.80337 11.1641 7.7893 11.1043 7.77876 11.041L11.9734 7.01512L14.9164 9.59241L19.7932 4.80351C19.8213 4.80351 19.8495 4.81054 19.8776 4.80702C20.6511 4.77538 21.2524 4.11787 21.2207 3.34434C21.1891 2.5708 20.5351 1.96955 19.7616 2.00119Z" fill="white"/>
</g>
<path d="M7.95647 20.9998H5.55499C5.20338 20.9998 4.91858 20.7115 4.91858 20.3634V15.4479C4.91858 15.0963 5.2069 14.8115 5.55499 14.8115H7.95647C8.30808 14.8115 8.59288 15.0998 8.59288 15.4479V20.3634C8.5964 20.715 8.30808 20.9998 7.95647 20.9998Z" fill="white"/>
<path d="M13.1989 20.9992H11.026C10.6146 20.9992 10.2736 20.6616 10.2736 20.2467V13.1548C10.2736 12.7434 10.6111 12.4023 11.026 12.4023H13.1989C13.6103 12.4023 13.9514 12.7399 13.9514 13.1548V20.2467C13.9514 20.6616 13.6138 20.9992 13.1989 20.9992Z" fill="white"/>
<path d="M18.459 20.9997H16.4794C16.0118 20.9997 15.632 20.6164 15.632 20.1523V10.8874C15.632 10.4198 16.0153 10.04 16.4794 10.04H18.459C18.9266 10.04 19.3064 10.4233 19.3064 10.8874V20.1523C19.3064 20.6199 18.9266 20.9997 18.459 20.9997Z" fill="white"/>
<path d="M18.7616 3.00119C17.988 3.03284 17.3868 3.68683 17.4184 4.46388L13.8461 7.97644L10.8011 5.31126L5.22817 10.9018C4.51089 10.9932 3.97293 11.6121 4.00105 12.3469C4.0327 13.1205 4.69021 13.7217 5.46374 13.6901C6.23728 13.6584 6.83853 13.0009 6.80689 12.2274C6.80337 12.1641 6.7893 12.1043 6.77876 12.041L10.9734 8.01512L13.9164 10.5924L18.7932 5.80351C18.8213 5.80351 18.8495 5.81054 18.8776 5.80702C19.6511 5.77538 20.2524 5.11787 20.2207 4.34434C20.1891 3.5708 19.5351 2.96955 18.7616 3.00119Z" fill="white"/>
</svg>
