<svg width="24" height="24" viewBox="0 0 24 24" fill="none" xmlns="http://www.w3.org/2000/svg">
<path opacity="0.3" d="M17.5778 2H6.77271C5.79842 2 5 2.80897 5 3.79381V18.197C5 19.1819 5.79842 19.9908 6.77271 19.9908C7.66258 20.1562 9.3579 18.0669 11.6547 14.9682C12.0697 14.4125 12.4214 14.6376 12.6571 14.9611C15.2071 18.4643 17.0396 20.1034 17.5778 19.9908C18.552 19.9908 19.3505 19.1854 19.3505 18.197V3.79381C19.3505 2.80897 18.552 2 17.5778 2ZM10.4447 4.83492L11.2537 4.71885C11.3663 4.70126 11.4612 4.63444 11.5105 4.53244L11.8727 3.80084C11.9994 3.5476 12.3581 3.5476 12.4848 3.80084L12.8435 4.52892C12.8928 4.63092 12.9877 4.69775 13.1003 4.71533L13.9092 4.8314C14.1906 4.87361 14.2997 5.21479 14.0992 5.41175L13.5118 5.98507C13.4309 6.06245 13.3957 6.175 13.4133 6.28755L13.5505 7.09301C13.5997 7.37087 13.3043 7.58543 13.0546 7.45177L12.3335 7.07191C12.235 7.01915 12.1154 7.01915 12.017 7.07191L11.2959 7.45177C11.0462 7.58191 10.7543 7.37087 10.8 7.09301L10.9372 6.28755C10.9547 6.17852 10.9196 6.06245 10.8387 5.98507L10.2548 5.41527C10.0508 5.2183 10.1634 4.87361 10.4447 4.83492ZM17.3632 11.4157C17.3632 11.6971 17.1311 11.9293 16.8497 11.9293H7.50078C7.2194 11.9293 6.98726 11.6971 6.98726 11.4157V11.2539C6.98726 10.9726 7.2194 10.7404 7.50078 10.7404H16.8497C17.1311 10.7404 17.3632 10.9726 17.3632 11.2539V11.4157ZM17.3632 9.07323C17.3632 9.35462 17.1311 9.58676 16.8497 9.58676H7.50078C7.2194 9.58676 6.98726 9.35462 6.98726 9.07323V8.91144C6.98726 8.63006 7.2194 8.39792 7.50078 8.39792H16.8497C17.1311 8.39792 17.3632 8.63006 17.3632 8.91144V9.07323Z" fill="#F4BE2A"/>
<path d="M16.5778 3H5.77271C4.79842 3 4 3.80897 4 4.79381V19.197C4 20.1819 4.79842 20.9908 5.77271 20.9908C6.66258 21.1562 8.3579 19.0669 10.6547 15.9682C11.0697 15.4125 11.4214 15.6376 11.6571 15.9611C14.2071 19.4643 16.0396 21.1034 16.5778 20.9908C17.552 20.9908 18.3505 20.1854 18.3505 19.197V4.79381C18.3505 3.80897 17.552 3 16.5778 3ZM9.44474 5.83492L10.2537 5.71885C10.3663 5.70126 10.4612 5.63444 10.5105 5.53244L10.8727 4.80084C10.9994 4.5476 11.3581 4.5476 11.4848 4.80084L11.8435 5.52892C11.8928 5.63092 11.9877 5.69775 12.1003 5.71533L12.9092 5.8314C13.1906 5.87361 13.2997 6.21479 13.0992 6.41175L12.5118 6.98507C12.4309 7.06245 12.3957 7.175 12.4133 7.28755L12.5505 8.09301C12.5997 8.37087 12.3043 8.58543 12.0546 8.45177L11.3335 8.07191C11.235 8.01915 11.1154 8.01915 11.017 8.07191L10.2959 8.45177C10.0462 8.58191 9.75426 8.37087 9.79998 8.09301L9.93716 7.28755C9.95474 7.17852 9.91957 7.06245 9.83867 6.98507L9.2548 6.41527C9.0508 6.2183 9.16336 5.87361 9.44474 5.83492ZM16.3632 12.4157C16.3632 12.6971 16.1311 12.9293 15.8497 12.9293H6.50078C6.2194 12.9293 5.98726 12.6971 5.98726 12.4157V12.2539C5.98726 11.9726 6.2194 11.7404 6.50078 11.7404H15.8497C16.1311 11.7404 16.3632 11.9726 16.3632 12.2539V12.4157ZM16.3632 10.0732C16.3632 10.3546 16.1311 10.5868 15.8497 10.5868H6.50078C6.2194 10.5868 5.98726 10.3546 5.98726 10.0732V9.91144C5.98726 9.63006 6.2194 9.39792 6.50078 9.39792H15.8497C16.1311 9.39792 16.3632 9.63006 16.3632 9.91144V10.0732Z" fill="#F4BE2A"/>
</svg>
