<svg width="24" height="24" viewBox="0 0 24 24" fill="none" xmlns="http://www.w3.org/2000/svg">
<g opacity="0.3">
<path d="M18.7036 11.4343V12.1723C18.7036 12.3375 18.5666 12.4745 18.4014 12.4745H17.2347C17.0695 12.4745 16.9324 12.3375 16.9324 12.1723V11.8911L12.993 12.9103L9.18352 11.9263V12.1723C9.18352 12.3375 9.04646 12.4745 8.88129 12.4745H7.71456C7.54939 12.4745 7.41233 12.3375 7.41233 12.1723V11.4694L4.56931 10.7139V16.6635C4.56931 17.521 5.28621 18.259 6.2456 18.259H19.7368C20.6962 18.259 21.4026 17.5175 21.4026 16.6635V10.7139L18.7036 11.4343Z" fill="white"/>
<path d="M19.7404 19.0952H6.24914C5.28975 19.0952 4.57635 18.7086 4.57635 17.8512V18.7543C4.57635 19.6118 5.29326 20.2549 6.25265 20.2549H19.7439C20.7033 20.2549 21.4096 19.6083 21.4096 18.7508V17.8477C21.4096 18.7051 20.6962 19.0952 19.7404 19.0952Z" fill="white"/>
<path d="M20.141 6.46191H5.84498C4.82936 6.46191 4 7.20342 4 8.11361V9.76531L7.41937 10.6509V10.2327C7.41937 10.0675 7.55642 9.93048 7.72159 9.93048H8.88832C9.05349 9.93048 9.19055 10.0675 9.19055 10.2327V11.1078L13 12.0917L16.943 11.0726V10.2327C16.943 10.0675 17.08 9.93048 17.2452 9.93048H18.4119C18.5771 9.93048 18.7142 10.0675 18.7142 10.2327V10.6158L22 9.76531V8.11361C21.9895 7.20342 21.1566 6.46191 20.141 6.46191Z" fill="white"/>
<path d="M9.50332 5.88169V5.15775C9.50332 4.5041 10.0375 3.96642 10.6947 3.96642H15.2878C15.9414 3.96642 16.4791 4.50059 16.4791 5.15775V5.88169H17.6986V4.71144C17.6986 3.75908 16.9606 3 16.0082 3H9.98829C9.03592 3 8.28387 3.75205 8.28387 4.70441V5.87466L9.50332 5.88169Z" fill="white"/>
</g>
<path d="M17.7036 12.4343V13.1723C17.7036 13.3375 17.5666 13.4745 17.4014 13.4745H16.2347C16.0695 13.4745 15.9324 13.3375 15.9324 13.1723V12.8911L11.993 13.9103L8.18352 12.9263V13.1723C8.18352 13.3375 8.04646 13.4745 7.88129 13.4745H6.71456C6.54939 13.4745 6.41233 13.3375 6.41233 13.1723V12.4694L3.56931 11.7139V17.6635C3.56931 18.521 4.28621 19.259 5.2456 19.259H18.7368C19.6962 19.259 20.4026 18.5175 20.4026 17.6635V11.7139L17.7036 12.4343Z" fill="white"/>
<path d="M18.7404 20.0952H5.24914C4.28975 20.0952 3.57635 19.7086 3.57635 18.8512V19.7543C3.57635 20.6118 4.29326 21.2549 5.25265 21.2549H18.7439C19.7033 21.2549 20.4096 20.6083 20.4096 19.7508V18.8477C20.4096 19.7051 19.6962 20.0952 18.7404 20.0952Z" fill="white"/>
<path d="M19.141 7.46191H4.84498C3.82936 7.46191 3 8.20342 3 9.11361V10.7653L6.41937 11.6509V11.2327C6.41937 11.0675 6.55642 10.9305 6.72159 10.9305H7.88832C8.05349 10.9305 8.19055 11.0675 8.19055 11.2327V12.1078L12 13.0917L15.943 12.0726V11.2327C15.943 11.0675 16.08 10.9305 16.2452 10.9305H17.4119C17.5771 10.9305 17.7142 11.0675 17.7142 11.2327V11.6158L21 10.7653V9.11361C20.9895 8.20342 20.1566 7.46191 19.141 7.46191Z" fill="white"/>
<path d="M8.50332 6.88169V6.15775C8.50332 5.5041 9.03749 4.96642 9.69465 4.96642H14.2878C14.9414 4.96642 15.4791 5.50059 15.4791 6.15775V6.88169H16.6986V5.71144C16.6986 4.75908 15.9606 4 15.0082 4H8.98829C8.03592 4 7.28387 4.75205 7.28387 5.70441V6.87466L8.50332 6.88169Z" fill="white"/>
</svg>
