<svg width="24" height="24" viewBox="0 0 24 24" fill="none" xmlns="http://www.w3.org/2000/svg">
<g opacity="0.3">
<path d="M10.432 13.0733C9.34321 12.8196 8.36818 12.2476 7.59875 11.4531C6.3462 12.0969 5.72729 13.047 5.72729 14.3572V18.8039C6.32937 19.0975 7.88086 19.7581 10.0384 19.9995L9.53409 19.5769C9.37496 19.4439 9.2998 19.2283 9.3413 19.0193L10.432 13.0733Z" fill="white"/>
<path d="M11.698 12.0876C14.3341 12.0876 16.4795 9.82446 16.4795 7.04359C16.4795 4.26272 14.3341 2 11.698 2C9.06347 2 6.92004 4.26272 6.92004 7.04359C6.92004 9.82446 9.06328 12.0876 11.698 12.0876Z" fill="white"/>
<path d="M11.5004 13.2695L10.4701 18.9078L11.7423 19.9735L13.0121 18.9086L11.9665 13.2695H11.5004Z" fill="white"/>
<path d="M15.8034 11.4492C15.0493 12.2296 14.0951 12.7935 13.0317 13.0553L14.1415 19.0178C14.1834 19.2276 14.1086 19.4432 13.9499 19.577L13.4725 19.977C14.8031 19.8107 16.245 19.4464 17.7563 18.783V14.3571C17.7563 13.0453 17.1104 12.094 15.8034 11.4492Z" fill="white"/>
</g>
<path d="M9.47748 14.0733C8.38865 13.8196 7.41362 13.2476 6.64419 12.4531C5.39165 13.0969 4.77274 14.047 4.77274 15.3572V19.8039C5.37481 20.0975 6.9263 20.7581 9.08387 20.9995L8.57953 20.5769C8.4204 20.4439 8.34524 20.2283 8.38674 20.0193L9.47748 14.0733Z" fill="white"/>
<path d="M10.7435 13.0876C13.3796 13.0876 15.5249 10.8245 15.5249 8.04359C15.5249 5.26272 13.3796 3 10.7435 3C8.10891 3 5.96548 5.26272 5.96548 8.04359C5.96548 10.8245 8.10872 13.0876 10.7435 13.0876Z" fill="white"/>
<path d="M10.5458 14.2695L9.5155 19.9078L10.7877 20.9735L12.0575 19.9086L11.0119 14.2695H10.5458Z" fill="white"/>
<path d="M14.8488 12.4492C14.0947 13.2296 13.1405 13.7935 12.0771 14.0553L13.187 20.0178C13.2289 20.2276 13.1541 20.4432 12.9953 20.577L12.518 20.977C13.8485 20.8107 15.2904 20.4464 16.8018 19.783V15.3571C16.8018 14.0453 16.1559 13.094 14.8488 12.4492Z" fill="white"/>
</svg>
