<svg width="24" height="24" viewBox="0 0 24 24" fill="none" xmlns="http://www.w3.org/2000/svg">
<g opacity="0.3">
<path d="M3 9.57036V10.2228C3 11.8348 4.24733 13.1588 5.85927 13.274V17.8603C5.85927 18.1866 6.10874 18.436 6.43497 18.436H8.46908C8.79531 18.436 9.04478 18.1866 9.04478 17.8603V13.2932H9.371V6.5H6.07036C4.38166 6.5 3 7.88166 3 9.57036Z" fill="#F4BE2A"/>
<path d="M20.7505 3.10362C20.597 2.98849 20.3859 2.9693 20.2132 3.04606L10.7334 7.07591V12.6985L20.2132 16.7284C20.501 16.8435 20.8464 16.7092 20.9616 16.4213C21 16.3446 21 16.2678 21 16.191V3.58337C21 3.39147 20.904 3.21876 20.7505 3.10362Z" fill="#F4BE2A"/>
</g>
<path d="M2 10.5704V11.2228C2 12.8348 3.24733 14.1588 4.85927 14.274V18.8603C4.85927 19.1866 5.10874 19.436 5.43497 19.436H7.46908C7.79531 19.436 8.04478 19.1866 8.04478 18.8603V14.2932H8.371V7.5H5.07036C3.38166 7.5 2 8.88166 2 10.5704Z" fill="#F4BE2A"/>
<path d="M19.7505 4.10362C19.597 3.98849 19.3859 3.9693 19.2132 4.04606L9.73343 8.07591V13.6985L19.2132 17.7284C19.501 17.8435 19.8464 17.7092 19.9616 17.4213C20 17.3446 20 17.2678 20 17.191V4.58337C20 4.39147 19.904 4.21876 19.7505 4.10362Z" fill="#F4BE2A"/>
</svg>
