<svg width="24" height="24" viewBox="0 0 24 24" fill="none" xmlns="http://www.w3.org/2000/svg">
<g opacity="0.3">
<path d="M11.9999 12.365C13.1292 12.365 14.0447 11.4495 14.0447 10.3202C14.0447 9.19088 13.1292 8.27539 11.9999 8.27539C10.8706 8.27539 9.95511 9.19088 9.95511 10.3202C9.95511 11.4495 10.8706 12.365 11.9999 12.365Z" fill="white"/>
<path d="M13.2563 12.7178L11.9999 14.5682L10.7435 12.7178C8.93269 13.0022 7.54669 14.5718 7.54669 16.4654H16.4567C16.4567 14.5754 15.0707 13.0058 13.2563 12.7178Z" fill="white"/>
<path d="M16.5431 10.0896C17.6724 10.0896 18.5879 9.17411 18.5879 8.0448C18.5879 6.91549 17.6724 6 16.5431 6C15.4138 6 14.4983 6.91549 14.4983 8.0448C14.4983 9.17411 15.4138 10.0896 16.5431 10.0896Z" fill="white"/>
<path d="M7.45679 10.0896C8.5861 10.0896 9.50159 9.17411 9.50159 8.0448C9.50159 6.91549 8.5861 6 7.45679 6C6.32748 6 5.41199 6.91549 5.41199 8.0448C5.41199 9.17411 6.32748 10.0896 7.45679 10.0896Z" fill="white"/>
<path d="M13.2668 12.3612L13.3136 12.3684C14.2784 12.5196 15.164 13.0128 15.8084 13.758C15.9272 13.8948 16.0352 14.0388 16.136 14.19H20.9996C20.9996 12.2964 19.6136 10.7268 17.8028 10.4424L16.5464 12.2928L15.2864 10.4424C14.966 10.4928 14.6564 10.5828 14.3684 10.7124C14.2532 11.4072 13.8392 12.0012 13.2668 12.3612Z" fill="white"/>
<path d="M8.1948 13.758C8.8356 13.0128 9.7212 12.5196 10.6896 12.3684L10.7364 12.3612C10.1604 12.0012 9.7464 11.4072 9.6348 10.7124C9.3468 10.5864 9.0372 10.4964 8.7168 10.4424L7.4604 12.2928L6.1968 10.4424C4.386 10.7268 3 12.2964 3 14.19H7.8672C7.968 14.0388 8.076 13.8948 8.1948 13.758Z" fill="white"/>
</g>
<path d="M10.9999 13.365C12.1292 13.365 13.0447 12.4495 13.0447 11.3202C13.0447 10.1909 12.1292 9.27539 10.9999 9.27539C9.8706 9.27539 8.95511 10.1909 8.95511 11.3202C8.95511 12.4495 9.8706 13.365 10.9999 13.365Z" fill="white"/>
<path d="M12.2563 13.7178L10.9999 15.5682L9.74349 13.7178C7.93269 14.0022 6.54669 15.5718 6.54669 17.4654H15.4567C15.4567 15.5754 14.0707 14.0058 12.2563 13.7178Z" fill="white"/>
<path d="M15.5431 11.0896C16.6724 11.0896 17.5879 10.1741 17.5879 9.0448C17.5879 7.91549 16.6724 7 15.5431 7C14.4138 7 13.4983 7.91549 13.4983 9.0448C13.4983 10.1741 14.4138 11.0896 15.5431 11.0896Z" fill="white"/>
<path d="M6.45679 11.0896C7.5861 11.0896 8.50159 10.1741 8.50159 9.0448C8.50159 7.91549 7.5861 7 6.45679 7C5.32748 7 4.41199 7.91549 4.41199 9.0448C4.41199 10.1741 5.32748 11.0896 6.45679 11.0896Z" fill="white"/>
<path d="M12.2668 13.3612L12.3136 13.3684C13.2784 13.5196 14.164 14.0128 14.8084 14.758C14.9272 14.8948 15.0352 15.0388 15.136 15.19H19.9996C19.9996 13.2964 18.6136 11.7268 16.8028 11.4424L15.5464 13.2928L14.2864 11.4424C13.966 11.4928 13.6564 11.5828 13.3684 11.7124C13.2532 12.4072 12.8392 13.0012 12.2668 13.3612Z" fill="white"/>
<path d="M7.1948 14.758C7.8356 14.0128 8.7212 13.5196 9.6896 13.3684L9.7364 13.3612C9.1604 13.0012 8.7464 12.4072 8.6348 11.7124C8.3468 11.5864 8.0372 11.4964 7.7168 11.4424L6.4604 13.2928L5.1968 11.4424C3.386 11.7268 2 13.2964 2 15.19H6.8672C6.968 15.0388 7.076 14.8948 7.1948 14.758Z" fill="white"/>
</svg>
