<svg width="24" height="24" viewBox="0 0 24 24" fill="none" xmlns="http://www.w3.org/2000/svg">
<g opacity="0.3">
<path d="M20.74 5.8852L18.919 5.4082L16.363 9.2842C16.2592 9.44212 16.1195 9.57315 15.9552 9.6665C15.7909 9.75986 15.6068 9.81288 15.418 9.8212L16.435 16.3132C16.4641 16.5 16.4489 16.691 16.3905 16.8708C16.3322 17.0506 16.2323 17.2141 16.099 17.3482L15.823 17.6242H22V7.5172C22.0008 7.14394 21.8774 6.78103 21.6493 6.48558C21.4212 6.19012 21.1013 5.97892 20.74 5.8852Z" fill="white"/>
<path d="M10.585 9.8212C10.3962 9.81288 10.2121 9.75987 10.0478 9.66651C9.88355 9.57315 9.74377 9.44212 9.64 9.2842L7.084 5.4082L5.263 5.8852C4.90137 5.97878 4.58108 6.18985 4.35247 6.48526C4.12385 6.78067 3.99987 7.14366 4 7.5172V17.6242H10.177L9.90105 17.3482C9.76776 17.2141 9.66789 17.0506 9.60951 16.8708C9.55113 16.691 9.53589 16.5 9.56501 16.3132L10.585 9.8212Z" fill="white"/>
<path d="M14.2 9.07494L13 7.46094L11.8 9.07794L11.875 9.33594L10.75 16.4999L13 18.7499L15.25 16.4999L14.125 9.33594L14.2 9.07494Z" fill="white"/>
<path d="M17.3407 3L13.0014 5.45087L15.3619 8.625L18.0639 4.52679L17.3407 3Z" fill="white"/>
<path d="M7.93893 4.52679L10.6409 8.625L13.0014 5.45087L8.66219 3L7.93893 4.52679Z" fill="white"/>
</g>
<path d="M19.74 6.8852L17.919 6.4082L15.363 10.2842C15.2592 10.4421 15.1195 10.5731 14.9552 10.6665C14.7909 10.7599 14.6068 10.8129 14.418 10.8212L15.435 17.3132C15.4641 17.5 15.4489 17.691 15.3905 17.8708C15.3322 18.0506 15.2323 18.2141 15.099 18.3482L14.823 18.6242H21V8.5172C21.0008 8.14394 20.8774 7.78103 20.6493 7.48558C20.4212 7.19012 20.1013 6.97892 19.74 6.8852Z" fill="white"/>
<path d="M9.58502 10.8212C9.39624 10.8129 9.21213 10.7599 9.04784 10.6665C8.88355 10.5732 8.74377 10.4421 8.64 10.2842L6.084 6.4082L4.263 6.8852C3.90137 6.97878 3.58108 7.18985 3.35247 7.48526C3.12385 7.78067 2.99987 8.14366 3 8.5172V18.6242H9.17702L8.90105 18.3482C8.76776 18.2141 8.66789 18.0506 8.60951 17.8708C8.55113 17.691 8.53589 17.5 8.56501 17.3132L9.58502 10.8212Z" fill="white"/>
<path d="M13.2 10.0749L12 8.46094L10.8 10.0779L10.875 10.3359L9.75 17.4999L12 19.7499L14.25 17.4999L13.125 10.3359L13.2 10.0749Z" fill="white"/>
<path d="M16.3407 4L12.0014 6.45087L14.3619 9.625L17.0639 5.52679L16.3407 4Z" fill="white"/>
<path d="M6.93893 5.52679L9.64095 9.625L12.0014 6.45087L7.66219 4L6.93893 5.52679Z" fill="white"/>
</svg>
