<svg width="24" height="24" viewBox="0 0 24 24" fill="none" xmlns="http://www.w3.org/2000/svg">
<g opacity="0.3">
<path d="M6 5.65279V17.9044C6 19.0599 6.94064 20.0005 8.09612 20.0005H17.1658C18.3213 20.0005 19.2619 19.0599 19.2619 17.9044V5.65279C19.2619 4.49732 18.3213 3.55667 17.1658 3.55667H17.0961C17.1309 3.73086 17.1484 3.91086 17.1484 4.09667V4.75861C17.1654 6.20306 15.9523 7.44313 14.4716 7.43538H10.7903C9.50127 7.43538 8.41546 6.51795 8.16579 5.29861C8.08386 4.76755 8.08467 4.08767 8.16576 3.55668C6.98679 3.51911 5.9977 4.47137 6 5.65279ZM15.6967 16.0986H9.56513C8.4239 16.0776 8.41972 14.3822 9.56513 14.3566H15.6968C16.8388 14.3815 16.8413 16.077 15.6967 16.0986ZM15.6967 13.0212H9.56513C8.42309 12.9963 8.42057 11.3009 9.56513 11.2792H15.6968C16.838 11.3002 16.8422 12.9957 15.6967 13.0212ZM9.56513 8.19602H15.6968C16.8387 8.21679 16.8421 9.91654 15.6967 9.93795H9.56513C8.42316 9.91719 8.41979 8.21742 9.56513 8.19602Z" fill="white"/>
<path d="M14.4715 2.00051H10.7902C9.82055 2.00051 9.00766 2.66245 8.76381 3.55663C8.65568 3.86804 8.70579 4.42749 8.6941 4.75857C8.68531 5.88662 9.62932 6.86004 10.7903 6.85469H14.4715C15.4412 6.85469 16.2541 6.19275 16.498 5.29857C16.6061 4.98716 16.556 4.42771 16.5677 4.09663C16.5765 2.96858 15.6325 1.99516 14.4715 2.00051ZM14.8257 4.75857C14.8257 4.95597 14.6631 5.11276 14.4715 5.11276H10.7902C10.2854 5.10312 10.467 4.41123 10.436 4.09663C10.436 3.89919 10.5986 3.74244 10.7903 3.74244H14.4715C14.9764 3.75205 14.7948 4.44397 14.8257 4.75857Z" fill="white"/>
</g>
<path d="M5 6.65279V18.9044C5 20.0599 5.94064 21.0005 7.09612 21.0005H16.1658C17.3213 21.0005 18.2619 20.0599 18.2619 18.9044V6.65279C18.2619 5.49732 17.3213 4.55667 16.1658 4.55667H16.0961C16.1309 4.73086 16.1484 4.91086 16.1484 5.09667V5.75861C16.1654 7.20306 14.9523 8.44313 13.4716 8.43538H9.79032C8.50127 8.43538 7.41546 7.51795 7.16579 6.29861C7.08386 5.76755 7.08467 5.08767 7.16576 4.55668C5.98679 4.51911 4.9977 5.47137 5 6.65279ZM14.6967 17.0986H8.56513C7.4239 17.0776 7.41972 15.3822 8.56513 15.3566H14.6968C15.8388 15.3815 15.8413 17.077 14.6967 17.0986ZM14.6967 14.0212H8.56513C7.42309 13.9963 7.42057 12.3009 8.56513 12.2792H14.6968C15.838 12.3002 15.8422 13.9957 14.6967 14.0212ZM8.56513 9.19602H14.6968C15.8387 9.21679 15.8421 10.9165 14.6967 10.9379H8.56513C7.42316 10.9172 7.41979 9.21742 8.56513 9.19602Z" fill="white"/>
<path d="M13.4715 3.00051H9.79025C8.82055 3.00051 8.00766 3.66245 7.76381 4.55663C7.65568 4.86804 7.70579 5.42749 7.6941 5.75857C7.68531 6.88662 8.62932 7.86004 9.79025 7.85469H13.4715C14.4412 7.85469 15.2541 7.19275 15.498 6.29857C15.6061 5.98716 15.556 5.42771 15.5677 5.09663C15.5765 3.96858 14.6325 2.99516 13.4715 3.00051ZM13.8257 5.75857C13.8257 5.95597 13.6631 6.11276 13.4715 6.11276H9.79025C9.28537 6.10312 9.467 5.41123 9.43603 5.09663C9.43603 4.89919 9.59863 4.74244 9.79025 4.74244H13.4715C13.9764 4.75205 13.7948 5.44397 13.8257 5.75857Z" fill="white"/>
</svg>
