<svg width="24" height="24" viewBox="0 0 24 24" fill="none" xmlns="http://www.w3.org/2000/svg">
<g opacity="0.3">
<path d="M10.4323 13.0743C9.34346 12.8206 8.36842 12.2485 7.59899 11.4541C6.34645 12.0979 5.72754 13.048 5.72754 14.3582V18.8049C6.32962 19.0984 7.8811 19.759 10.0387 20.0005L9.53433 19.5779C9.3752 19.4449 9.30004 19.2293 9.34154 19.0203L10.4323 13.0743Z" fill="white"/>
<path d="M11.6984 12.0881C14.3345 12.0881 16.4798 9.82495 16.4798 7.04408C16.4798 4.26321 14.3345 2.00049 11.6984 2.00049C9.06383 2.00049 6.92041 4.26321 6.92041 7.04408C6.92041 9.82495 9.06364 12.0881 11.6984 12.0881Z" fill="white"/>
<path d="M11.5005 13.27L10.4702 18.9083L11.7425 19.974L13.0122 18.9091L11.9666 13.27H11.5005Z" fill="white"/>
<path d="M15.8034 11.4502C15.0493 12.2306 14.0951 12.7944 13.0317 13.0563L14.1416 19.0188C14.1835 19.2286 14.1087 19.4442 13.95 19.578L13.4726 19.9779C14.8032 19.8116 16.2451 19.4474 17.7564 18.784V14.3581C17.7564 13.0463 17.1105 12.095 15.8034 11.4502Z" fill="white"/>
</g>
<path d="M9.47769 14.0743C8.38887 13.8206 7.41383 13.2485 6.6444 12.4541C5.39186 13.0979 4.77295 14.048 4.77295 15.3582V19.8049C5.37503 20.0984 6.92651 20.759 9.08409 21.0005L8.57974 20.5779C8.42061 20.4449 8.34545 20.2293 8.38695 20.0203L9.47769 14.0743Z" fill="white"/>
<path d="M10.7438 13.0881C13.3799 13.0881 15.5253 10.8249 15.5253 8.04408C15.5253 5.26321 13.3799 3.00049 10.7438 3.00049C8.10924 3.00049 5.96582 5.26321 5.96582 8.04408C5.96582 10.8249 8.10905 13.0881 10.7438 13.0881Z" fill="white"/>
<path d="M10.5459 14.27L9.51562 19.9083L10.7879 20.974L12.0576 19.9091L11.012 14.27H10.5459Z" fill="white"/>
<path d="M14.8489 12.4502C14.0947 13.2306 13.1405 13.7944 12.0771 14.0563L13.187 20.0188C13.2289 20.2286 13.1541 20.4442 12.9954 20.578L12.518 20.9779C13.8486 20.8116 15.2905 20.4474 16.8018 19.784V15.3581C16.8018 14.0463 16.1559 13.095 14.8489 12.4502Z" fill="white"/>
</svg>
