<svg width="24" height="24" viewBox="0 0 24 24" fill="none" xmlns="http://www.w3.org/2000/svg">
<path opacity="0.3" fill-rule="evenodd" clip-rule="evenodd" d="M19.1337 14.9712C18.3463 13.9436 17.3937 13.2763 16.0289 12.8977L14.7501 17.375C14.7501 17.7874 14.4124 18.1251 14 18.1251C13.5878 18.1251 13.2501 17.7874 13.2501 17.375V13.8125C13.2501 13.2951 12.83 12.875 12.3126 12.875C11.7951 12.875 11.3751 13.2951 11.3751 13.8125V17.375C11.3751 17.7874 11.0374 18.1251 10.6251 18.1251C10.2127 18.1251 9.87504 17.7874 9.87504 17.375L8.59623 12.8977C7.23135 13.28 6.27886 13.9436 5.4915 14.9712C5.18021 15.3762 5.01106 16.1899 5 16.6251C5.00371 16.7376 5 16.8689 5 16.9999V17.75V18.5001C5 19.3288 5.67129 20 6.50005 20H18.125C18.9537 20 19.6251 19.3288 19.6251 18.5001V17.75V16.9999C19.6251 16.8689 19.6215 16.7376 19.6251 16.6251C19.6138 16.1899 19.4448 15.3762 19.1337 14.9712ZM8.37504 5.96749C8.37504 8.15749 9.74032 11.375 12.3126 11.375C14.8401 11.375 16.25 8.15749 16.25 5.96749C16.25 3.77758 14.4875 2 12.3126 2C10.1376 2 8.37504 3.77758 8.37504 5.96749Z" fill="white"/>
<path fill-rule="evenodd" clip-rule="evenodd" d="M18.1337 15.9712C17.3463 14.9436 16.3937 14.2763 15.0289 13.8977L13.7501 18.375C13.7501 18.7874 13.4124 19.1251 13 19.1251C12.5878 19.1251 12.2501 18.7874 12.2501 18.375V14.8125C12.2501 14.2951 11.83 13.875 11.3126 13.875C10.7951 13.875 10.3751 14.2951 10.3751 14.8125V18.375C10.3751 18.7874 10.0374 19.1251 9.62513 19.1251C9.21271 19.1251 8.87504 18.7874 8.87504 18.375L7.59623 13.8977C6.23135 14.28 5.27886 14.9436 4.4915 15.9712C4.18021 16.3762 4.01106 17.1899 4 17.6251C4.00371 17.7376 4 17.8689 4 17.9999V18.75V19.5001C4 20.3288 4.67129 21 5.50005 21H17.125C17.9537 21 18.6251 20.3288 18.6251 19.5001V18.75V17.9999C18.6251 17.8689 18.6215 17.7376 18.6251 17.6251C18.6138 17.1899 18.4448 16.3762 18.1337 15.9712ZM7.37504 6.96749C7.37504 9.15749 8.74032 12.375 11.3126 12.375C13.8401 12.375 15.25 9.15749 15.25 6.96749C15.25 4.77758 13.4875 3 11.3126 3C9.13763 3 7.37504 4.77758 7.37504 6.96749Z" fill="white"/>
</svg>
